<svg width="518" height="474" viewBox="0 0 518 474" fill="none" xmlns="http://www.w3.org/2000/svg">
<g filter="url(#filter0_d_1268_4566)">
<rect x="13.5711" y="4" width="291" height="458" rx="11.9441" fill="#FFCA1A"/>
<path d="M59.6057 182.368H68.1177V205.944C67.7444 206.019 67.1844 206.112 66.4377 206.224C65.7284 206.336 64.9817 206.392 64.1977 206.392C62.5177 206.392 61.3231 206.093 60.6137 205.496C59.9417 204.899 59.6057 203.872 59.6057 202.416V182.368ZM68.1177 193.008H59.6057V171.952C60.0164 171.877 60.5951 171.784 61.3417 171.672C62.0884 171.56 62.8351 171.504 63.5817 171.504C65.1871 171.504 66.3444 171.784 67.0537 172.344C67.7631 172.904 68.1177 173.949 68.1177 175.48V193.008ZM75.6747 191.216L83.9067 191.384V205.944C83.5707 206.019 83.0667 206.112 82.3947 206.224C81.7227 206.336 80.9947 206.392 80.2107 206.392C78.6427 206.392 77.4853 206.112 76.7387 205.552C76.0293 204.992 75.6747 203.984 75.6747 202.528V191.216ZM83.9067 195.64L75.6747 195.472V169.544C76.0107 169.432 76.5147 169.32 77.1867 169.208C77.8587 169.096 78.5867 169.04 79.3707 169.04C80.976 169.04 82.1333 169.32 82.8427 169.88C83.552 170.403 83.9067 171.411 83.9067 172.904V195.64ZM90.7605 195.528V191.496H98.9925V195.472C98.9925 197.189 99.4405 198.44 100.337 199.224C101.233 199.971 102.483 200.344 104.089 200.344C105.097 200.344 105.937 200.251 106.609 200.064C107.318 199.877 107.841 199.672 108.177 199.448V191.496H116.409V200.456C116.409 201.352 116.241 202.117 115.905 202.752C115.569 203.387 115.009 203.947 114.225 204.432C113.03 205.179 111.555 205.757 109.801 206.168C108.083 206.616 106.161 206.84 104.033 206.84C101.382 206.84 99.0485 206.448 97.0325 205.664C95.0539 204.88 93.5045 203.667 92.3845 202.024C91.3019 200.344 90.7605 198.179 90.7605 195.528ZM116.409 194.016H108.177V179.232C108.513 179.12 109.017 179.008 109.689 178.896C110.361 178.784 111.089 178.728 111.873 178.728C113.478 178.728 114.635 179.008 115.345 179.568C116.054 180.091 116.409 181.117 116.409 182.648V194.016ZM98.9925 194.016H90.7605V179.232C91.0965 179.12 91.6005 179.008 92.2725 178.896C92.9445 178.784 93.6725 178.728 94.4565 178.728C96.0619 178.728 97.2192 179.008 97.9285 179.568C98.6379 180.091 98.9925 181.117 98.9925 182.648V194.016ZM144.701 198.16C144.701 200.885 143.674 203.032 141.621 204.6C139.567 206.131 136.581 206.896 132.661 206.896C129.599 206.896 127.079 206.448 125.101 205.552C123.122 204.619 122.133 203.293 122.133 201.576C122.133 200.792 122.301 200.12 122.637 199.56C122.973 198.963 123.402 198.496 123.925 198.16C124.97 198.795 126.183 199.355 127.565 199.84C128.983 200.325 130.589 200.568 132.381 200.568C135.143 200.568 136.525 199.784 136.525 198.216C136.525 197.544 136.263 197.021 135.741 196.648C135.255 196.237 134.471 195.92 133.389 195.696L130.925 195.136C127.975 194.539 125.754 193.587 124.261 192.28C122.805 190.936 122.077 189.107 122.077 186.792C122.077 184.179 123.122 182.107 125.213 180.576C127.341 179.045 130.197 178.28 133.781 178.28C135.573 178.28 137.197 178.467 138.653 178.84C140.109 179.176 141.266 179.699 142.125 180.408C142.983 181.117 143.413 182.013 143.413 183.096C143.413 183.805 143.263 184.459 142.965 185.056C142.666 185.616 142.293 186.064 141.845 186.4C141.397 186.139 140.762 185.877 139.941 185.616C139.119 185.317 138.205 185.075 137.197 184.888C136.226 184.664 135.311 184.552 134.453 184.552C133.109 184.552 132.045 184.739 131.261 185.112C130.514 185.485 130.141 186.045 130.141 186.792C130.141 187.277 130.346 187.707 130.757 188.08C131.205 188.416 131.989 188.715 133.109 188.976L135.349 189.48C138.671 190.264 141.061 191.365 142.517 192.784C143.973 194.165 144.701 195.957 144.701 198.16ZM149.99 191.216H158.166V197.208C158.166 198.291 158.502 199.075 159.174 199.56C159.846 200.008 160.779 200.232 161.974 200.232C162.571 200.232 163.187 200.176 163.822 200.064C164.456 199.952 165.016 199.803 165.502 199.616C165.8 199.952 166.062 200.363 166.286 200.848C166.51 201.296 166.622 201.837 166.622 202.472C166.622 203.741 166.099 204.787 165.054 205.608C164.046 206.392 162.31 206.784 159.846 206.784C156.747 206.784 154.32 206.093 152.566 204.712C150.848 203.293 149.99 200.979 149.99 197.768V191.216ZM155.142 186.12V179.736H165.95C166.136 180.035 166.323 180.464 166.51 181.024C166.696 181.584 166.79 182.2 166.79 182.872C166.79 183.992 166.528 184.813 166.006 185.336C165.52 185.859 164.848 186.12 163.99 186.12H155.142ZM158.166 192.616H149.99V172.512C150.326 172.4 150.83 172.288 151.502 172.176C152.174 172.027 152.883 171.952 153.63 171.952C155.198 171.952 156.336 172.232 157.046 172.792C157.792 173.352 158.166 174.36 158.166 175.816V192.616ZM179.985 186.344V193.344H171.753V185.336C171.753 184.291 171.995 183.413 172.481 182.704C173.003 181.957 173.713 181.304 174.609 180.744C175.841 179.997 177.315 179.419 179.033 179.008C180.787 178.56 182.617 178.336 184.521 178.336C188.329 178.336 190.233 179.605 190.233 182.144C190.233 182.741 190.139 183.301 189.953 183.824C189.803 184.309 189.598 184.739 189.337 185.112C188.963 185.037 188.497 184.981 187.937 184.944C187.414 184.907 186.854 184.888 186.257 184.888C185.099 184.888 183.961 185.019 182.841 185.28C181.758 185.504 180.806 185.859 179.985 186.344ZM171.753 191.216L179.985 191.384V205.944C179.649 206.019 179.145 206.112 178.473 206.224C177.801 206.336 177.073 206.392 176.289 206.392C174.721 206.392 173.563 206.112 172.817 205.552C172.107 204.992 171.753 203.984 171.753 202.528V191.216ZM204.714 206.84C200.906 206.84 197.864 206.112 195.586 204.656C193.346 203.163 192.226 200.941 192.226 197.992C192.226 195.453 193.01 193.512 194.578 192.168C196.146 190.787 198.48 189.947 201.578 189.648L209.082 188.864V188.192C209.082 186.885 208.578 185.952 207.57 185.392C206.562 184.832 205.162 184.552 203.37 184.552C201.952 184.552 200.552 184.72 199.17 185.056C197.789 185.392 196.557 185.803 195.474 186.288C195.026 185.952 194.653 185.485 194.354 184.888C194.056 184.291 193.906 183.656 193.906 182.984C193.906 181.416 194.746 180.277 196.426 179.568C197.509 179.157 198.76 178.84 200.178 178.616C201.634 178.392 203.034 178.28 204.378 178.28C208.224 178.28 211.304 179.101 213.618 180.744C215.933 182.349 217.09 184.851 217.09 188.248V200.96C217.09 201.893 216.848 202.659 216.362 203.256C215.877 203.816 215.28 204.301 214.57 204.712C213.45 205.384 212.05 205.907 210.37 206.28C208.728 206.653 206.842 206.84 204.714 206.84ZM204.714 200.736C205.573 200.736 206.413 200.643 207.234 200.456C208.093 200.269 208.709 200.064 209.082 199.84V194.464L204.322 194.856C203.053 194.968 202.045 195.248 201.298 195.696C200.589 196.144 200.234 196.816 200.234 197.712C200.234 198.645 200.589 199.392 201.298 199.952C202.008 200.475 203.146 200.736 204.714 200.736ZM245.326 198.16C245.326 200.885 244.299 203.032 242.246 204.6C240.192 206.131 237.206 206.896 233.286 206.896C230.224 206.896 227.704 206.448 225.726 205.552C223.747 204.619 222.758 203.293 222.758 201.576C222.758 200.792 222.926 200.12 223.262 199.56C223.598 198.963 224.027 198.496 224.55 198.16C225.595 198.795 226.808 199.355 228.19 199.84C229.608 200.325 231.214 200.568 233.006 200.568C235.768 200.568 237.15 199.784 237.15 198.216C237.15 197.544 236.888 197.021 236.366 196.648C235.88 196.237 235.096 195.92 234.014 195.696L231.55 195.136C228.6 194.539 226.379 193.587 224.886 192.28C223.43 190.936 222.702 189.107 222.702 186.792C222.702 184.179 223.747 182.107 225.838 180.576C227.966 179.045 230.822 178.28 234.406 178.28C236.198 178.28 237.822 178.467 239.278 178.84C240.734 179.176 241.891 179.699 242.75 180.408C243.608 181.117 244.038 182.013 244.038 183.096C244.038 183.805 243.888 184.459 243.59 185.056C243.291 185.616 242.918 186.064 242.47 186.4C242.022 186.139 241.387 185.877 240.566 185.616C239.744 185.317 238.83 185.075 237.822 184.888C236.851 184.664 235.936 184.552 235.078 184.552C233.734 184.552 232.67 184.739 231.886 185.112C231.139 185.485 230.766 186.045 230.766 186.792C230.766 187.277 230.971 187.707 231.382 188.08C231.83 188.416 232.614 188.715 233.734 188.976L235.974 189.48C239.296 190.264 241.686 191.365 243.142 192.784C244.598 194.165 245.326 195.957 245.326 198.16ZM250.223 171.392C250.223 170.123 250.652 169.059 251.511 168.2C252.407 167.341 253.527 166.912 254.871 166.912C256.215 166.912 257.316 167.341 258.175 168.2C259.033 169.059 259.463 170.123 259.463 171.392C259.463 172.624 259.033 173.688 258.175 174.584C257.316 175.443 256.215 175.872 254.871 175.872C253.527 175.872 252.407 175.443 251.511 174.584C250.652 173.688 250.223 172.624 250.223 171.392ZM250.727 191.216H259.015V205.944C258.641 206.019 258.119 206.112 257.447 206.224C256.775 206.336 256.047 206.392 255.263 206.392C253.695 206.392 252.537 206.112 251.791 205.552C251.081 204.992 250.727 203.984 250.727 202.528V191.216ZM259.015 195.472H250.727V179.456C251.1 179.344 251.623 179.232 252.295 179.12C252.967 179.008 253.695 178.952 254.479 178.952C256.047 178.952 257.185 179.232 257.895 179.792C258.641 180.315 259.015 181.323 259.015 182.816V195.472ZM87.9065 270.48H96.4185V293.608L92.4425 294.112C91.0612 294.112 89.9598 293.701 89.1385 292.88C88.3172 292.059 87.9065 290.957 87.9065 289.576V270.48ZM92.4425 294.112V287.224H110.027C110.288 287.56 110.512 288.027 110.699 288.624C110.885 289.221 110.979 289.856 110.979 290.528C110.979 291.723 110.717 292.619 110.195 293.216C109.672 293.813 108.944 294.112 108.011 294.112H92.4425ZM96.4185 281.008H87.9065V259.952C88.2798 259.877 88.8398 259.784 89.5865 259.672C90.3705 259.56 91.1172 259.504 91.8265 259.504C93.4318 259.504 94.5892 259.784 95.2985 260.344C96.0452 260.904 96.4185 261.949 96.4185 263.48V281.008ZM119.043 284.48L118.707 278.88L132.651 276.696C132.539 275.613 132.072 274.643 131.251 273.784C130.429 272.888 129.216 272.44 127.611 272.44C125.893 272.44 124.475 273.019 123.355 274.176C122.235 275.296 121.656 276.92 121.619 279.048L121.843 282.856C122.216 284.909 123.112 286.384 124.531 287.28C125.949 288.139 127.629 288.568 129.571 288.568C131.139 288.568 132.613 288.363 133.995 287.952C135.376 287.504 136.496 287.019 137.355 286.496C137.877 286.832 138.325 287.299 138.699 287.896C139.072 288.493 139.259 289.128 139.259 289.8C139.259 290.92 138.811 291.853 137.915 292.6C137.056 293.347 135.843 293.907 134.275 294.28C132.744 294.653 130.989 294.84 129.011 294.84C126.136 294.84 123.56 294.299 121.283 293.216C119.005 292.133 117.213 290.509 115.907 288.344C114.6 286.179 113.947 283.472 113.947 280.224C113.947 277.835 114.32 275.763 115.067 274.008C115.813 272.253 116.821 270.816 118.091 269.696C119.397 268.539 120.853 267.68 122.459 267.12C124.101 266.56 125.8 266.28 127.555 266.28C130.131 266.28 132.371 266.803 134.275 267.848C136.216 268.856 137.728 270.237 138.811 271.992C139.893 273.747 140.435 275.781 140.435 278.096C140.435 279.253 140.117 280.131 139.483 280.728C138.848 281.288 137.971 281.661 136.851 281.848L119.043 284.48ZM156.562 294.84C152.754 294.84 149.711 294.112 147.434 292.656C145.194 291.163 144.074 288.941 144.074 285.992C144.074 283.453 144.858 281.512 146.426 280.168C147.994 278.787 150.327 277.947 153.426 277.648L160.93 276.864V276.192C160.93 274.885 160.426 273.952 159.418 273.392C158.41 272.832 157.01 272.552 155.218 272.552C153.799 272.552 152.399 272.72 151.018 273.056C149.637 273.392 148.405 273.803 147.322 274.288C146.874 273.952 146.501 273.485 146.202 272.888C145.903 272.291 145.754 271.656 145.754 270.984C145.754 269.416 146.594 268.277 148.274 267.568C149.357 267.157 150.607 266.84 152.026 266.616C153.482 266.392 154.882 266.28 156.226 266.28C160.071 266.28 163.151 267.101 165.466 268.744C167.781 270.349 168.938 272.851 168.938 276.248V288.96C168.938 289.893 168.695 290.659 168.21 291.256C167.725 291.816 167.127 292.301 166.418 292.712C165.298 293.384 163.898 293.907 162.218 294.28C160.575 294.653 158.69 294.84 156.562 294.84ZM156.562 288.736C157.421 288.736 158.261 288.643 159.082 288.456C159.941 288.269 160.557 288.064 160.93 287.84V282.464L156.17 282.856C154.901 282.968 153.893 283.248 153.146 283.696C152.437 284.144 152.082 284.816 152.082 285.712C152.082 286.645 152.437 287.392 153.146 287.952C153.855 288.475 154.994 288.736 156.562 288.736ZM201.037 276.584V281.848H192.805V276.864C192.805 275.445 192.395 274.419 191.573 273.784C190.752 273.149 189.688 272.832 188.381 272.832C187.448 272.832 186.589 272.944 185.805 273.168C185.021 273.392 184.293 273.672 183.621 274.008V281.848H175.389V273.112C175.389 272.179 175.576 271.413 175.949 270.816C176.36 270.181 176.957 269.621 177.741 269.136C178.936 268.315 180.448 267.643 182.277 267.12C184.144 266.56 186.197 266.28 188.437 266.28C192.469 266.28 195.568 267.176 197.733 268.968C199.936 270.723 201.037 273.261 201.037 276.584ZM175.389 279.272H183.621V293.944C183.285 294.019 182.781 294.112 182.109 294.224C181.437 294.336 180.709 294.392 179.925 294.392C178.357 294.392 177.2 294.112 176.453 293.552C175.744 292.992 175.389 291.984 175.389 290.528V279.272ZM192.805 279.272H201.037V293.944C200.701 294.019 200.197 294.112 199.525 294.224C198.853 294.336 198.125 294.392 197.341 294.392C195.773 294.392 194.616 294.112 193.869 293.552C193.16 292.992 192.805 291.984 192.805 290.528V279.272ZM218.632 294.84C214.824 294.84 211.782 294.112 209.504 292.656C207.264 291.163 206.144 288.941 206.144 285.992C206.144 283.453 206.928 281.512 208.496 280.168C210.064 278.787 212.398 277.947 215.496 277.648L223 276.864V276.192C223 274.885 222.496 273.952 221.488 273.392C220.48 272.832 219.08 272.552 217.288 272.552C215.87 272.552 214.47 272.72 213.088 273.056C211.707 273.392 210.475 273.803 209.392 274.288C208.944 273.952 208.571 273.485 208.272 272.888C207.974 272.291 207.824 271.656 207.824 270.984C207.824 269.416 208.664 268.277 210.344 267.568C211.427 267.157 212.678 266.84 214.096 266.616C215.552 266.392 216.952 266.28 218.296 266.28C222.142 266.28 225.222 267.101 227.536 268.744C229.851 270.349 231.008 272.851 231.008 276.248V288.96C231.008 289.893 230.766 290.659 230.28 291.256C229.795 291.816 229.198 292.301 228.488 292.712C227.368 293.384 225.968 293.907 224.288 294.28C222.646 294.653 220.76 294.84 218.632 294.84ZM218.632 288.736C219.491 288.736 220.331 288.643 221.152 288.456C222.011 288.269 222.627 288.064 223 287.84V282.464L218.24 282.856C216.971 282.968 215.963 283.248 215.216 283.696C214.507 284.144 214.152 284.816 214.152 285.712C214.152 286.645 214.507 287.392 215.216 287.952C215.926 288.475 217.064 288.736 218.632 288.736Z" fill="white"/>
<ellipse cx="365.724" cy="83.1471" rx="140.173" ry="77.3575" transform="rotate(-0.734097 365.724 83.1471)" fill="#AC11B3"/>
<path d="M326.228 131.5C326.9 140.432 319.495 160.883 284.501 171.234C289.899 168.242 305.802 156.107 326.228 131.5Z" fill="#AC11B3"/>
<path d="M262.026 65.9782L267.48 53.3073L270.36 53.2704L276.155 65.7972L273.095 65.8364L268.345 54.7723L269.497 54.7576L265.014 65.9399L262.026 65.9782ZM264.8 63.2425L265.545 61.0187L272.025 60.9357L272.845 63.1394L264.8 63.2425ZM278.025 69.4095C277.521 69.416 277.022 69.3444 276.528 69.1947C276.034 69.045 275.63 68.8342 275.314 68.5622L276.314 66.5512C276.533 66.7404 276.781 66.8873 277.058 66.9917C277.347 67.096 277.63 67.1464 277.906 67.1429C278.302 67.1378 278.613 67.0378 278.838 66.8429C279.076 66.6598 279.288 66.3511 279.474 65.9167L279.963 64.7223L280.175 64.4136L283.542 56.0177L286.242 55.9831L282 66.3163C281.698 67.1003 281.346 67.7168 280.943 68.166C280.553 68.6151 280.113 68.9327 279.624 69.119C279.146 69.3052 278.613 69.402 278.025 69.4095ZM279.639 66.1306L275.191 56.1247L278.088 56.0876L281.54 64.1441L279.639 66.1306ZM291.857 65.74C290.825 65.7532 289.905 65.549 289.095 65.1273C288.298 64.7055 287.66 64.1256 287.183 63.3877C286.717 62.6376 286.478 61.7826 286.466 60.8227C286.453 59.8508 286.67 58.9899 287.117 58.2401C287.575 57.4782 288.198 56.8822 288.984 56.4521C289.783 56.0098 290.698 55.782 291.73 55.7688C292.75 55.7558 293.664 55.9601 294.474 56.3817C295.283 56.7914 295.92 57.3653 296.386 58.1034C296.851 58.8415 297.09 59.7025 297.103 60.6864C297.115 61.6463 296.898 62.5072 296.452 63.2689C296.006 64.0187 295.383 64.6147 294.585 65.057C293.786 65.4993 292.877 65.7269 291.857 65.74ZM291.828 63.4362C292.296 63.4302 292.714 63.3168 293.084 63.0961C293.453 62.8753 293.743 62.5656 293.954 62.1669C294.165 61.7561 294.266 61.2748 294.259 60.7228C294.252 60.1589 294.138 59.6803 293.917 59.2871C293.696 58.8939 293.398 58.5917 293.023 58.3805C292.648 58.1692 292.227 58.0666 291.759 58.0726C291.291 58.0786 290.873 58.192 290.503 58.4127C290.134 58.6335 289.838 58.9433 289.615 59.3422C289.404 59.7409 289.302 60.2223 289.31 60.7862C289.317 61.3382 289.431 61.8168 289.652 62.222C289.885 62.615 290.189 62.9171 290.564 63.1284C290.939 63.3396 291.36 63.4422 291.828 63.4362ZM298.486 68.2833L299.618 63.9484L300.035 65.5632C299.519 65.5698 299.091 65.4253 298.752 65.1296C298.424 64.8338 298.256 64.4219 298.25 63.894C298.243 63.366 298.406 62.9439 298.738 62.6276C299.069 62.3113 299.481 62.15 299.973 62.1437C300.477 62.1373 300.893 62.2939 301.222 62.6138C301.549 62.9216 301.717 63.3335 301.723 63.8494C301.725 64.0054 301.715 64.1616 301.693 64.3179C301.671 64.4622 301.626 64.6428 301.556 64.8597C301.499 65.0644 301.4 65.3297 301.261 65.6555L300.268 68.2605L298.486 68.2833ZM308.071 69.0245C307.639 69.0301 307.224 68.9874 306.827 68.8965C306.43 68.8175 306.092 68.6899 305.814 68.5134L306.544 66.4699C306.871 66.6937 307.268 66.8026 307.736 66.7966C308.084 66.7922 308.359 66.6687 308.56 66.4261C308.773 66.1953 308.876 65.846 308.87 65.378L308.746 55.6948L311.554 55.6588L311.678 65.324C311.692 66.4399 311.385 67.3319 310.758 68C310.13 68.6681 309.235 69.0096 308.071 69.0245ZM310.133 54.3269C309.617 54.3335 309.195 54.1889 308.867 53.8931C308.539 53.5973 308.372 53.2274 308.367 52.7834C308.361 52.3395 308.518 51.9654 308.838 51.6613C309.159 51.3572 309.577 51.2018 310.093 51.1952C310.609 51.1886 311.03 51.3272 311.358 51.611C311.685 51.8828 311.852 52.2407 311.858 52.6847C311.864 53.1526 311.707 53.5447 311.387 53.8608C311.079 54.1648 310.661 54.3202 310.133 54.3269ZM320.203 65.2328L320.179 63.343L319.993 62.9313L319.95 59.5476C319.942 58.9476 319.75 58.482 319.374 58.1508C319.01 57.8195 318.45 57.6586 317.694 57.6683C317.178 57.6749 316.669 57.7655 316.167 57.9399C315.677 58.1022 315.26 58.3236 314.915 58.604L313.882 56.6551C314.406 56.2763 315.038 55.9802 315.779 55.7667C316.52 55.5532 317.275 55.4415 318.043 55.4317C319.519 55.4128 320.669 55.746 321.494 56.4315C322.319 57.117 322.741 58.1977 322.76 59.6736L322.831 65.1991L320.203 65.2328ZM317.253 65.4146C316.497 65.4243 315.847 65.3066 315.304 65.0615C314.761 64.8045 314.342 64.4558 314.049 64.0155C313.755 63.5753 313.605 63.0792 313.598 62.5272C313.59 61.9512 313.722 61.4455 313.992 61.01C314.275 60.5744 314.72 60.2326 315.329 59.9848C315.938 59.725 316.734 59.5888 317.718 59.5762L320.292 59.5432L320.313 61.1811L318.045 61.2101C317.385 61.2186 316.931 61.3324 316.681 61.5516C316.444 61.7707 316.328 62.0422 316.332 62.3662C316.336 62.7261 316.478 63.0123 316.757 63.2248C317.047 63.4251 317.439 63.5221 317.931 63.5158C318.399 63.5098 318.817 63.3964 319.186 63.1757C319.555 62.9429 319.821 62.6095 319.984 62.1754L320.432 63.4657C320.236 64.0923 319.87 64.571 319.334 64.9019C318.799 65.2328 318.105 65.4037 317.253 65.4146ZM329.602 65.2564C328.69 65.2681 327.865 65.0746 327.128 64.676C326.391 64.2654 325.801 63.6909 325.36 62.9525C324.93 62.214 324.709 61.3407 324.696 60.3328C324.683 59.3129 324.882 58.4283 325.292 57.679C325.715 56.9295 326.289 56.3461 327.016 55.9287C327.743 55.5114 328.562 55.2969 329.474 55.2852C330.29 55.2747 331.006 55.4456 331.623 55.7977C332.239 56.1498 332.72 56.6897 333.065 57.4174C333.411 58.145 333.591 59.0788 333.605 60.2187C333.62 61.3466 333.47 62.2846 333.155 63.0327C332.841 63.7688 332.38 64.3207 331.772 64.6885C331.177 65.0562 330.453 65.2455 329.602 65.2564ZM330.058 62.9463C330.514 62.9405 330.927 62.8272 331.296 62.6065C331.665 62.3857 331.955 62.076 332.166 61.6772C332.389 61.2663 332.496 60.7849 332.489 60.233C332.482 59.669 332.362 59.1905 332.129 58.7975C331.908 58.4043 331.61 58.1021 331.235 57.8908C330.861 57.6796 330.445 57.5769 329.989 57.5828C329.521 57.5888 329.103 57.7022 328.733 57.9229C328.364 58.1437 328.068 58.4535 327.845 58.8524C327.634 59.2511 327.533 59.7324 327.54 60.2964C327.547 60.8483 327.661 61.3269 327.882 61.7321C328.115 62.1252 328.419 62.4273 328.794 62.6385C329.169 62.8497 329.59 62.9523 330.058 62.9463ZM332.623 65.0737L332.598 63.0938L332.615 60.2134L332.399 57.3539L332.326 51.7204L335.134 51.6844L335.305 65.0393L332.623 65.0737ZM337.904 65.006L337.78 55.3228L340.588 55.2868L340.712 64.97L337.904 65.006ZM339.166 53.9549C338.65 53.9615 338.229 53.8169 337.901 53.5211C337.573 53.2253 337.406 52.8554 337.4 52.4114C337.395 51.9674 337.552 51.5934 337.872 51.2893C338.192 50.9851 338.61 50.8298 339.126 50.8232C339.642 50.8166 340.064 50.9552 340.392 51.239C340.719 51.5108 340.886 51.8687 340.892 52.3127C340.898 52.7806 340.741 53.1727 340.421 53.4888C340.112 53.7928 339.694 53.9481 339.166 53.9549ZM348.613 64.8688L348.451 52.2698L351.367 52.2325L351.498 62.4556L357.816 62.3747L357.846 64.7505L348.613 64.8688ZM362.061 57.1719L368.126 57.0941L368.155 59.3619L362.09 59.4397L362.061 57.1719ZM362.343 62.3527L369.2 62.2648L369.23 64.6046L359.475 64.7296L359.314 52.1306L368.835 52.0086L368.865 54.3484L362.241 54.4333L362.343 62.3527ZM369.894 64.5961L375.349 51.9252L378.228 51.8883L384.023 64.4151L380.964 64.4543L376.213 53.3902L377.365 53.3755L372.882 64.5578L369.894 64.5961ZM372.668 61.8603L373.413 59.6366L379.893 59.5536L380.713 61.7573L372.668 61.8603ZM385.33 64.3983L385.169 51.7993L388.085 51.762L388.216 61.9851L394.533 61.9042L394.564 64.28L385.33 64.3983ZM403.9 64.1604L403.769 53.9372L399.737 53.9889L399.707 51.6131L410.686 51.4724L410.716 53.8482L406.685 53.8999L406.816 64.123L403.9 64.1604ZM412.007 64.0565L411.883 54.3733L414.565 54.3389L414.6 57.0747L414.212 56.2876C414.491 55.6 414.946 55.0781 415.578 54.722C416.209 54.3539 416.981 54.164 417.893 54.1523L417.926 56.7441C417.806 56.7336 417.698 56.729 417.602 56.7302C417.506 56.7194 417.404 56.7148 417.296 56.7161C416.528 56.726 415.907 56.956 415.432 57.4061C414.97 57.844 414.745 58.525 414.756 59.4489L414.815 64.0205L412.007 64.0565ZM424.227 64.0439C423.195 64.0572 422.275 63.8529 421.465 63.4313C420.668 63.0095 420.03 62.4296 419.553 61.6916C419.087 60.9415 418.848 60.0865 418.836 59.1266C418.823 58.1547 419.04 57.2938 419.487 56.5441C419.945 55.7821 420.568 55.1861 421.354 54.756C422.153 54.3137 423.068 54.086 424.1 54.0728C425.12 54.0597 426.034 54.264 426.844 54.6856C427.653 55.0953 428.29 55.6692 428.756 56.4073C429.221 57.1454 429.46 58.0064 429.473 58.9903C429.485 59.9502 429.268 60.8111 428.822 61.5729C428.376 62.3226 427.753 62.9187 426.955 63.3609C426.156 63.8032 425.247 64.0309 424.227 64.0439ZM424.198 61.7401C424.666 61.7341 425.084 61.6208 425.454 61.4C425.823 61.1793 426.113 60.8695 426.324 60.4708C426.535 60.06 426.636 59.5787 426.629 59.0267C426.622 58.4628 426.508 57.9842 426.287 57.591C426.066 57.1978 425.768 56.8956 425.393 56.6844C425.018 56.4732 424.597 56.3706 424.129 56.3766C423.661 56.3826 423.243 56.4959 422.873 56.7167C422.504 56.9374 422.208 57.2472 421.985 57.6461C421.774 58.0449 421.672 58.5262 421.68 59.0902C421.687 59.6421 421.801 60.1207 422.022 60.5259C422.255 60.9189 422.559 61.2211 422.934 61.4323C423.309 61.6435 423.73 61.7461 424.198 61.7401ZM436.021 63.8928C434.989 63.906 434.069 63.7018 433.259 63.2802C432.462 62.8583 431.824 62.2785 431.347 61.5405C430.881 60.7904 430.642 59.9354 430.63 58.9755C430.617 58.0036 430.834 57.1427 431.281 56.3929C431.739 55.631 432.362 55.035 433.148 54.6049C433.946 54.1626 434.862 53.9349 435.894 53.9216C436.913 53.9086 437.828 54.1129 438.638 54.5345C439.447 54.9442 440.084 55.5181 440.55 56.2562C441.015 56.9943 441.254 57.8553 441.267 58.8392C441.279 59.7991 441.062 60.66 440.616 61.4217C440.17 62.1715 439.547 62.7675 438.749 63.2098C437.95 63.6521 437.041 63.8797 436.021 63.8928ZM435.992 61.589C436.46 61.583 436.878 61.4696 437.248 61.2489C437.617 61.0281 437.907 60.7184 438.118 60.3197C438.328 59.9089 438.43 59.4276 438.423 58.8756C438.416 58.3117 438.302 57.8331 438.081 57.4399C437.86 57.0467 437.562 56.7445 437.187 56.5333C436.812 56.3221 436.391 56.2194 435.923 56.2254C435.455 56.2314 435.037 56.3448 434.667 56.5656C434.298 56.7863 434.002 57.0961 433.779 57.495C433.568 57.8938 433.466 58.3751 433.474 58.939C433.481 59.491 433.595 59.9696 433.816 60.3748C434.049 60.7678 434.353 61.07 434.728 61.2812C435.102 61.4924 435.524 61.595 435.992 61.589ZM448.931 63.7274C448.115 63.7379 447.399 63.567 446.782 63.2149C446.166 62.8628 445.679 62.323 445.322 61.5955C444.976 60.8558 444.796 59.9221 444.782 58.7942C444.767 57.6543 444.917 56.7163 445.232 55.9802C445.546 55.2441 446.007 54.6921 446.615 54.3243C447.222 53.9565 447.951 53.7671 448.803 53.7562C449.715 53.7445 450.534 53.9441 451.259 54.3548C451.996 54.7534 452.58 55.322 453.009 56.0605C453.451 56.7989 453.678 57.6721 453.691 58.68C453.704 59.6999 453.499 60.5846 453.077 61.3341C452.666 62.0834 452.098 62.6667 451.371 63.0841C450.656 63.5013 449.843 63.7157 448.931 63.7274ZM443.251 67.1485L443.082 53.9735L445.764 53.9392L445.789 55.919L445.772 58.7995L445.988 61.6589L446.058 67.1125L443.251 67.1485ZM448.416 61.4298C448.884 61.4238 449.296 61.3105 449.653 61.0899C450.023 60.8692 450.313 60.5594 450.524 60.1607C450.746 59.7498 450.854 59.2684 450.847 58.7164C450.84 58.1525 450.72 57.674 450.487 57.2809C450.266 56.8877 449.968 56.5855 449.593 56.3743C449.23 56.1629 448.815 56.0603 448.347 56.0663C447.879 56.0723 447.46 56.1856 447.091 56.4064C446.722 56.6271 446.432 56.9369 446.221 57.3356C446.01 57.7343 445.908 58.2157 445.916 58.7796C445.923 59.3316 446.037 59.8102 446.258 60.2154C446.479 60.6086 446.777 60.9108 447.152 61.122C447.526 61.3332 447.948 61.4358 448.416 61.4298ZM458.892 63.5998C458.064 63.6104 457.265 63.5246 456.495 63.3425C455.736 63.1482 455.133 62.9039 454.685 62.6096L455.595 60.5818C456.043 60.8521 456.568 61.0733 457.17 61.2456C457.784 61.4058 458.385 61.4821 458.973 61.4746C459.621 61.4663 460.076 61.3824 460.338 61.2231C460.612 61.0635 460.747 60.8458 460.743 60.5698C460.74 60.3418 460.63 60.1752 460.413 60.07C460.207 59.9526 459.93 59.8662 459.582 59.8106C459.233 59.7551 458.848 59.7 458.427 59.6454C458.019 59.5906 457.604 59.5179 457.182 59.4273C456.761 59.3247 456.375 59.1737 456.025 58.9741C455.674 58.7746 455.388 58.5022 455.168 58.157C454.96 57.8117 454.852 57.363 454.845 56.8111C454.837 56.1991 455.004 55.6569 455.346 55.1845C455.7 54.7119 456.211 54.3394 456.88 54.0668C457.548 53.7822 458.35 53.6339 459.286 53.6219C459.946 53.6134 460.619 53.6768 461.305 53.8121C461.991 53.9473 462.563 54.15 463.023 54.4201L462.112 56.4299C461.641 56.1599 461.165 55.98 460.683 55.8902C460.214 55.7882 459.757 55.74 459.313 55.7457C458.69 55.7537 458.235 55.8436 457.949 56.0152C457.663 56.1869 457.522 56.4047 457.525 56.6687C457.528 56.9087 457.633 57.0874 457.838 57.2047C458.056 57.322 458.339 57.4143 458.688 57.4819C459.037 57.5494 459.415 57.6106 459.824 57.6653C460.245 57.708 460.666 57.7806 461.087 57.8832C461.508 57.9858 461.888 58.1369 462.227 58.3366C462.577 58.5241 462.863 58.7905 463.083 59.1357C463.304 59.4689 463.417 59.9115 463.424 60.4634C463.432 61.0634 463.259 61.5997 462.905 62.0722C462.551 62.5328 462.033 62.8995 461.353 63.1722C460.684 63.4448 459.864 63.5873 458.892 63.5998ZM267.926 88.0484C267.014 88.0601 266.189 87.8667 265.452 87.4681C264.715 87.0575 264.125 86.483 263.684 85.7446C263.254 85.006 263.033 84.1328 263.02 83.1249C263.007 82.105 263.206 81.2204 263.616 80.471C264.039 79.7216 264.613 79.1382 265.34 78.7208C266.067 78.3035 266.886 78.089 267.798 78.0773C268.614 78.0668 269.33 78.2377 269.947 78.5898C270.563 78.9419 271.044 79.4818 271.389 80.2094C271.735 80.9371 271.915 81.8708 271.929 83.0107C271.944 84.1386 271.794 85.0766 271.479 85.8247C271.165 86.5608 270.704 87.1128 270.096 87.4806C269.501 87.8482 268.778 88.0375 267.926 88.0484ZM268.382 85.7384C268.838 85.7326 269.251 85.6193 269.62 85.3985C269.989 85.1778 270.279 84.868 270.49 84.4693C270.713 84.0584 270.821 83.577 270.813 83.025C270.806 82.4611 270.686 81.9826 270.453 81.5895C270.232 81.1963 269.934 80.8941 269.559 80.6829C269.185 80.4717 268.769 80.369 268.313 80.3749C267.845 80.3808 267.427 80.4942 267.058 80.715C266.688 80.9357 266.392 81.2455 266.169 81.6444C265.958 82.0432 265.857 82.5245 265.864 83.0885C265.871 83.6404 265.985 84.119 266.206 84.5242C266.439 84.9172 266.743 85.2194 267.118 85.4306C267.493 85.6418 267.914 85.7444 268.382 85.7384ZM270.947 87.8657L270.922 85.8859L270.939 83.0054L270.723 80.146L270.65 74.5124L273.458 74.4765L273.629 87.8314L270.947 87.8657ZM282.167 87.722L282.143 85.8321L281.958 85.4204L281.915 82.0367C281.907 81.4368 281.715 80.9712 281.339 80.64C280.974 80.3086 280.414 80.1478 279.658 80.1575C279.142 80.1641 278.634 80.2546 278.132 80.4291C277.642 80.5914 277.225 80.8127 276.88 81.0932L275.847 79.1442C276.37 78.7655 277.002 78.4694 277.744 78.2559C278.485 78.0423 279.24 77.9307 280.008 77.9208C281.484 77.9019 282.634 78.2352 283.459 78.9207C284.284 79.6062 284.706 80.6869 284.724 82.1627L284.795 87.6883L282.167 87.722ZM279.218 87.9038C278.462 87.9135 277.812 87.7958 277.269 87.5507C276.726 87.2936 276.307 86.945 276.013 86.5047C275.72 86.0644 275.569 85.5683 275.562 85.0164C275.555 84.4404 275.686 83.9347 275.957 83.4992C276.239 83.0635 276.685 82.7218 277.294 82.474C277.903 82.2141 278.699 82.0779 279.683 82.0653L282.257 82.0323L282.278 83.6702L280.01 83.6993C279.35 83.7077 278.895 83.8216 278.646 84.0408C278.409 84.2598 278.292 84.5313 278.296 84.8553C278.301 85.2153 278.443 85.5015 278.721 85.7139C279.012 85.9142 279.403 86.0112 279.895 86.0049C280.363 85.9989 280.782 85.8856 281.151 85.6648C281.52 85.4321 281.786 85.0986 281.948 84.6645L282.397 85.9549C282.201 86.5814 281.835 87.0602 281.299 87.3911C280.763 87.7219 280.069 87.8928 279.218 87.9038ZM293.096 77.7531C293.864 77.7433 294.55 77.8905 295.154 78.1948C295.77 78.4869 296.256 78.9487 296.612 79.5802C296.968 80.1997 297.152 81.0014 297.165 81.9853L297.236 87.5289L294.428 87.5649L294.362 82.4533C294.352 81.6733 294.171 81.0996 293.818 80.7321C293.478 80.3644 292.995 80.1846 292.371 80.1926C291.927 80.1983 291.527 80.2994 291.169 80.496C290.823 80.6805 290.551 80.966 290.352 81.3526C290.165 81.739 290.075 82.2322 290.083 82.8321L290.144 87.6197L287.336 87.6557L287.212 77.9725L289.894 77.9382L289.928 80.6199L289.414 79.8165C289.754 79.1641 290.245 78.6597 290.889 78.3034C291.532 77.9472 292.268 77.7637 293.096 77.7531ZM309.559 87.515C308.515 87.5284 307.583 87.3303 306.762 86.9208C305.94 86.4993 305.291 85.9136 304.813 85.1636C304.347 84.4135 304.108 83.5585 304.096 82.5986C304.084 81.6267 304.301 80.7658 304.747 80.016C305.205 79.2541 305.84 78.6579 306.65 78.2275C307.461 77.7851 308.388 77.5572 309.432 77.5438C310.452 77.5307 311.342 77.7353 312.104 78.1576C312.865 78.5679 313.431 79.1667 313.801 79.954L311.638 81.1518C311.38 80.6991 311.058 80.3672 310.671 80.1561C310.296 79.9449 309.887 79.8422 309.443 79.8479C308.963 79.854 308.533 79.9675 308.151 80.1884C307.77 80.4093 307.468 80.7192 307.245 81.1181C307.034 81.5168 306.933 81.9982 306.94 82.5621C306.947 83.1261 307.061 83.6047 307.282 83.9979C307.515 84.3909 307.825 84.693 308.212 84.904C308.599 85.1151 309.032 85.2176 309.512 85.2114C309.956 85.2057 310.363 85.0985 310.732 84.8898C311.113 84.6689 311.427 84.3228 311.673 83.8516L313.866 85.0116C313.516 85.7962 312.966 86.4093 312.215 86.8509C311.465 87.2806 310.579 87.5019 309.559 87.515ZM315.459 87.2954L315.335 77.6122L318.143 77.5762L318.267 87.2594L315.459 87.2954ZM316.722 76.2443C316.206 76.2509 315.784 76.1063 315.456 75.8105C315.128 75.5147 314.961 75.1448 314.956 74.7008C314.95 74.2568 315.107 73.8828 315.427 73.5787C315.747 73.2745 316.166 73.1192 316.681 73.1126C317.197 73.1059 317.619 73.2446 317.947 73.5284C318.274 73.8002 318.441 74.1581 318.447 74.6021C318.453 75.07 318.296 75.4621 317.976 75.7782C317.668 76.0822 317.25 76.2375 316.722 76.2443ZM326.598 87.2967C325.782 87.3071 325.066 87.1363 324.449 86.7842C323.833 86.432 323.346 85.8922 322.988 85.1647C322.643 84.4251 322.463 83.4913 322.449 82.3634C322.434 81.2235 322.584 80.2855 322.899 79.5494C323.213 78.8133 323.674 78.2614 324.281 77.8936C324.889 77.5258 325.618 77.3364 326.47 77.3255C327.382 77.3138 328.201 77.5133 328.926 77.9241C329.663 78.3227 330.247 78.8912 330.676 79.6298C331.118 80.3682 331.345 81.2414 331.358 82.2493C331.371 83.2692 331.166 84.1539 330.744 84.9034C330.333 85.6527 329.765 86.236 329.038 86.6534C328.323 87.0705 327.51 87.285 326.598 87.2967ZM320.917 90.7177L320.749 77.5428L323.43 77.5085L323.456 79.4883L323.439 82.3687L323.655 85.2282L323.725 90.6818L320.917 90.7177ZM326.083 84.9991C326.551 84.9931 326.963 84.8798 327.32 84.6592C327.69 84.4385 327.98 84.1287 328.191 83.73C328.413 83.3191 328.521 82.8377 328.514 82.2857C328.507 81.7218 328.387 81.2433 328.154 80.8502C327.933 80.457 327.635 80.1548 327.26 79.9436C326.897 79.7322 326.482 79.6295 326.014 79.6355C325.546 79.6415 325.127 79.7549 324.758 79.9756C324.389 80.1964 324.099 80.5061 323.888 80.9049C323.677 81.3036 323.575 81.7849 323.582 82.3489C323.59 82.9009 323.704 83.3794 323.925 83.7846C324.146 84.1778 324.444 84.48 324.819 84.6913C325.193 84.9025 325.615 85.0051 326.083 84.9991ZM337.261 87.16C336.121 87.1747 335.229 86.8981 334.586 86.3302C333.943 85.7504 333.614 84.8846 333.599 83.7327L333.49 75.2374L336.298 75.2014L336.406 83.6607C336.411 84.0687 336.523 84.3853 336.742 84.6105C336.961 84.8237 337.256 84.9279 337.628 84.9232C338.072 84.9175 338.449 84.7926 338.758 84.5487L339.539 86.5188C339.254 86.7265 338.908 86.8869 338.501 87.0001C338.106 87.1012 337.693 87.1545 337.261 87.16ZM332.054 79.7742L332.026 77.6143L338.74 77.5283L338.767 79.6881L332.054 79.7742ZM347.061 86.8905L347.036 85.0006L346.851 84.589L346.808 81.2052C346.8 80.6053 346.608 80.1397 346.232 79.8085C345.867 79.4771 345.307 79.3163 344.551 79.326C344.035 79.3326 343.527 79.4231 343.025 79.5976C342.535 79.7599 342.118 79.9812 341.773 80.2617L340.74 78.3127C341.263 77.934 341.896 77.6379 342.637 77.4244C343.378 77.2109 344.133 77.0992 344.901 77.0893C346.377 77.0704 347.527 77.4037 348.352 78.0892C349.177 78.7747 349.599 79.8554 349.618 81.3313L349.688 86.8568L347.061 86.8905ZM344.111 87.0723C343.355 87.082 342.705 86.9643 342.162 86.7192C341.619 86.4622 341.2 86.1135 340.906 85.6732C340.613 85.2329 340.462 84.7368 340.455 84.1849C340.448 83.6089 340.58 83.1032 340.85 82.6677C341.132 82.232 341.578 81.8903 342.187 81.6425C342.796 81.3827 343.592 81.2464 344.576 81.2338L347.15 81.2009L347.171 82.8387L344.903 82.8678C344.243 82.8762 343.788 82.9901 343.539 83.2093C343.302 83.4283 343.185 83.6999 343.19 84.0238C343.194 84.3838 343.336 84.67 343.615 84.8825C343.905 85.0828 344.296 85.1797 344.788 85.1734C345.256 85.1674 345.675 85.0541 346.044 84.8333C346.413 84.6006 346.679 84.2671 346.841 83.833L347.29 85.1234C347.094 85.75 346.728 86.2287 346.192 86.5596C345.656 86.8905 344.963 87.0614 344.111 87.0723ZM354.526 84.8147L354.554 81.394L359.017 77.0525L362.365 77.0096L358.083 81.4748L356.641 82.6814L354.526 84.8147ZM352.23 86.8242L352.058 73.4693L354.866 73.4334L355.037 86.7883L352.23 86.8242ZM359.447 86.7318L356.119 82.7061L357.855 80.5056L362.849 86.6882L359.447 86.7318ZM369.875 86.5981L369.851 84.7083L369.666 84.2966L369.622 80.9129C369.615 80.313 369.423 79.8474 369.046 79.5162C368.682 79.1848 368.122 79.024 367.366 79.0337C366.85 79.0403 366.341 79.1308 365.839 79.3053C365.349 79.4675 364.932 79.6889 364.588 79.9693L363.555 78.0204C364.078 77.6417 364.71 77.3456 365.451 77.132C366.193 76.9185 366.947 76.8069 367.715 76.797C369.191 76.7781 370.342 77.1114 371.166 77.7969C371.991 78.4824 372.413 79.5631 372.432 81.0389L372.503 86.5645L369.875 86.5981ZM366.925 86.78C366.169 86.7896 365.52 86.672 364.977 86.4269C364.433 86.1698 364.015 85.8212 363.721 85.3809C363.427 84.9406 363.277 84.4445 363.27 83.8926C363.263 83.3166 363.394 82.8109 363.664 82.3754C363.947 81.9397 364.393 81.598 365.001 81.3502C365.61 81.0903 366.407 80.9541 367.39 80.9415L369.964 80.9085L369.985 82.5464L367.717 82.5755C367.057 82.5839 366.603 82.6978 366.354 82.917C366.116 83.136 366 83.4075 366.004 83.7315C366.009 84.0915 366.15 84.3777 366.429 84.5901C366.72 84.7904 367.111 84.8874 367.603 84.8811C368.071 84.8751 368.489 84.7617 368.859 84.541C369.228 84.3083 369.493 83.9748 369.656 83.5407L370.104 84.8311C369.908 85.4576 369.543 85.9364 369.007 86.2672C368.471 86.5981 367.777 86.769 366.925 86.78ZM380.804 76.6293C381.572 76.6195 382.258 76.7667 382.861 77.071C383.477 77.3631 383.963 77.8249 384.319 78.4564C384.675 79.0759 384.86 79.8776 384.872 80.8615L384.943 86.4051L382.135 86.4411L382.07 81.3295C382.06 80.5495 381.879 79.9758 381.526 79.6083C381.185 79.2406 380.703 79.0608 380.079 79.0688C379.635 79.0745 379.234 79.1756 378.877 79.3722C378.531 79.5567 378.259 79.8422 378.06 80.2288C377.872 80.6152 377.783 81.1084 377.79 81.7083L377.852 86.4959L375.044 86.5319L374.92 76.8487L377.602 76.8143L377.636 79.4961L377.122 78.6927C377.461 78.0402 377.953 77.5359 378.597 77.1796C379.24 76.8234 379.976 76.6399 380.804 76.6293ZM269.773 110.027C268.957 110.037 268.241 109.866 267.625 109.514C267.008 109.162 266.521 108.622 266.164 107.895C265.818 107.155 265.638 106.221 265.624 105.093C265.609 103.953 265.759 103.015 266.074 102.279C266.388 101.543 266.849 100.991 267.457 100.623C268.064 100.256 268.794 100.066 269.646 100.055C270.557 100.044 271.376 100.243 272.101 100.654C272.839 101.053 273.422 101.621 273.851 102.36C274.293 103.098 274.52 103.971 274.533 104.979C274.546 105.999 274.341 106.884 273.919 107.633C273.509 108.383 272.94 108.966 272.213 109.383C271.499 109.8 270.685 110.015 269.773 110.027ZM264.093 113.448L263.924 100.273L266.606 100.238L266.631 102.218L266.614 105.099L266.831 107.958L266.9 113.412L264.093 113.448ZM269.258 107.729C269.726 107.723 270.138 107.61 270.496 107.389C270.865 107.168 271.155 106.859 271.366 106.46C271.589 106.049 271.696 105.568 271.689 105.016C271.682 104.452 271.562 103.973 271.329 103.58C271.108 103.187 270.81 102.885 270.435 102.673C270.072 102.462 269.657 102.359 269.189 102.365C268.721 102.371 268.303 102.485 267.933 102.706C267.564 102.926 267.274 103.236 267.063 103.635C266.852 104.034 266.75 104.515 266.758 105.079C266.765 105.631 266.879 106.109 267.1 106.515C267.321 106.908 267.619 107.21 267.994 107.421C268.369 107.632 268.79 107.735 269.258 107.729ZM281.282 109.879C280.178 109.893 279.204 109.69 278.358 109.269C277.525 108.847 276.875 108.267 276.41 107.529C275.944 106.779 275.705 105.924 275.693 104.964C275.68 103.992 275.891 103.132 276.326 102.382C276.772 101.62 277.382 101.024 278.157 100.594C278.931 100.152 279.81 99.9252 280.794 99.9125C281.742 99.9004 282.597 100.093 283.358 100.492C284.131 100.878 284.744 101.446 285.198 102.196C285.651 102.935 285.885 103.826 285.898 104.87C285.9 104.978 285.895 105.104 285.885 105.248C285.875 105.38 285.864 105.506 285.854 105.626L277.989 105.727L277.968 104.089L284.357 104.007L283.283 104.507C283.277 104.003 283.169 103.566 282.961 103.197C282.752 102.828 282.466 102.543 282.104 102.344C281.741 102.133 281.32 102.03 280.84 102.036C280.36 102.042 279.935 102.156 279.566 102.376C279.208 102.585 278.93 102.883 278.731 103.269C278.532 103.644 278.436 104.089 278.442 104.605L278.448 105.037C278.455 105.565 278.575 106.031 278.808 106.437C279.053 106.829 279.387 107.131 279.809 107.342C280.244 107.54 280.749 107.636 281.325 107.628C281.841 107.622 282.29 107.538 282.672 107.377C283.066 107.216 283.423 106.977 283.743 106.661L285.258 108.262C284.82 108.772 284.267 109.169 283.599 109.453C282.93 109.726 282.158 109.868 281.282 109.879ZM287.829 109.651L287.705 99.968L290.387 99.9336L290.422 102.669L290.034 101.882C290.313 101.195 290.768 100.673 291.4 100.317C292.031 99.9486 292.803 99.7587 293.715 99.747L293.748 102.339C293.628 102.328 293.52 102.324 293.424 102.325C293.328 102.314 293.226 102.309 293.118 102.311C292.35 102.321 291.729 102.551 291.254 103.001C290.792 103.439 290.567 104.12 290.578 105.044L290.637 109.615L287.829 109.651ZM294.907 113.197C294.475 113.202 294.061 113.16 293.663 113.069C293.266 112.99 292.929 112.862 292.65 112.686L293.38 110.642C293.707 110.866 294.105 110.975 294.573 110.969C294.921 110.964 295.195 110.841 295.396 110.598C295.609 110.368 295.713 110.018 295.707 109.55L295.582 99.8671L298.39 99.8311L298.514 109.496C298.528 110.612 298.222 111.504 297.594 112.172C296.967 112.84 296.071 113.182 294.907 113.197ZM296.969 98.4992C296.453 98.5058 296.031 98.3612 295.703 98.0654C295.376 97.7696 295.209 97.3997 295.203 96.9557C295.197 96.5117 295.355 96.1377 295.675 95.8336C295.995 95.5294 296.413 95.3741 296.929 95.3675C297.445 95.3608 297.867 95.4995 298.194 95.7833C298.522 96.0551 298.688 96.413 298.694 96.857C298.7 97.3249 298.543 97.717 298.223 98.0331C297.915 98.3371 297.497 98.4924 296.969 98.4992ZM307.039 109.405L307.015 107.515L306.83 107.104L306.786 103.72C306.779 103.12 306.587 102.654 306.21 102.323C305.846 101.992 305.286 101.831 304.53 101.841C304.014 101.847 303.505 101.938 303.003 102.112C302.513 102.274 302.096 102.496 301.752 102.776L300.719 100.827C301.242 100.449 301.874 100.152 302.615 99.939C303.357 99.7255 304.111 99.6138 304.879 99.6039C306.355 99.585 307.506 99.9183 308.33 100.604C309.155 101.289 309.577 102.37 309.596 103.846L309.667 109.371L307.039 109.405ZM304.089 109.587C303.333 109.597 302.684 109.479 302.141 109.234C301.597 108.977 301.179 108.628 300.885 108.188C300.591 107.748 300.441 107.251 300.434 106.699C300.427 106.124 300.558 105.618 300.828 105.182C301.111 104.747 301.557 104.405 302.165 104.157C302.774 103.897 303.571 103.761 304.554 103.748L307.128 103.715L307.149 105.353L304.881 105.382C304.221 105.391 303.767 105.505 303.518 105.724C303.28 105.943 303.164 106.214 303.168 106.538C303.173 106.898 303.314 107.185 303.593 107.397C303.884 107.597 304.275 107.694 304.767 107.688C305.235 107.682 305.653 107.569 306.023 107.348C306.392 107.115 306.657 106.782 306.82 106.348L307.268 107.638C307.072 108.265 306.707 108.743 306.171 109.074C305.635 109.405 304.941 109.576 304.089 109.587ZM312.208 109.339L312.037 95.9839L314.845 95.948L315.016 109.303L312.208 109.339ZM323.561 109.193L323.537 107.304L323.352 106.892L323.308 103.508C323.301 102.908 323.109 102.443 322.732 102.111C322.368 101.78 321.808 101.619 321.052 101.629C320.536 101.636 320.027 101.726 319.525 101.9C319.035 102.063 318.618 102.284 318.274 102.565L317.241 100.616C317.764 100.237 318.396 99.9408 319.138 99.7273C319.879 99.5138 320.634 99.4021 321.401 99.3922C322.877 99.3733 324.028 99.7066 324.853 100.392C325.677 101.078 326.099 102.158 326.118 103.634L326.189 109.16L323.561 109.193ZM320.611 109.375C319.855 109.385 319.206 109.267 318.663 109.022C318.119 108.765 317.701 108.416 317.407 107.976C317.113 107.536 316.963 107.04 316.956 106.488C316.949 105.912 317.08 105.406 317.351 104.971C317.633 104.535 318.079 104.193 318.688 103.945C319.296 103.686 320.093 103.549 321.077 103.537L323.65 103.504L323.671 105.142L321.403 105.171C320.744 105.179 320.289 105.293 320.04 105.512C319.803 105.731 319.686 106.003 319.69 106.327C319.695 106.687 319.836 106.973 320.115 107.185C320.406 107.386 320.797 107.483 321.289 107.476C321.757 107.47 322.176 107.357 322.545 107.136C322.914 106.903 323.18 106.57 323.342 106.136L323.791 107.426C323.595 108.053 323.229 108.532 322.693 108.862C322.157 109.193 321.463 109.364 320.611 109.375ZM334.49 99.2245C335.258 99.2147 335.944 99.3619 336.548 99.6662C337.163 99.9583 337.649 100.42 338.005 101.052C338.361 101.671 338.546 102.473 338.558 103.457L338.629 109L335.822 109.036L335.756 103.925C335.746 103.145 335.565 102.571 335.212 102.204C334.871 101.836 334.389 101.656 333.765 101.664C333.321 101.67 332.92 101.771 332.563 101.967C332.217 102.152 331.945 102.437 331.746 102.824C331.559 103.21 331.469 103.704 331.477 104.304L331.538 109.091L328.73 109.127L328.606 99.4439L331.288 99.4096L331.322 102.091L330.808 101.288C331.148 100.635 331.639 100.131 332.283 99.7749C332.926 99.4186 333.662 99.2352 334.49 99.2245ZM347.114 108.892L347.09 107.002L346.904 106.59L346.861 103.206C346.853 102.606 346.661 102.141 346.285 101.81C345.921 101.478 345.361 101.317 344.605 101.327C344.089 101.334 343.58 101.424 343.078 101.599C342.588 101.761 342.171 101.982 341.827 102.263L340.794 100.314C341.317 99.9351 341.949 99.639 342.69 99.4255C343.432 99.212 344.186 99.1003 344.954 99.0905C346.43 99.0716 347.58 99.4048 348.405 100.09C349.23 100.776 349.652 101.856 349.671 103.332L349.742 108.858L347.114 108.892ZM344.164 109.073C343.408 109.083 342.759 108.965 342.215 108.72C341.672 108.463 341.254 108.115 340.96 107.674C340.666 107.234 340.516 106.738 340.509 106.186C340.501 105.61 340.633 105.104 340.903 104.669C341.186 104.233 341.631 103.891 342.24 103.644C342.849 103.384 343.645 103.248 344.629 103.235L347.203 103.202L347.224 104.84L344.956 104.869C344.296 104.877 343.842 104.991 343.592 105.21C343.355 105.429 343.239 105.701 343.243 106.025C343.248 106.385 343.389 106.671 343.668 106.884C343.959 107.084 344.35 107.181 344.842 107.175C345.31 107.169 345.728 107.055 346.098 106.834C346.467 106.602 346.732 106.268 346.895 105.834L347.343 107.125C347.147 107.751 346.781 108.23 346.246 108.561C345.71 108.892 345.016 109.062 344.164 109.073ZM358.042 98.9228C358.81 98.9129 359.496 99.0601 360.1 99.3644C360.716 99.6566 361.202 100.118 361.558 100.75C361.914 101.369 362.098 102.171 362.111 103.155L362.182 108.699L359.374 108.735L359.309 103.623C359.299 102.843 359.117 102.269 358.765 101.902C358.424 101.534 357.942 101.354 357.318 101.362C356.874 101.368 356.473 101.469 356.115 101.666C355.77 101.85 355.497 102.136 355.298 102.522C355.111 102.909 355.022 103.402 355.029 104.002L355.091 108.789L352.283 108.825L352.159 99.1422L354.841 99.1078L354.875 101.79L354.361 100.986C354.7 100.334 355.192 99.8294 355.835 99.4731C356.479 99.1168 357.215 98.9334 358.042 98.9228ZM377.002 98.6798C377.77 98.67 378.45 98.8173 379.042 99.1217C379.646 99.414 380.12 99.876 380.464 100.508C380.82 101.127 381.004 101.929 381.017 102.913L381.088 108.456L378.28 108.492L378.215 103.381C378.205 102.601 378.035 102.027 377.706 101.659C377.378 101.291 376.919 101.111 376.331 101.119C375.923 101.124 375.559 101.225 375.237 101.421C374.916 101.605 374.667 101.884 374.492 102.258C374.317 102.633 374.233 103.108 374.24 103.684L374.302 108.543L371.495 108.579L371.429 103.468C371.419 102.688 371.25 102.114 370.921 101.746C370.604 101.378 370.152 101.198 369.564 101.205C369.156 101.211 368.791 101.311 368.47 101.507C368.148 101.692 367.9 101.971 367.724 102.345C367.549 102.719 367.465 103.194 367.473 103.77L367.535 108.63L364.727 108.666L364.603 98.9827L367.285 98.9483L367.319 101.594L366.805 100.827C367.132 100.162 367.6 99.6584 368.208 99.3146C368.827 98.9586 369.533 98.7755 370.325 98.7654C371.213 98.754 371.99 98.9721 372.655 99.4196C373.333 99.8549 373.786 100.533 374.014 101.454L373.02 101.197C373.334 100.437 373.843 99.8304 374.545 99.3774C375.259 98.9242 376.078 98.6917 377.002 98.6798ZM387.692 108.516C386.888 108.526 386.166 108.379 385.526 108.075C384.898 107.771 384.406 107.304 384.05 106.672C383.694 106.029 383.509 105.209 383.497 104.213L383.426 98.7415L386.234 98.7055L386.299 103.763C386.309 104.567 386.485 105.159 386.826 105.539C387.179 105.906 387.667 106.086 388.291 106.078C388.723 106.072 389.106 105.977 389.439 105.793C389.773 105.597 390.033 105.305 390.22 104.919C390.407 104.521 390.497 104.027 390.489 103.439L390.428 98.6518L393.236 98.6158L393.36 108.299L390.696 108.333L390.662 105.669L391.158 106.437C390.842 107.113 390.369 107.629 389.737 107.985C389.118 108.329 388.436 108.506 387.692 108.516ZM404.318 108.303C403.49 108.313 402.691 108.227 401.92 108.045C401.162 107.851 400.559 107.607 400.111 107.312L401.021 105.285C401.468 105.555 401.993 105.776 402.595 105.949C403.21 106.109 403.811 106.185 404.399 106.177C405.046 106.169 405.501 106.085 405.763 105.926C406.037 105.766 406.173 105.549 406.169 105.273C406.166 105.045 406.056 104.878 405.839 104.773C405.633 104.655 405.356 104.569 405.007 104.514C404.659 104.458 404.274 104.403 403.853 104.348C403.444 104.294 403.029 104.221 402.608 104.13C402.187 104.028 401.801 103.877 401.45 103.677C401.1 103.477 400.814 103.205 400.594 102.86C400.385 102.515 400.278 102.066 400.27 101.514C400.263 100.902 400.43 100.36 400.772 99.8874C401.126 99.4148 401.637 99.0422 402.305 98.7696C402.974 98.4851 403.776 98.3368 404.712 98.3248C405.372 98.3163 406.045 98.3797 406.731 98.5149C407.416 98.6502 407.989 98.8528 408.448 99.123L407.538 101.133C407.067 100.863 406.59 100.683 406.109 100.593C405.64 100.491 405.183 100.443 404.739 100.449C404.115 100.457 403.66 100.546 403.375 100.718C403.089 100.89 402.947 101.108 402.951 101.372C402.954 101.612 403.058 101.79 403.264 101.908C403.481 102.025 403.764 102.117 404.113 102.185C404.462 102.252 404.841 102.313 405.25 102.368C405.67 102.411 406.091 102.483 406.513 102.586C406.934 102.689 407.314 102.84 407.653 103.039C408.003 103.227 408.288 103.493 408.509 103.839C408.729 104.172 408.843 104.614 408.85 105.166C408.858 105.766 408.684 106.303 408.331 106.775C407.976 107.236 407.459 107.602 406.778 107.875C406.11 108.148 405.29 108.29 404.318 108.303ZM415.427 108.16C414.323 108.174 413.349 107.971 412.503 107.55C411.67 107.128 411.02 106.549 410.555 105.811C410.089 105.06 409.85 104.205 409.838 103.246C409.825 102.274 410.036 101.413 410.471 100.663C410.917 99.9014 411.528 99.3055 412.302 98.8756C413.077 98.4336 413.956 98.2063 414.94 98.1937C415.888 98.1816 416.742 98.3747 417.503 98.7729C418.276 99.1591 418.89 99.7272 419.343 100.477C419.797 101.216 420.03 102.107 420.044 103.151C420.045 103.259 420.041 103.385 420.03 103.529C420.02 103.661 420.01 103.787 419.999 103.907L412.134 104.008L412.113 102.37L418.502 102.288L417.429 102.788C417.422 102.284 417.315 101.848 417.106 101.478C416.897 101.109 416.611 100.825 416.249 100.625C415.886 100.414 415.465 100.311 414.985 100.317C414.505 100.323 414.08 100.437 413.711 100.658C413.354 100.866 413.076 101.164 412.876 101.55C412.677 101.925 412.581 102.37 412.588 102.886L412.593 103.318C412.6 103.846 412.72 104.313 412.953 104.718C413.198 105.111 413.532 105.412 413.955 105.623C414.389 105.821 414.895 105.917 415.471 105.91C415.986 105.903 416.435 105.819 416.817 105.658C417.211 105.497 417.568 105.259 417.888 104.943L419.403 106.543C418.965 107.053 418.412 107.45 417.744 107.735C417.076 108.007 416.303 108.149 415.427 108.16ZM427.734 98.0298C428.502 98.02 429.188 98.1672 429.792 98.4715C430.408 98.7636 430.894 99.2254 431.25 99.8569C431.606 100.476 431.79 101.278 431.803 102.262L431.874 107.806L429.066 107.842L429 102.73C428.99 101.95 428.809 101.376 428.456 101.009C428.116 100.641 427.633 100.461 427.009 100.469C426.565 100.475 426.165 100.576 425.807 100.773C425.461 100.957 425.189 101.243 424.99 101.629C424.803 102.016 424.713 102.509 424.721 103.109L424.782 107.896L421.974 107.932L421.85 98.2492L424.532 98.2148L424.567 100.897L424.052 100.093C424.392 99.4407 424.883 98.9364 425.527 98.5801C426.17 98.2238 426.906 98.0404 427.734 98.0298ZM438.649 107.863C437.737 107.874 436.912 107.681 436.175 107.282C435.438 106.872 434.848 106.297 434.407 105.559C433.977 104.82 433.756 103.947 433.743 102.939C433.73 101.919 433.929 101.035 434.339 100.285C434.762 99.5359 435.336 98.9525 436.063 98.5351C436.79 98.1178 437.609 97.9033 438.521 97.8916C439.337 97.8811 440.053 98.052 440.67 98.4041C441.286 98.7562 441.767 99.2961 442.112 100.024C442.458 100.751 442.638 101.685 442.652 102.825C442.667 103.953 442.517 104.891 442.202 105.639C441.888 106.375 441.427 106.927 440.819 107.295C440.224 107.663 439.5 107.852 438.649 107.863ZM439.105 105.553C439.561 105.547 439.974 105.434 440.343 105.213C440.712 104.992 441.002 104.682 441.213 104.284C441.436 103.873 441.543 103.391 441.536 102.839C441.529 102.275 441.409 101.797 441.176 101.404C440.955 101.011 440.657 100.708 440.282 100.497C439.908 100.286 439.492 100.183 439.036 100.189C438.568 100.195 438.15 100.309 437.781 100.529C437.411 100.75 437.115 101.06 436.892 101.459C436.681 101.857 436.58 102.339 436.587 102.903C436.594 103.455 436.708 103.933 436.929 104.339C437.162 104.732 437.466 105.034 437.841 105.245C438.216 105.456 438.637 105.559 439.105 105.553ZM441.67 107.68L441.645 105.7L441.662 102.82L441.446 99.9603L441.373 94.3267L444.181 94.2908L444.352 107.646L441.67 107.68ZM446.951 107.612L446.827 97.9292L449.635 97.8932L449.759 107.576L446.951 107.612ZM448.213 96.5613C447.697 96.5679 447.276 96.4233 446.948 96.1275C446.62 95.8316 446.453 95.4618 446.448 95.0178C446.442 94.5738 446.599 94.1998 446.919 93.8957C447.239 93.5915 447.657 93.4362 448.173 93.4295C448.689 93.4229 449.111 93.5615 449.439 93.8454C449.766 94.1172 449.933 94.4751 449.939 94.9191C449.945 95.387 449.788 95.7791 449.468 96.0952C449.159 96.3992 448.741 96.5545 448.213 96.5613ZM452.365 107.543L452.24 97.8598L454.922 97.8254L454.957 100.561L454.569 99.7741C454.848 99.0865 455.304 98.5646 455.935 98.2085C456.567 97.8404 457.338 97.6505 458.25 97.6388L458.283 100.231C458.163 100.22 458.055 100.215 457.959 100.217C457.863 100.206 457.761 100.201 457.653 100.203C456.885 100.212 456.264 100.442 455.79 100.893C455.327 101.331 455.102 102.011 455.114 102.935L455.172 107.507L452.365 107.543ZM460.063 107.444L459.939 97.7612L462.747 97.7252L462.871 107.408L460.063 107.444ZM461.326 96.3933C460.81 96.3999 460.388 96.2553 460.06 95.9595C459.732 95.6636 459.565 95.2937 459.56 94.8498C459.554 94.4058 459.711 94.0318 460.031 93.7276C460.351 93.4235 460.77 93.2681 461.285 93.2615C461.801 93.2549 462.223 93.3935 462.551 93.6774C462.878 93.9492 463.045 94.3071 463.051 94.751C463.057 95.219 462.9 95.6111 462.58 95.9272C462.272 96.2311 461.854 96.3865 461.326 96.3933ZM465.619 102.999L464.955 94.7806L468.303 94.7378L467.85 102.97L465.619 102.999ZM466.792 107.502C466.289 107.509 465.872 107.352 465.544 107.032C465.216 106.712 465.049 106.33 465.044 105.886C465.038 105.43 465.195 105.05 465.515 104.746C465.835 104.43 466.247 104.269 466.751 104.262C467.267 104.256 467.683 104.406 467.999 104.714C468.327 105.01 468.493 105.386 468.499 105.842C468.505 106.286 468.348 106.672 468.028 107C467.72 107.328 467.308 107.496 466.792 107.502Z" fill="white"/>
</g>
<defs>
<filter id="filter0_d_1268_4566" x="-4" y="0" width="523" height="474" filterUnits="userSpaceOnUse" color-interpolation-filters="sRGB">
<feFlood flood-opacity="0" result="BackgroundImageFix"/>
<feColorMatrix in="SourceAlpha" type="matrix" values="0 0 0 0 0 0 0 0 0 0 0 0 0 0 0 0 0 0 127 0" result="hardAlpha"/>
<feOffset dx="4" dy="4"/>
<feGaussianBlur stdDeviation="4"/>
<feComposite in2="hardAlpha" operator="out"/>
<feColorMatrix type="matrix" values="0 0 0 0 1 0 0 0 0 0.792157 0 0 0 0 0.101961 0 0 0 0.3 0"/>
<feBlend mode="normal" in2="BackgroundImageFix" result="effect1_dropShadow_1268_4566"/>
<feBlend mode="normal" in="SourceGraphic" in2="effect1_dropShadow_1268_4566" result="shape"/>
</filter>
</defs>
</svg>
