<svg width="345" height="535" viewBox="0 0 345 535" fill="none" xmlns="http://www.w3.org/2000/svg">
<g filter="url(#filter0_d_1268_4572)">
<rect x="4" y="4" width="329" height="519" rx="11.9441" fill="#FFCA1A" shape-rendering="crispEdges"/>
<path d="M95.5922 224.82H102.592V242.46C102.299 242.54 101.846 242.62 101.232 242.7C100.619 242.78 99.9922 242.82 99.3522 242.82C97.9655 242.82 96.9922 242.58 96.4322 242.1C95.8722 241.593 95.5922 240.727 95.5922 239.5V224.82ZM102.592 234.06H95.5922V218.18C95.9122 218.127 96.3789 218.06 96.9922 217.98C97.6322 217.873 98.2455 217.82 98.8322 217.82C100.166 217.82 101.126 218.047 101.712 218.5C102.299 218.953 102.592 219.833 102.592 221.14V234.06ZM107.46 231.94H114.26V242.46C113.966 242.54 113.54 242.62 112.98 242.7C112.446 242.78 111.86 242.82 111.22 242.82C109.913 242.82 108.953 242.593 108.34 242.14C107.753 241.687 107.46 240.847 107.46 239.62V231.94ZM114.26 235.5H107.46V216.42C107.753 216.34 108.166 216.26 108.7 216.18C109.26 216.1 109.86 216.06 110.5 216.06C111.833 216.06 112.793 216.287 113.38 216.74C113.966 217.167 114.26 218.007 114.26 219.26V235.5ZM118.627 234.78V232.14H125.427V234.78C125.427 235.847 125.694 236.62 126.227 237.1C126.787 237.58 127.56 237.82 128.547 237.82C129.16 237.82 129.667 237.767 130.067 237.66C130.467 237.553 130.76 237.447 130.947 237.34V232.14H137.747V238.34C137.747 239.007 137.6 239.593 137.307 240.1C137.04 240.58 136.627 240.993 136.067 241.34C135.134 241.927 134.014 242.367 132.707 242.66C131.427 242.98 130.027 243.14 128.507 243.14C126.587 243.14 124.88 242.86 123.387 242.3C121.894 241.713 120.72 240.807 119.867 239.58C119.04 238.353 118.627 236.753 118.627 234.78ZM137.747 233.86H130.947V223.14C131.24 223.06 131.654 222.98 132.187 222.9C132.747 222.82 133.347 222.78 133.987 222.78C135.32 222.78 136.28 223.007 136.867 223.46C137.454 223.887 137.747 224.727 137.747 225.98V233.86ZM125.427 233.86H118.627V223.14C118.92 223.06 119.334 222.98 119.867 222.9C120.427 222.82 121.027 222.78 121.667 222.78C123 222.78 123.96 223.007 124.547 223.46C125.134 223.887 125.427 224.727 125.427 225.98V233.86ZM158.308 236.7C158.308 238.727 157.535 240.313 155.988 241.46C154.468 242.607 152.241 243.18 149.308 243.18C147.041 243.18 145.175 242.86 143.708 242.22C142.268 241.553 141.548 240.527 141.548 239.14C141.548 238.5 141.681 237.953 141.948 237.5C142.215 237.047 142.535 236.687 142.908 236.42C143.681 236.847 144.561 237.233 145.548 237.58C146.561 237.9 147.721 238.06 149.028 238.06C150.735 238.06 151.588 237.62 151.588 236.74C151.588 236.367 151.428 236.073 151.108 235.86C150.788 235.647 150.255 235.473 149.508 235.34L148.308 235.1C146.015 234.647 144.295 233.927 143.148 232.94C142.001 231.953 141.428 230.567 141.428 228.78C141.428 226.78 142.241 225.22 143.868 224.1C145.495 222.98 147.615 222.42 150.228 222.42C151.535 222.42 152.721 222.553 153.788 222.82C154.881 223.06 155.748 223.46 156.388 224.02C157.028 224.553 157.348 225.247 157.348 226.1C157.348 226.687 157.228 227.207 156.988 227.66C156.775 228.113 156.495 228.487 156.148 228.78C155.855 228.593 155.388 228.407 154.748 228.22C154.135 228.033 153.468 227.873 152.748 227.74C152.028 227.607 151.388 227.54 150.828 227.54C149.948 227.54 149.268 227.647 148.788 227.86C148.308 228.047 148.068 228.353 148.068 228.78C148.068 229.073 148.201 229.313 148.468 229.5C148.735 229.687 149.241 229.86 149.988 230.02L151.228 230.3C153.788 230.887 155.601 231.7 156.668 232.74C157.761 233.753 158.308 235.073 158.308 236.7ZM161.676 231.94H168.396V235.82C168.396 236.487 168.609 236.98 169.036 237.3C169.489 237.593 170.116 237.74 170.916 237.74C171.316 237.74 171.729 237.713 172.156 237.66C172.582 237.58 172.956 237.487 173.276 237.38C173.516 237.647 173.716 237.967 173.876 238.34C174.062 238.713 174.156 239.153 174.156 239.66C174.156 240.647 173.769 241.473 172.996 242.14C172.249 242.78 170.916 243.1 168.996 243.1C166.649 243.1 164.836 242.567 163.556 241.5C162.302 240.433 161.676 238.7 161.676 236.3V231.94ZM166.076 228.7V223.5H173.636C173.796 223.767 173.942 224.127 174.076 224.58C174.236 225.033 174.316 225.527 174.316 226.06C174.316 226.993 174.102 227.673 173.676 228.1C173.276 228.5 172.729 228.7 172.036 228.7H166.076ZM168.396 232.9H161.676V218.54C161.969 218.46 162.382 218.38 162.916 218.3C163.476 218.193 164.062 218.14 164.676 218.14C165.982 218.14 166.929 218.367 167.516 218.82C168.102 219.273 168.396 220.113 168.396 221.34V232.9ZM184.294 228.78V233.34H177.494V227.74C177.494 226.967 177.694 226.3 178.094 225.74C178.521 225.153 179.067 224.647 179.734 224.22C180.667 223.66 181.761 223.233 183.014 222.94C184.267 222.647 185.561 222.5 186.894 222.5C189.801 222.5 191.254 223.527 191.254 225.58C191.254 226.06 191.187 226.513 191.054 226.94C190.921 227.34 190.761 227.687 190.574 227.98C190.307 227.927 189.987 227.887 189.614 227.86C189.241 227.833 188.827 227.82 188.374 227.82C187.707 227.82 187.001 227.9 186.254 228.06C185.507 228.22 184.854 228.46 184.294 228.78ZM177.494 231.94H184.294V242.46C184.001 242.54 183.574 242.62 183.014 242.7C182.481 242.78 181.894 242.82 181.254 242.82C179.947 242.82 178.987 242.593 178.374 242.14C177.787 241.687 177.494 240.847 177.494 239.62V231.94ZM201.673 238.18C202.127 238.18 202.62 238.14 203.153 238.06C203.713 237.953 204.127 237.82 204.393 237.66V234.46L201.513 234.7C200.767 234.753 200.153 234.913 199.673 235.18C199.193 235.447 198.953 235.847 198.953 236.38C198.953 236.913 199.153 237.353 199.553 237.7C199.98 238.02 200.687 238.18 201.673 238.18ZM201.353 222.46C204.26 222.46 206.58 223.06 208.313 224.26C210.073 225.433 210.953 227.273 210.953 229.78V238.74C210.953 239.433 210.753 240.007 210.353 240.46C209.98 240.887 209.527 241.26 208.993 241.58C208.14 242.087 207.1 242.473 205.873 242.74C204.647 243.007 203.247 243.14 201.673 243.14C198.873 243.14 196.62 242.607 194.913 241.54C193.233 240.447 192.393 238.807 192.393 236.62C192.393 234.78 192.94 233.367 194.033 232.38C195.153 231.393 196.847 230.78 199.113 230.54L204.353 229.98V229.7C204.353 228.927 204.007 228.38 203.313 228.06C202.647 227.713 201.673 227.54 200.393 227.54C199.407 227.54 198.42 227.647 197.433 227.86C196.473 228.073 195.607 228.34 194.833 228.66C194.487 228.42 194.193 228.06 193.953 227.58C193.713 227.073 193.593 226.553 193.593 226.02C193.593 224.74 194.273 223.833 195.633 223.3C196.407 223.007 197.313 222.793 198.353 222.66C199.42 222.527 200.42 222.46 201.353 222.46ZM231.511 236.7C231.511 238.727 230.738 240.313 229.191 241.46C227.671 242.607 225.445 243.18 222.511 243.18C220.245 243.18 218.378 242.86 216.911 242.22C215.471 241.553 214.751 240.527 214.751 239.14C214.751 238.5 214.885 237.953 215.151 237.5C215.418 237.047 215.738 236.687 216.111 236.42C216.885 236.847 217.765 237.233 218.751 237.58C219.765 237.9 220.925 238.06 222.231 238.06C223.938 238.06 224.791 237.62 224.791 236.74C224.791 236.367 224.631 236.073 224.311 235.86C223.991 235.647 223.458 235.473 222.711 235.34L221.511 235.1C219.218 234.647 217.498 233.927 216.351 232.94C215.205 231.953 214.631 230.567 214.631 228.78C214.631 226.78 215.445 225.22 217.071 224.1C218.698 222.98 220.818 222.42 223.431 222.42C224.738 222.42 225.925 222.553 226.991 222.82C228.085 223.06 228.951 223.46 229.591 224.02C230.231 224.553 230.551 225.247 230.551 226.1C230.551 226.687 230.431 227.207 230.191 227.66C229.978 228.113 229.698 228.487 229.351 228.78C229.058 228.593 228.591 228.407 227.951 228.22C227.338 228.033 226.671 227.873 225.951 227.74C225.231 227.607 224.591 227.54 224.031 227.54C223.151 227.54 222.471 227.647 221.991 227.86C221.511 228.047 221.271 228.353 221.271 228.78C221.271 229.073 221.405 229.313 221.671 229.5C221.938 229.687 222.445 229.86 223.191 230.02L224.431 230.3C226.991 230.887 228.805 231.7 229.871 232.74C230.965 233.753 231.511 235.073 231.511 236.7ZM234.639 217.66C234.639 216.647 234.985 215.793 235.679 215.1C236.372 214.407 237.265 214.06 238.359 214.06C239.452 214.06 240.345 214.407 241.039 215.1C241.732 215.793 242.079 216.647 242.079 217.66C242.079 218.647 241.732 219.5 241.039 220.22C240.345 220.913 239.452 221.26 238.359 221.26C237.265 221.26 236.372 220.913 235.679 220.22C234.985 219.5 234.639 218.647 234.639 217.66ZM234.959 231.94H241.759V242.46C241.465 242.54 241.039 242.62 240.479 242.7C239.945 242.78 239.359 242.82 238.719 242.82C237.412 242.82 236.452 242.593 235.839 242.14C235.252 241.687 234.959 240.847 234.959 239.62V231.94ZM241.759 235.5H234.959V223.34C235.252 223.26 235.665 223.18 236.199 223.1C236.759 223.02 237.359 222.98 237.999 222.98C239.332 222.98 240.292 223.207 240.879 223.66C241.465 224.087 241.759 224.927 241.759 226.18V235.5ZM116.647 288.82H123.647V306.26L120.367 306.62C119.22 306.62 118.314 306.287 117.647 305.62C116.98 304.953 116.647 304.047 116.647 302.9V288.82ZM120.367 306.62V300.98H132.807C132.994 301.273 133.167 301.66 133.327 302.14C133.487 302.62 133.567 303.14 133.567 303.7C133.567 304.687 133.354 305.42 132.927 305.9C132.5 306.38 131.914 306.62 131.167 306.62H120.367ZM123.647 298.06H116.647V282.18C116.967 282.127 117.434 282.06 118.047 281.98C118.687 281.873 119.3 281.82 119.887 281.82C121.22 281.82 122.18 282.047 122.767 282.5C123.354 282.953 123.647 283.833 123.647 285.14V298.06ZM139.524 299.82L139.284 295.34L148.524 293.82C148.471 293.287 148.204 292.753 147.724 292.22C147.244 291.687 146.497 291.42 145.484 291.42C144.417 291.42 143.524 291.767 142.804 292.46C142.111 293.153 141.737 294.14 141.684 295.42L141.924 298.78C142.191 300.007 142.791 300.86 143.724 301.34C144.684 301.82 145.751 302.06 146.924 302.06C148.044 302.06 149.111 301.913 150.124 301.62C151.137 301.327 151.951 301.007 152.564 300.66C152.991 300.927 153.351 301.3 153.644 301.78C153.937 302.26 154.084 302.767 154.084 303.3C154.084 304.18 153.751 304.913 153.084 305.5C152.444 306.06 151.551 306.473 150.404 306.74C149.257 307.007 147.937 307.14 146.444 307.14C144.364 307.14 142.484 306.753 140.804 305.98C139.151 305.18 137.831 303.993 136.844 302.42C135.884 300.847 135.404 298.873 135.404 296.5C135.404 294.74 135.684 293.22 136.244 291.94C136.831 290.66 137.604 289.62 138.564 288.82C139.524 288.02 140.591 287.433 141.764 287.06C142.964 286.66 144.191 286.46 145.444 286.46C147.337 286.46 148.991 286.833 150.404 287.58C151.817 288.3 152.924 289.3 153.724 290.58C154.524 291.833 154.924 293.287 154.924 294.94C154.924 295.847 154.671 296.54 154.164 297.02C153.657 297.5 152.951 297.807 152.044 297.94L139.524 299.82ZM166.517 302.18C166.971 302.18 167.464 302.14 167.997 302.06C168.557 301.953 168.971 301.82 169.237 301.66V298.46L166.357 298.7C165.611 298.753 164.997 298.913 164.517 299.18C164.037 299.447 163.797 299.847 163.797 300.38C163.797 300.913 163.997 301.353 164.397 301.7C164.824 302.02 165.531 302.18 166.517 302.18ZM166.197 286.46C169.104 286.46 171.424 287.06 173.157 288.26C174.917 289.433 175.797 291.273 175.797 293.78V302.74C175.797 303.433 175.597 304.007 175.197 304.46C174.824 304.887 174.371 305.26 173.837 305.58C172.984 306.087 171.944 306.473 170.717 306.74C169.491 307.007 168.091 307.14 166.517 307.14C163.717 307.14 161.464 306.607 159.757 305.54C158.077 304.447 157.237 302.807 157.237 300.62C157.237 298.78 157.784 297.367 158.877 296.38C159.997 295.393 161.691 294.78 163.957 294.54L169.197 293.98V293.7C169.197 292.927 168.851 292.38 168.157 292.06C167.491 291.713 166.517 291.54 165.237 291.54C164.251 291.54 163.264 291.647 162.277 291.86C161.317 292.073 160.451 292.34 159.677 292.66C159.331 292.42 159.037 292.06 158.797 291.58C158.557 291.073 158.437 290.553 158.437 290.02C158.437 288.74 159.117 287.833 160.477 287.3C161.251 287.007 162.157 286.793 163.197 286.66C164.264 286.527 165.264 286.46 166.197 286.46ZM199.075 293.98V297.66H192.275V294.18C192.275 293.353 192.022 292.753 191.515 292.38C191.035 291.98 190.395 291.78 189.595 291.78C189.062 291.78 188.555 291.847 188.075 291.98C187.622 292.113 187.182 292.287 186.755 292.5V297.66H179.955V291.58C179.955 290.86 180.102 290.273 180.395 289.82C180.715 289.367 181.142 288.953 181.675 288.58C182.582 287.94 183.728 287.433 185.115 287.06C186.502 286.66 188.022 286.46 189.675 286.46C192.688 286.46 195.008 287.127 196.635 288.46C198.262 289.767 199.075 291.607 199.075 293.98ZM179.955 295.94H186.755V306.46C186.462 306.54 186.035 306.62 185.475 306.7C184.942 306.78 184.355 306.82 183.715 306.82C182.408 306.82 181.448 306.593 180.835 306.14C180.248 305.687 179.955 304.847 179.955 303.62V295.94ZM192.275 295.94H199.075V306.46C198.782 306.54 198.355 306.62 197.795 306.7C197.262 306.78 196.675 306.82 196.035 306.82C194.728 306.82 193.768 306.593 193.155 306.14C192.568 305.687 192.275 304.847 192.275 303.62V295.94ZM211.595 302.18C212.049 302.18 212.542 302.14 213.075 302.06C213.635 301.953 214.049 301.82 214.315 301.66V298.46L211.435 298.7C210.689 298.753 210.075 298.913 209.595 299.18C209.115 299.447 208.875 299.847 208.875 300.38C208.875 300.913 209.075 301.353 209.475 301.7C209.902 302.02 210.609 302.18 211.595 302.18ZM211.275 286.46C214.182 286.46 216.502 287.06 218.235 288.26C219.995 289.433 220.875 291.273 220.875 293.78V302.74C220.875 303.433 220.675 304.007 220.275 304.46C219.902 304.887 219.449 305.26 218.915 305.58C218.062 306.087 217.022 306.473 215.795 306.74C214.569 307.007 213.169 307.14 211.595 307.14C208.795 307.14 206.542 306.607 204.835 305.54C203.155 304.447 202.315 302.807 202.315 300.62C202.315 298.78 202.862 297.367 203.955 296.38C205.075 295.393 206.769 294.78 209.035 294.54L214.275 293.98V293.7C214.275 292.927 213.929 292.38 213.235 292.06C212.569 291.713 211.595 291.54 210.315 291.54C209.329 291.54 208.342 291.647 207.355 291.86C206.395 292.073 205.529 292.34 204.755 292.66C204.409 292.42 204.115 292.06 203.875 291.58C203.635 291.073 203.515 290.553 203.515 290.02C203.515 288.74 204.195 287.833 205.555 287.3C206.329 287.007 207.235 286.793 208.275 286.66C209.342 286.527 210.342 286.46 211.275 286.46Z" fill="white"/>
</g>
<defs>
<filter id="filter0_d_1268_4572" x="0" y="0" width="345" height="535" filterUnits="userSpaceOnUse" color-interpolation-filters="sRGB">
<feFlood flood-opacity="0" result="BackgroundImageFix"/>
<feColorMatrix in="SourceAlpha" type="matrix" values="0 0 0 0 0 0 0 0 0 0 0 0 0 0 0 0 0 0 127 0" result="hardAlpha"/>
<feOffset dx="4" dy="4"/>
<feGaussianBlur stdDeviation="4"/>
<feComposite in2="hardAlpha" operator="out"/>
<feColorMatrix type="matrix" values="0 0 0 0 1 0 0 0 0 0.792157 0 0 0 0 0.101961 0 0 0 0.3 0"/>
<feBlend mode="normal" in2="BackgroundImageFix" result="effect1_dropShadow_1268_4572"/>
<feBlend mode="normal" in="SourceGraphic" in2="effect1_dropShadow_1268_4572" result="shape"/>
</filter>
</defs>
</svg>
