<svg width="330" height="518" viewBox="0 0 330 518" fill="none" xmlns="http://www.w3.org/2000/svg">
<rect x="111.043" y="0.1875" width="218.957" height="517.625" rx="11.0069" fill="#F3F3F3"/>
<path d="M164.069 243.228H169.669V257.34C169.434 257.404 169.071 257.468 168.581 257.532C168.09 257.596 167.589 257.628 167.077 257.628C165.967 257.628 165.189 257.436 164.741 257.052C164.293 256.647 164.069 255.953 164.069 254.972V243.228ZM169.669 250.62H164.069V237.916C164.325 237.873 164.698 237.82 165.189 237.756C165.701 237.671 166.191 237.628 166.661 237.628C167.727 237.628 168.495 237.809 168.965 238.172C169.434 238.535 169.669 239.239 169.669 240.284V250.62ZM173.563 248.924H179.003V257.34C178.768 257.404 178.427 257.468 177.979 257.532C177.552 257.596 177.083 257.628 176.571 257.628C175.525 257.628 174.757 257.447 174.267 257.084C173.797 256.721 173.563 256.049 173.563 255.068V248.924ZM179.003 251.772H173.563V236.508C173.797 236.444 174.128 236.38 174.555 236.316C175.003 236.252 175.483 236.22 175.995 236.22C177.061 236.22 177.829 236.401 178.299 236.764C178.768 237.105 179.003 237.777 179.003 238.78V251.772ZM182.496 251.196V249.084H187.936V251.196C187.936 252.049 188.15 252.668 188.576 253.052C189.024 253.436 189.643 253.628 190.432 253.628C190.923 253.628 191.328 253.585 191.648 253.5C191.968 253.415 192.203 253.329 192.352 253.244V249.084H197.792V254.044C197.792 254.577 197.675 255.047 197.44 255.452C197.227 255.836 196.896 256.167 196.448 256.444C195.702 256.913 194.806 257.265 193.76 257.5C192.736 257.756 191.616 257.884 190.4 257.884C188.864 257.884 187.499 257.66 186.304 257.212C185.11 256.743 184.171 256.017 183.488 255.036C182.827 254.055 182.496 252.775 182.496 251.196ZM197.792 250.46H192.352V241.884C192.587 241.82 192.918 241.756 193.344 241.692C193.792 241.628 194.272 241.596 194.784 241.596C195.851 241.596 196.619 241.777 197.088 242.14C197.558 242.481 197.792 243.153 197.792 244.156V250.46ZM187.936 250.46H182.496V241.884C182.731 241.82 183.062 241.756 183.488 241.692C183.936 241.628 184.416 241.596 184.928 241.596C185.995 241.596 186.763 241.777 187.232 242.14C187.702 242.481 187.936 243.153 187.936 244.156V250.46ZM214.241 252.732C214.241 254.353 213.623 255.623 212.385 256.54C211.169 257.457 209.388 257.916 207.041 257.916C205.228 257.916 203.735 257.66 202.561 257.148C201.409 256.615 200.833 255.793 200.833 254.684C200.833 254.172 200.94 253.735 201.153 253.372C201.367 253.009 201.623 252.721 201.921 252.508C202.54 252.849 203.244 253.159 204.033 253.436C204.844 253.692 205.772 253.82 206.817 253.82C208.183 253.82 208.865 253.468 208.865 252.764C208.865 252.465 208.737 252.231 208.481 252.06C208.225 251.889 207.799 251.751 207.201 251.644L206.241 251.452C204.407 251.089 203.031 250.513 202.113 249.724C201.196 248.935 200.737 247.825 200.737 246.396C200.737 244.796 201.388 243.548 202.689 242.652C203.991 241.756 205.687 241.308 207.777 241.308C208.823 241.308 209.772 241.415 210.625 241.628C211.5 241.82 212.193 242.14 212.705 242.588C213.217 243.015 213.473 243.569 213.473 244.252C213.473 244.721 213.377 245.137 213.185 245.5C213.015 245.863 212.791 246.161 212.513 246.396C212.279 246.247 211.905 246.097 211.393 245.948C210.903 245.799 210.369 245.671 209.793 245.564C209.217 245.457 208.705 245.404 208.257 245.404C207.553 245.404 207.009 245.489 206.625 245.66C206.241 245.809 206.049 246.055 206.049 246.396C206.049 246.631 206.156 246.823 206.369 246.972C206.583 247.121 206.988 247.26 207.585 247.388L208.577 247.612C210.625 248.081 212.076 248.732 212.929 249.564C213.804 250.375 214.241 251.431 214.241 252.732ZM216.935 248.924H222.311V252.028C222.311 252.561 222.482 252.956 222.823 253.212C223.186 253.447 223.687 253.564 224.327 253.564C224.647 253.564 224.978 253.543 225.319 253.5C225.661 253.436 225.959 253.361 226.215 253.276C226.407 253.489 226.567 253.745 226.695 254.044C226.845 254.343 226.919 254.695 226.919 255.1C226.919 255.889 226.61 256.551 225.991 257.084C225.394 257.596 224.327 257.852 222.791 257.852C220.914 257.852 219.463 257.425 218.439 256.572C217.437 255.719 216.935 254.332 216.935 252.412V248.924ZM220.455 246.332V242.172H226.503C226.631 242.385 226.749 242.673 226.855 243.036C226.983 243.399 227.047 243.793 227.047 244.22C227.047 244.967 226.877 245.511 226.535 245.852C226.215 246.172 225.778 246.332 225.223 246.332H220.455ZM222.311 249.692H216.935V238.204C217.17 238.14 217.501 238.076 217.927 238.012C218.375 237.927 218.845 237.884 219.335 237.884C220.381 237.884 221.138 238.065 221.607 238.428C222.077 238.791 222.311 239.463 222.311 240.444V249.692ZM235.03 246.396V250.044H229.59V245.564C229.59 244.945 229.75 244.412 230.07 243.964C230.411 243.495 230.849 243.089 231.382 242.748C232.129 242.3 233.003 241.959 234.006 241.724C235.009 241.489 236.043 241.372 237.11 241.372C239.435 241.372 240.598 242.193 240.598 243.836C240.598 244.22 240.545 244.583 240.438 244.924C240.331 245.244 240.203 245.521 240.054 245.756C239.841 245.713 239.585 245.681 239.286 245.66C238.987 245.639 238.657 245.628 238.294 245.628C237.761 245.628 237.195 245.692 236.598 245.82C236.001 245.948 235.478 246.14 235.03 246.396ZM229.59 248.924H235.03V257.34C234.795 257.404 234.454 257.468 234.006 257.532C233.579 257.596 233.11 257.628 232.598 257.628C231.553 257.628 230.785 257.447 230.294 257.084C229.825 256.721 229.59 256.049 229.59 255.068V248.924ZM248.934 253.916C249.296 253.916 249.691 253.884 250.118 253.82C250.566 253.735 250.896 253.628 251.11 253.5V250.94L248.806 251.132C248.208 251.175 247.718 251.303 247.334 251.516C246.95 251.729 246.758 252.049 246.758 252.476C246.758 252.903 246.918 253.255 247.238 253.532C247.579 253.788 248.144 253.916 248.934 253.916ZM248.678 241.34C251.003 241.34 252.859 241.82 254.246 242.78C255.654 243.719 256.358 245.191 256.358 247.196V254.364C256.358 254.919 256.198 255.377 255.878 255.74C255.579 256.081 255.216 256.38 254.79 256.636C254.107 257.041 253.275 257.351 252.294 257.564C251.312 257.777 250.192 257.884 248.934 257.884C246.694 257.884 244.891 257.457 243.526 256.604C242.182 255.729 241.51 254.417 241.51 252.668C241.51 251.196 241.947 250.065 242.822 249.276C243.718 248.487 245.072 247.996 246.886 247.804L251.078 247.356V247.132C251.078 246.513 250.8 246.076 250.246 245.82C249.712 245.543 248.934 245.404 247.91 245.404C247.12 245.404 246.331 245.489 245.542 245.66C244.774 245.831 244.08 246.044 243.462 246.3C243.184 246.108 242.95 245.82 242.758 245.436C242.566 245.031 242.47 244.615 242.47 244.188C242.47 243.164 243.014 242.439 244.102 242.012C244.72 241.777 245.446 241.607 246.278 241.5C247.131 241.393 247.931 241.34 248.678 241.34ZM272.804 252.732C272.804 254.353 272.185 255.623 270.948 256.54C269.732 257.457 267.951 257.916 265.604 257.916C263.791 257.916 262.297 257.66 261.124 257.148C259.972 256.615 259.396 255.793 259.396 254.684C259.396 254.172 259.503 253.735 259.716 253.372C259.929 253.009 260.185 252.721 260.484 252.508C261.103 252.849 261.807 253.159 262.596 253.436C263.407 253.692 264.335 253.82 265.38 253.82C266.745 253.82 267.428 253.468 267.428 252.764C267.428 252.465 267.3 252.231 267.044 252.06C266.788 251.889 266.361 251.751 265.764 251.644L264.804 251.452C262.969 251.089 261.593 250.513 260.676 249.724C259.759 248.935 259.3 247.825 259.3 246.396C259.3 244.796 259.951 243.548 261.252 242.652C262.553 241.756 264.249 241.308 266.34 241.308C267.385 241.308 268.335 241.415 269.188 241.628C270.063 241.82 270.756 242.14 271.268 242.588C271.78 243.015 272.036 243.569 272.036 244.252C272.036 244.721 271.94 245.137 271.748 245.5C271.577 245.863 271.353 246.161 271.076 246.396C270.841 246.247 270.468 246.097 269.956 245.948C269.465 245.799 268.932 245.671 268.356 245.564C267.78 245.457 267.268 245.404 266.82 245.404C266.116 245.404 265.572 245.489 265.188 245.66C264.804 245.809 264.612 246.055 264.612 246.396C264.612 246.631 264.719 246.823 264.932 246.972C265.145 247.121 265.551 247.26 266.148 247.388L267.14 247.612C269.188 248.081 270.639 248.732 271.492 249.564C272.367 250.375 272.804 251.431 272.804 252.732ZM275.306 237.5C275.306 236.689 275.583 236.007 276.138 235.452C276.693 234.897 277.407 234.62 278.282 234.62C279.157 234.62 279.871 234.897 280.426 235.452C280.981 236.007 281.258 236.689 281.258 237.5C281.258 238.289 280.981 238.972 280.426 239.548C279.871 240.103 279.157 240.38 278.282 240.38C277.407 240.38 276.693 240.103 276.138 239.548C275.583 238.972 275.306 238.289 275.306 237.5ZM275.562 248.924H281.002V257.34C280.767 257.404 280.426 257.468 279.978 257.532C279.551 257.596 279.082 257.628 278.57 257.628C277.525 257.628 276.757 257.447 276.266 257.084C275.797 256.721 275.562 256.049 275.562 255.068V248.924ZM281.002 251.772H275.562V242.044C275.797 241.98 276.127 241.916 276.554 241.852C277.002 241.788 277.482 241.756 277.994 241.756C279.061 241.756 279.829 241.937 280.298 242.3C280.767 242.641 281.002 243.313 281.002 244.316V251.772ZM192.065 293.46V288.98H202.721C202.87 289.215 202.998 289.524 203.105 289.908C203.233 290.292 203.297 290.708 203.297 291.156C203.297 291.945 203.116 292.532 202.753 292.916C202.412 293.279 201.942 293.46 201.345 293.46H192.065ZM197.953 288.98V293.46H187.297C187.148 293.225 187.009 292.916 186.881 292.532C186.774 292.148 186.721 291.732 186.721 291.284C186.721 290.473 186.892 289.887 187.233 289.524C187.596 289.161 188.076 288.98 188.673 288.98H197.953ZM192.129 292.596H197.729V308.34C197.494 308.404 197.132 308.468 196.641 308.532C196.15 308.596 195.649 308.628 195.137 308.628C194.028 308.628 193.249 308.436 192.801 308.052C192.353 307.647 192.129 306.953 192.129 305.972V292.596ZM205.306 288.5C205.306 287.689 205.583 287.007 206.138 286.452C206.693 285.897 207.407 285.62 208.282 285.62C209.157 285.62 209.871 285.897 210.426 286.452C210.981 287.007 211.258 287.689 211.258 288.5C211.258 289.289 210.981 289.972 210.426 290.548C209.871 291.103 209.157 291.38 208.282 291.38C207.407 291.38 206.693 291.103 206.138 290.548C205.583 289.972 205.306 289.289 205.306 288.5ZM205.562 299.924H211.002V308.34C210.767 308.404 210.426 308.468 209.978 308.532C209.551 308.596 209.082 308.628 208.57 308.628C207.525 308.628 206.757 308.447 206.266 308.084C205.797 307.721 205.562 307.049 205.562 306.068V299.924ZM211.002 302.772H205.562V293.044C205.797 292.98 206.127 292.916 206.554 292.852C207.002 292.788 207.482 292.756 207.994 292.756C209.061 292.756 209.829 292.937 210.298 293.3C210.767 293.641 211.002 294.313 211.002 295.316V302.772ZM229.057 297.684V301.3H223.617V298.42C223.617 297.78 223.425 297.321 223.041 297.044C222.678 296.745 222.23 296.596 221.697 296.596C221.292 296.596 220.94 296.66 220.641 296.788C220.342 296.895 220.097 297.001 219.905 297.108V301.3H214.465V296.436C214.465 295.86 214.582 295.391 214.817 295.028C215.073 294.665 215.414 294.335 215.841 294.036C216.566 293.524 217.462 293.119 218.529 292.82C219.617 292.5 220.748 292.34 221.921 292.34C222.924 292.34 223.884 292.5 224.801 292.82C225.718 293.119 226.55 293.609 227.297 294.292C227.468 294.441 227.638 294.591 227.809 294.74C228.001 294.889 228.14 295.049 228.225 295.22C228.46 295.583 228.652 295.977 228.801 296.404C228.972 296.831 229.057 297.257 229.057 297.684ZM238.209 298.26V301.3H232.769V298.42C232.769 297.78 232.598 297.321 232.257 297.044C231.916 296.745 231.468 296.596 230.913 296.596C230.508 296.596 230.124 296.681 229.761 296.852C229.398 297.001 229.1 297.172 228.865 297.364L225.889 294.324C226.636 293.791 227.457 293.332 228.353 292.948C229.27 292.543 230.401 292.34 231.745 292.34C232.833 292.34 233.868 292.532 234.849 292.916C235.852 293.3 236.662 293.929 237.281 294.804C237.9 295.657 238.209 296.809 238.209 298.26ZM214.465 299.924H219.905V308.34C219.67 308.404 219.329 308.468 218.881 308.532C218.454 308.596 217.985 308.628 217.473 308.628C216.428 308.628 215.66 308.447 215.169 308.084C214.7 307.721 214.465 307.049 214.465 306.068V299.924ZM223.617 299.924H229.057V308.34C228.822 308.404 228.481 308.468 228.033 308.532C227.606 308.596 227.137 308.628 226.625 308.628C225.58 308.628 224.812 308.447 224.321 308.084C223.852 307.721 223.617 307.049 223.617 306.068V299.924ZM232.769 299.924H238.209V308.34C237.974 308.404 237.633 308.468 237.185 308.532C236.758 308.596 236.289 308.628 235.777 308.628C234.732 308.628 233.964 308.447 233.473 308.084C233.004 307.721 232.769 307.049 232.769 306.068V299.924ZM257.655 300.596C257.655 302.303 257.303 303.775 256.599 305.012C255.916 306.249 254.946 307.209 253.687 307.892C252.45 308.553 250.978 308.884 249.271 308.884C247.586 308.884 246.114 308.553 244.855 307.892C243.596 307.231 242.615 306.281 241.911 305.044C241.228 303.807 240.887 302.324 240.887 300.596C240.887 298.911 241.239 297.449 241.943 296.212C242.647 294.975 243.628 294.025 244.887 293.364C246.146 292.681 247.607 292.34 249.271 292.34C250.956 292.34 252.418 292.681 253.655 293.364C254.914 294.047 255.895 295.007 256.599 296.244C257.303 297.481 257.655 298.932 257.655 300.596ZM249.271 296.596C248.396 296.596 247.703 296.948 247.191 297.652C246.7 298.335 246.455 299.316 246.455 300.596C246.455 301.919 246.7 302.921 247.191 303.604C247.682 304.287 248.375 304.628 249.271 304.628C250.167 304.628 250.86 304.287 251.351 303.604C251.842 302.9 252.087 301.897 252.087 300.596C252.087 299.337 251.831 298.356 251.319 297.652C250.828 296.948 250.146 296.596 249.271 296.596Z" fill="#8C8C8C"/>
<ellipse cx="121" cy="100.873" rx="121" ry="81" fill="#FFCA1A"/>
<path d="M152.021 160.619C151.599 168.602 157.404 186.777 184 195.619C179.884 193.009 167.725 182.356 152.021 160.619Z" fill="#FFCA1A"/>
<path d="M40.9429 79.064H43.5109V82.232C43.5109 83.192 43.3269 83.976 42.9589 84.584C42.6069 85.176 42.1189 85.608 41.4949 85.88C40.8709 86.152 40.1589 86.288 39.3589 86.288C38.4789 86.288 37.7989 86.168 37.3189 85.928C36.8549 85.688 36.6229 85.328 36.6229 84.848C36.6229 84.592 36.6709 84.376 36.7669 84.2C36.8629 84.008 36.9509 83.864 37.0309 83.768C37.3029 83.864 37.5909 83.952 37.8949 84.032C38.1989 84.112 38.5109 84.152 38.8309 84.152C39.5349 84.152 40.0629 83.984 40.4149 83.648C40.7669 83.296 40.9429 82.752 40.9429 82.016V79.064ZM43.5109 80H40.9429V71.432C41.0549 71.4 41.2229 71.368 41.4469 71.336C41.6709 71.288 41.8949 71.264 42.1189 71.264C42.5989 71.264 42.9509 71.352 43.1749 71.528C43.3989 71.704 43.5109 72.016 43.5109 72.464V80ZM51.3728 86.36C49.8208 86.36 48.6048 86.056 47.7248 85.448C46.8448 84.84 46.4048 83.944 46.4048 82.76C46.4048 81.704 46.7488 80.896 47.4368 80.336C48.1248 79.776 49.1008 79.432 50.3648 79.304L53.7008 78.968V78.44C53.7008 77.736 53.4688 77.224 53.0048 76.904C52.5408 76.584 51.9088 76.424 51.1088 76.424C50.4688 76.424 49.8528 76.512 49.2608 76.688C48.6688 76.864 48.1408 77.064 47.6768 77.288C47.5168 77.16 47.3808 77 47.2688 76.808C47.1568 76.616 47.1008 76.416 47.1008 76.208C47.1008 75.696 47.3808 75.312 47.9408 75.056C48.3888 74.848 48.9008 74.696 49.4768 74.6C50.0688 74.488 50.6768 74.432 51.3008 74.432C52.7888 74.432 53.9728 74.76 54.8528 75.416C55.7328 76.056 56.1728 77.072 56.1728 78.464V84.056C56.1728 84.424 56.0928 84.712 55.9328 84.92C55.7728 85.128 55.5488 85.312 55.2608 85.472C54.8288 85.712 54.2768 85.92 53.6048 86.096C52.9488 86.272 52.2048 86.36 51.3728 86.36ZM51.3728 84.368C51.9328 84.368 52.4128 84.312 52.8128 84.2C53.2288 84.088 53.5248 83.976 53.7008 83.864V80.816L51.0848 81.08C50.3488 81.128 49.7968 81.288 49.4288 81.56C49.0608 81.816 48.8768 82.2 48.8768 82.712C48.8768 83.224 49.0768 83.632 49.4768 83.936C49.8928 84.224 50.5248 84.368 51.3728 84.368ZM69.51 78.632V81.008H66.99V78.728C66.99 77.944 66.766 77.368 66.318 77C65.87 76.632 65.278 76.448 64.542 76.448C63.998 76.448 63.502 76.52 63.054 76.664C62.622 76.808 62.246 76.968 61.926 77.144V81.008H59.406V77.072C59.406 76.704 59.478 76.408 59.622 76.184C59.766 75.944 60.006 75.72 60.342 75.512C60.79 75.224 61.374 74.976 62.094 74.768C62.83 74.544 63.646 74.432 64.542 74.432C66.11 74.432 67.326 74.784 68.19 75.488C69.07 76.176 69.51 77.224 69.51 78.632ZM59.406 79.76H61.926V85.952C61.814 86 61.654 86.04 61.446 86.072C61.238 86.12 61.014 86.144 60.774 86.144C60.31 86.144 59.966 86.056 59.742 85.88C59.518 85.704 59.406 85.408 59.406 84.992V79.76ZM66.99 79.76H69.51V85.952C69.414 86 69.254 86.04 69.03 86.072C68.822 86.12 68.598 86.144 68.358 86.144C67.894 86.144 67.55 86.056 67.326 85.88C67.102 85.704 66.99 85.408 66.99 84.992V79.76ZM77.4683 85.616C76.5403 85.616 75.6763 85.44 74.8763 85.088C74.0763 84.72 73.4363 84.128 72.9563 83.312C72.4763 82.48 72.2363 81.392 72.2363 80.048C72.2363 78.816 72.4763 77.784 72.9563 76.952C73.4523 76.12 74.1243 75.496 74.9723 75.08C75.8363 74.648 76.8283 74.432 77.9483 74.432C78.7323 74.432 79.4523 74.536 80.1083 74.744C80.7803 74.936 81.3243 75.168 81.7403 75.44C81.9963 75.616 82.2043 75.816 82.3643 76.04C82.5243 76.264 82.6043 76.536 82.6043 76.856V84.32H80.1323V77.024C79.8923 76.88 79.5963 76.752 79.2443 76.64C78.9083 76.512 78.4923 76.448 77.9963 76.448C77.0363 76.448 76.2603 76.744 75.6683 77.336C75.0763 77.928 74.7803 78.824 74.7803 80.024C74.7803 81.352 75.0683 82.288 75.6443 82.832C76.2363 83.36 76.9723 83.624 77.8523 83.624C78.4923 83.624 79.0123 83.52 79.4123 83.312C79.8123 83.088 80.1403 82.84 80.3963 82.568L80.4923 84.704C80.2203 84.928 79.8283 85.136 79.3163 85.328C78.8043 85.52 78.1883 85.616 77.4683 85.616ZM80.1563 86.192V83.768H82.6043V86.288C82.6043 87.376 82.3643 88.248 81.8843 88.904C81.4043 89.576 80.7483 90.064 79.9163 90.368C79.1003 90.672 78.1723 90.824 77.1323 90.824C76.3323 90.824 75.6283 90.736 75.0203 90.56C74.4123 90.4 73.9803 90.248 73.7243 90.104C73.2283 89.8 72.9803 89.4 72.9803 88.904C72.9803 88.632 73.0363 88.4 73.1483 88.208C73.2603 88.016 73.4043 87.872 73.5803 87.776C73.9483 88.032 74.4363 88.256 75.0443 88.448C75.6523 88.656 76.3003 88.76 76.9883 88.76C77.9963 88.76 78.7723 88.552 79.3163 88.136C79.8763 87.736 80.1563 87.088 80.1563 86.192ZM90.1384 86.36C88.5864 86.36 87.3704 86.056 86.4904 85.448C85.6104 84.84 85.1704 83.944 85.1704 82.76C85.1704 81.704 85.5144 80.896 86.2024 80.336C86.8904 79.776 87.8664 79.432 89.1304 79.304L92.4664 78.968V78.44C92.4664 77.736 92.2344 77.224 91.7704 76.904C91.3064 76.584 90.6744 76.424 89.8744 76.424C89.2344 76.424 88.6184 76.512 88.0264 76.688C87.4344 76.864 86.9064 77.064 86.4424 77.288C86.2824 77.16 86.1464 77 86.0344 76.808C85.9224 76.616 85.8664 76.416 85.8664 76.208C85.8664 75.696 86.1464 75.312 86.7064 75.056C87.1544 74.848 87.6664 74.696 88.2424 74.6C88.8344 74.488 89.4424 74.432 90.0664 74.432C91.5544 74.432 92.7384 74.76 93.6184 75.416C94.4984 76.056 94.9384 77.072 94.9384 78.464V84.056C94.9384 84.424 94.8584 84.712 94.6984 84.92C94.5384 85.128 94.3144 85.312 94.0264 85.472C93.5944 85.712 93.0424 85.92 92.3704 86.096C91.7144 86.272 90.9704 86.36 90.1384 86.36ZM90.1384 84.368C90.6984 84.368 91.1784 84.312 91.5784 84.2C91.9944 84.088 92.2904 83.976 92.4664 83.864V80.816L89.8504 81.08C89.1144 81.128 88.5624 81.288 88.1944 81.56C87.8264 81.816 87.6424 82.2 87.6424 82.712C87.6424 83.224 87.8424 83.632 88.2424 83.936C88.6584 84.224 89.2904 84.368 90.1384 84.368ZM108.276 78.632V81.008H105.756V78.728C105.756 77.944 105.532 77.368 105.084 77C104.636 76.632 104.044 76.448 103.308 76.448C102.764 76.448 102.268 76.52 101.82 76.664C101.388 76.808 101.012 76.968 100.692 77.144V81.008H98.1716V77.072C98.1716 76.704 98.2436 76.408 98.3876 76.184C98.5316 75.944 98.7716 75.72 99.1076 75.512C99.5556 75.224 100.14 74.976 100.86 74.768C101.596 74.544 102.412 74.432 103.308 74.432C104.876 74.432 106.092 74.784 106.956 75.488C107.836 76.176 108.276 77.224 108.276 78.632ZM98.1716 79.76H100.692V85.952C100.58 86 100.42 86.04 100.212 86.072C100.004 86.12 99.7796 86.144 99.5396 86.144C99.0756 86.144 98.7316 86.056 98.5076 85.88C98.2836 85.704 98.1716 85.408 98.1716 84.992V79.76ZM105.756 79.76H108.276V85.952C108.18 86 108.02 86.04 107.796 86.072C107.588 86.12 107.364 86.144 107.124 86.144C106.66 86.144 106.316 86.056 106.092 85.88C105.868 85.704 105.756 85.408 105.756 84.992V79.76ZM120.127 81.104L118.423 79.904L123.895 74.552C124.391 74.568 124.791 74.688 125.095 74.912C125.399 75.136 125.551 75.424 125.551 75.776C125.551 76.064 125.455 76.328 125.263 76.568C125.071 76.792 124.783 77.064 124.399 77.384L120.127 81.104ZM118.447 80.288L120.343 79.328L126.151 84.68C126.103 85.144 125.959 85.512 125.719 85.784C125.495 86.04 125.175 86.168 124.759 86.168C124.455 86.168 124.167 86.088 123.895 85.928C123.639 85.768 123.375 85.528 123.103 85.208L118.447 80.288ZM116.431 79.592L118.951 79.808V85.952C118.839 86 118.679 86.04 118.471 86.072C118.263 86.12 118.039 86.144 117.799 86.144C117.335 86.144 116.991 86.056 116.767 85.88C116.543 85.704 116.431 85.408 116.431 84.992V79.592ZM118.951 81.08L116.431 80.864V70.424C116.527 70.392 116.679 70.352 116.887 70.304C117.111 70.256 117.343 70.232 117.583 70.232C118.047 70.232 118.391 70.32 118.615 70.496C118.839 70.672 118.951 70.976 118.951 71.408V81.08ZM138.675 81.176H136.131V78.992C136.131 78.112 135.891 77.472 135.411 77.072C134.947 76.656 134.339 76.448 133.587 76.448C133.011 76.448 132.475 76.56 131.979 76.784C131.499 77.008 131.083 77.272 130.731 77.576L130.467 75.536C130.851 75.28 131.339 75.032 131.931 74.792C132.539 74.552 133.227 74.432 133.995 74.432C135.387 74.432 136.515 74.8 137.379 75.536C138.243 76.272 138.675 77.392 138.675 78.896V81.176ZM128.571 79.664H131.091V85.952C130.979 86 130.819 86.04 130.611 86.072C130.403 86.12 130.179 86.144 129.939 86.144C129.475 86.144 129.131 86.056 128.907 85.88C128.683 85.704 128.571 85.408 128.571 84.992V79.664ZM136.131 79.688H138.675V85.952C138.563 86 138.395 86.04 138.171 86.072C137.963 86.12 137.747 86.144 137.523 86.144C137.043 86.144 136.691 86.056 136.467 85.88C136.243 85.704 136.131 85.408 136.131 84.992V79.688ZM131.091 80.936H128.571V70.424C128.667 70.392 128.819 70.352 129.027 70.304C129.251 70.256 129.483 70.232 129.723 70.232C130.187 70.232 130.531 70.32 130.755 70.496C130.979 70.672 131.091 70.976 131.091 71.408V80.936ZM146.224 86.36C144.672 86.36 143.456 86.056 142.576 85.448C141.696 84.84 141.256 83.944 141.256 82.76C141.256 81.704 141.6 80.896 142.288 80.336C142.976 79.776 143.952 79.432 145.216 79.304L148.552 78.968V78.44C148.552 77.736 148.32 77.224 147.856 76.904C147.392 76.584 146.76 76.424 145.96 76.424C145.32 76.424 144.704 76.512 144.112 76.688C143.52 76.864 142.992 77.064 142.528 77.288C142.368 77.16 142.232 77 142.12 76.808C142.008 76.616 141.952 76.416 141.952 76.208C141.952 75.696 142.232 75.312 142.792 75.056C143.24 74.848 143.752 74.696 144.328 74.6C144.92 74.488 145.528 74.432 146.152 74.432C147.64 74.432 148.824 74.76 149.704 75.416C150.584 76.056 151.024 77.072 151.024 78.464V84.056C151.024 84.424 150.944 84.712 150.784 84.92C150.624 85.128 150.4 85.312 150.112 85.472C149.68 85.712 149.128 85.92 148.456 86.096C147.8 86.272 147.056 86.36 146.224 86.36ZM146.224 84.368C146.784 84.368 147.264 84.312 147.664 84.2C148.08 84.088 148.376 83.976 148.552 83.864V80.816L145.936 81.08C145.2 81.128 144.648 81.288 144.28 81.56C143.912 81.816 143.728 82.2 143.728 82.712C143.728 83.224 143.928 83.632 144.328 83.936C144.744 84.224 145.376 84.368 146.224 84.368ZM161.462 78.224C161.206 79.152 160.926 80.096 160.622 81.056C160.318 82 160.03 82.888 159.758 83.72C159.486 84.536 159.238 85.232 159.014 85.808C158.87 85.92 158.686 86.008 158.462 86.072C158.238 86.136 157.95 86.168 157.598 86.168C157.246 86.168 156.918 86.112 156.614 86C156.326 85.888 156.134 85.712 156.038 85.472C155.878 85.152 155.702 84.696 155.51 84.104C155.318 83.496 155.118 82.808 154.91 82.04C154.702 81.256 154.494 80.448 154.286 79.616C154.078 78.768 153.886 77.96 153.71 77.192C153.534 76.408 153.39 75.704 153.278 75.08C153.406 74.952 153.582 74.832 153.806 74.72C154.046 74.592 154.31 74.528 154.598 74.528C154.982 74.528 155.278 74.624 155.486 74.816C155.694 75.008 155.83 75.32 155.894 75.752C156.054 76.584 156.214 77.416 156.374 78.248C156.534 79.08 156.694 79.864 156.854 80.6C157.03 81.336 157.182 81.984 157.31 82.544C157.438 83.088 157.534 83.496 157.598 83.768H157.694C157.822 83.4 158.006 82.8 158.246 81.968C158.486 81.136 158.774 80.184 159.11 79.112C159.446 78.04 159.79 76.952 160.142 75.848C160.318 75.752 160.51 75.68 160.718 75.632C160.942 75.568 161.19 75.536 161.462 75.536C161.83 75.536 162.134 75.6 162.374 75.728C162.63 75.84 162.798 76.024 162.878 76.28C163.23 77.336 163.558 78.368 163.862 79.376C164.166 80.384 164.43 81.28 164.654 82.064C164.894 82.832 165.062 83.408 165.158 83.792H165.278C165.598 82.416 165.934 80.96 166.286 79.424C166.638 77.872 166.934 76.336 167.174 74.816C167.494 74.624 167.87 74.528 168.302 74.528C168.654 74.528 168.934 74.608 169.142 74.768C169.366 74.928 169.478 75.192 169.478 75.56C169.478 75.752 169.43 76.096 169.334 76.592C169.238 77.088 169.102 77.672 168.926 78.344C168.766 79 168.582 79.704 168.374 80.456C168.182 81.192 167.982 81.912 167.774 82.616C167.566 83.304 167.366 83.928 167.174 84.488C166.998 85.048 166.838 85.488 166.694 85.808C166.582 85.904 166.39 85.984 166.118 86.048C165.862 86.128 165.574 86.168 165.254 86.168C164.406 86.168 163.91 85.968 163.766 85.568C163.558 85.04 163.318 84.384 163.046 83.6C162.79 82.8 162.526 81.936 162.254 81.008C161.982 80.08 161.718 79.152 161.462 78.224ZM176.084 86.36C174.532 86.36 173.316 86.056 172.436 85.448C171.556 84.84 171.116 83.944 171.116 82.76C171.116 81.704 171.46 80.896 172.148 80.336C172.836 79.776 173.812 79.432 175.076 79.304L178.412 78.968V78.44C178.412 77.736 178.18 77.224 177.716 76.904C177.252 76.584 176.62 76.424 175.82 76.424C175.18 76.424 174.564 76.512 173.972 76.688C173.38 76.864 172.852 77.064 172.388 77.288C172.228 77.16 172.092 77 171.98 76.808C171.868 76.616 171.812 76.416 171.812 76.208C171.812 75.696 172.092 75.312 172.652 75.056C173.1 74.848 173.612 74.696 174.188 74.6C174.78 74.488 175.388 74.432 176.012 74.432C177.5 74.432 178.684 74.76 179.564 75.416C180.444 76.056 180.884 77.072 180.884 78.464V84.056C180.884 84.424 180.804 84.712 180.644 84.92C180.484 85.128 180.26 85.312 179.972 85.472C179.54 85.712 178.988 85.92 178.316 86.096C177.66 86.272 176.916 86.36 176.084 86.36ZM176.084 84.368C176.644 84.368 177.124 84.312 177.524 84.2C177.94 84.088 178.236 83.976 178.412 83.864V80.816L175.796 81.08C175.06 81.128 174.508 81.288 174.14 81.56C173.772 81.816 173.588 82.2 173.588 82.712C173.588 83.224 173.788 83.632 174.188 83.936C174.604 84.224 175.236 84.368 176.084 84.368ZM184.141 79.664H186.637V82.712C186.637 83.272 186.805 83.68 187.141 83.936C187.493 84.176 187.965 84.296 188.557 84.296C188.813 84.296 189.101 84.256 189.421 84.176C189.741 84.08 190.005 83.984 190.213 83.888C190.325 84 190.421 84.144 190.501 84.32C190.597 84.48 190.645 84.664 190.645 84.872C190.645 85.304 190.429 85.656 189.997 85.928C189.565 86.2 188.925 86.336 188.077 86.336C186.877 86.336 185.917 86.072 185.197 85.544C184.493 85 184.141 84.104 184.141 82.856V79.664ZM185.581 77V75.008H190.357C190.421 75.088 190.477 75.224 190.525 75.416C190.589 75.592 190.621 75.784 190.621 75.992C190.621 76.328 190.541 76.584 190.381 76.76C190.221 76.92 190.005 77 189.733 77H185.581ZM186.637 80.336H184.141V71.672C184.253 71.64 184.413 71.6 184.621 71.552C184.829 71.504 185.053 71.48 185.293 71.48C185.757 71.48 186.093 71.568 186.301 71.744C186.525 71.92 186.637 72.224 186.637 72.656V80.336ZM193.043 71.312C193.043 70.912 193.187 70.568 193.475 70.28C193.779 69.992 194.147 69.848 194.579 69.848C195.027 69.848 195.387 69.992 195.659 70.28C195.947 70.568 196.091 70.912 196.091 71.312C196.091 71.728 195.947 72.08 195.659 72.368C195.387 72.656 195.027 72.8 194.579 72.8C194.147 72.8 193.779 72.656 193.475 72.368C193.187 72.08 193.043 71.728 193.043 71.312ZM193.307 79.664H195.827V85.952C195.731 86 195.579 86.04 195.371 86.072C195.163 86.12 194.939 86.144 194.699 86.144C194.235 86.144 193.883 86.056 193.643 85.88C193.419 85.704 193.307 85.408 193.307 84.992V79.664ZM195.827 80.936H193.307V74.84C193.419 74.792 193.579 74.752 193.787 74.72C194.011 74.672 194.243 74.648 194.483 74.648C194.947 74.648 195.283 74.736 195.491 74.912C195.715 75.088 195.827 75.392 195.827 75.824V80.936ZM201.778 77.192V80.696H199.258V77.12C199.258 76.736 199.338 76.416 199.498 76.16C199.658 75.904 199.914 75.664 200.266 75.44C200.714 75.152 201.306 74.912 202.042 74.72C202.778 74.528 203.57 74.432 204.418 74.432C205.826 74.432 206.53 74.832 206.53 75.632C206.53 75.84 206.498 76.032 206.434 76.208C206.386 76.368 206.322 76.504 206.242 76.616C206.082 76.584 205.874 76.552 205.618 76.52C205.378 76.488 205.122 76.472 204.85 76.472C204.21 76.472 203.626 76.544 203.098 76.688C202.57 76.832 202.13 77 201.778 77.192ZM199.258 79.664L201.778 79.88V85.952C201.666 86 201.506 86.04 201.298 86.072C201.09 86.12 200.866 86.144 200.626 86.144C200.162 86.144 199.818 86.056 199.594 85.88C199.37 85.704 199.258 85.408 199.258 84.992V79.664ZM28.5461 100.904H31.1381V109.832L29.9381 110.024C29.5221 110.024 29.1861 109.896 28.9301 109.64C28.6741 109.384 28.5461 109.048 28.5461 108.632V100.904ZM29.9381 110.024V107.864H37.6421C37.7381 107.96 37.8101 108.104 37.8581 108.296C37.9221 108.472 37.9541 108.672 37.9541 108.896C37.9541 109.248 37.8661 109.528 37.6901 109.736C37.5141 109.928 37.2821 110.024 36.9941 110.024H29.9381ZM31.1381 103.496H28.5461V95.432C28.6581 95.4 28.8261 95.368 29.0501 95.336C29.2901 95.288 29.5221 95.264 29.7461 95.264C30.2261 95.264 30.5781 95.352 30.8021 95.528C31.0261 95.704 31.1381 96.016 31.1381 96.464V103.496ZM40.6399 100.712H43.1839V109.832C43.0879 109.848 42.9279 109.888 42.7039 109.952C42.4959 110 42.2719 110.024 42.0319 110.024C41.6159 110.024 41.2799 109.896 41.0239 109.64C40.7679 109.384 40.6399 109.048 40.6399 108.632V100.712ZM43.1839 104.624H40.6399V96.8C40.6399 96.384 40.7679 96.056 41.0239 95.816C41.2799 95.56 41.6159 95.432 42.0319 95.432C42.2719 95.432 42.4959 95.456 42.7039 95.504C42.9279 95.552 43.0879 95.592 43.1839 95.624V104.624ZM42.0319 103.592V101.504H49.2559C49.3199 101.6 49.3839 101.736 49.4479 101.912C49.5119 102.088 49.5439 102.28 49.5439 102.488C49.5439 102.84 49.4559 103.112 49.2799 103.304C49.1199 103.496 48.8959 103.592 48.6079 103.592H42.0319ZM42.0319 110.024V107.912H50.0959C50.1599 108.008 50.2239 108.152 50.2879 108.344C50.3519 108.52 50.3839 108.712 50.3839 108.92C50.3839 109.272 50.2959 109.544 50.1199 109.736C49.9599 109.928 49.7359 110.024 49.4479 110.024H42.0319ZM42.0319 97.544V95.432H49.9759C50.0559 95.528 50.1199 95.664 50.1679 95.84C50.2319 96.016 50.2639 96.208 50.2639 96.416C50.2639 96.768 50.1759 97.048 49.9999 97.256C49.8399 97.448 49.6159 97.544 49.3279 97.544H42.0319ZM59.1398 97.496H59.0438C58.8198 98.104 58.5638 98.816 58.2758 99.632C58.0038 100.448 57.7158 101.296 57.4118 102.176C57.1078 103.04 56.8198 103.864 56.5478 104.648L56.3078 105.68C56.2118 105.968 56.0998 106.312 55.9718 106.712C55.8598 107.112 55.7318 107.52 55.5878 107.936C55.4598 108.352 55.3318 108.744 55.2038 109.112C55.0918 109.464 54.9958 109.768 54.9158 110.024C54.7718 110.072 54.6198 110.112 54.4598 110.144C54.3158 110.192 54.1318 110.216 53.9078 110.216C53.4918 110.216 53.1558 110.128 52.8998 109.952C52.6438 109.776 52.5158 109.504 52.5158 109.136C52.5158 108.976 52.5398 108.816 52.5878 108.656C52.6518 108.48 52.7158 108.28 52.7798 108.056C52.9558 107.528 53.1798 106.872 53.4518 106.088C53.7238 105.288 54.0198 104.424 54.3398 103.496C54.6758 102.568 55.0197 101.632 55.3717 100.688C55.7238 99.728 56.0598 98.816 56.3798 97.952C56.7158 97.072 57.0118 96.312 57.2678 95.672C57.4278 95.576 57.6758 95.488 58.0117 95.408C58.3638 95.312 58.7158 95.264 59.0678 95.264C59.5158 95.264 59.9318 95.336 60.3158 95.48C60.6998 95.608 60.9478 95.824 61.0598 96.128C61.4118 97.024 61.7878 98.048 62.1878 99.2C62.6038 100.352 63.0198 101.552 63.4358 102.8C63.8678 104.048 64.2758 105.264 64.6598 106.448C65.0438 107.632 65.3798 108.696 65.6678 109.64C65.5398 109.816 65.3558 109.952 65.1158 110.048C64.8758 110.16 64.5958 110.216 64.2758 110.216C63.8438 110.216 63.5238 110.128 63.3158 109.952C63.1238 109.776 62.9638 109.496 62.8358 109.112L61.7318 105.656L61.4438 104.48C61.1718 103.6 60.8918 102.728 60.6038 101.864C60.3158 100.984 60.0438 100.168 59.7878 99.416C59.5318 98.648 59.3158 98.008 59.1398 97.496ZM55.1318 106.352L56.0438 104.288H62.3558L62.7638 106.352H55.1318ZM68.2493 100.904H70.8413V109.832L69.6413 110.024C69.2253 110.024 68.8893 109.896 68.6333 109.64C68.3773 109.384 68.2493 109.048 68.2493 108.632V100.904ZM69.6413 110.024V107.864H77.3453C77.4413 107.96 77.5133 108.104 77.5613 108.296C77.6253 108.472 77.6573 108.672 77.6573 108.896C77.6573 109.248 77.5693 109.528 77.3933 109.736C77.2173 109.928 76.9853 110.024 76.6973 110.024H69.6413ZM70.8413 103.496H68.2493V95.432C68.3613 95.4 68.5293 95.368 68.7533 95.336C68.9933 95.288 69.2253 95.264 69.4492 95.264C69.9293 95.264 70.2813 95.352 70.5053 95.528C70.7293 95.704 70.8413 96.016 70.8413 96.464V103.496ZM88.9397 97.544L88.8437 95.432H95.1077C95.1717 95.528 95.2357 95.672 95.2997 95.864C95.3637 96.04 95.3957 96.232 95.3957 96.44C95.3957 96.792 95.3077 97.064 95.1317 97.256C94.9717 97.448 94.7397 97.544 94.4357 97.544H88.9397ZM90.2117 95.432L90.2837 97.544H84.0197C83.9397 97.448 83.8677 97.312 83.8037 97.136C83.7557 96.944 83.7317 96.744 83.7317 96.536C83.7317 96.168 83.8117 95.896 83.9717 95.72C84.1477 95.528 84.3797 95.432 84.6677 95.432H90.2117ZM88.2437 96.896H90.8357V109.952C90.7237 110 90.5557 110.04 90.3317 110.072C90.1077 110.12 89.8757 110.144 89.6357 110.144C89.1557 110.144 88.8037 110.056 88.5797 109.88C88.3557 109.688 88.2437 109.376 88.2437 108.944V96.896ZM99.1682 101.192V104.696H96.6482V101.12C96.6482 100.736 96.7282 100.416 96.8882 100.16C97.0482 99.904 97.3042 99.664 97.6562 99.44C98.1042 99.152 98.6962 98.912 99.4322 98.72C100.168 98.528 100.96 98.432 101.808 98.432C103.216 98.432 103.92 98.832 103.92 99.632C103.92 99.84 103.888 100.032 103.824 100.208C103.776 100.368 103.712 100.504 103.632 100.616C103.472 100.584 103.264 100.552 103.008 100.52C102.768 100.488 102.512 100.472 102.24 100.472C101.6 100.472 101.016 100.544 100.488 100.688C99.9602 100.832 99.5202 101 99.1682 101.192ZM96.6482 103.664L99.1682 103.88V109.952C99.0562 110 98.8962 110.04 98.6882 110.072C98.4802 110.12 98.2562 110.144 98.0162 110.144C97.5522 110.144 97.2082 110.056 96.9842 109.88C96.7602 109.704 96.6482 109.408 96.6482 108.992V103.664ZM116.471 104.384C116.471 105.584 116.239 106.632 115.775 107.528C115.311 108.424 114.647 109.12 113.783 109.616C112.935 110.096 111.935 110.336 110.783 110.336C109.647 110.336 108.647 110.096 107.783 109.616C106.919 109.12 106.255 108.432 105.791 107.552C105.327 106.656 105.095 105.6 105.095 104.384C105.095 103.152 105.327 102.096 105.791 101.216C106.271 100.336 106.943 99.656 107.807 99.176C108.671 98.68 109.671 98.432 110.807 98.432C111.927 98.432 112.911 98.68 113.759 99.176C114.623 99.656 115.287 100.344 115.751 101.24C116.231 102.12 116.471 103.168 116.471 104.384ZM110.783 100.448C109.839 100.448 109.087 100.8 108.527 101.504C107.967 102.192 107.687 103.152 107.687 104.384C107.687 105.616 107.959 106.576 108.503 107.264C109.047 107.952 109.807 108.296 110.783 108.296C111.759 108.296 112.519 107.952 113.063 107.264C113.623 106.56 113.903 105.6 113.903 104.384C113.903 103.152 113.623 102.192 113.063 101.504C112.519 100.8 111.759 100.448 110.783 100.448ZM129.948 104.384C129.948 105.584 129.716 106.632 129.252 107.528C128.788 108.424 128.124 109.12 127.26 109.616C126.412 110.096 125.412 110.336 124.26 110.336C123.124 110.336 122.124 110.096 121.26 109.616C120.396 109.12 119.732 108.432 119.268 107.552C118.804 106.656 118.572 105.6 118.572 104.384C118.572 103.152 118.804 102.096 119.268 101.216C119.748 100.336 120.42 99.656 121.284 99.176C122.148 98.68 123.148 98.432 124.284 98.432C125.404 98.432 126.388 98.68 127.236 99.176C128.1 99.656 128.764 100.344 129.228 101.24C129.708 102.12 129.948 103.168 129.948 104.384ZM124.26 100.448C123.316 100.448 122.564 100.8 122.004 101.504C121.444 102.192 121.164 103.152 121.164 104.384C121.164 105.616 121.436 106.576 121.98 107.264C122.524 107.952 123.284 108.296 124.26 108.296C125.236 108.296 125.996 107.952 126.54 107.264C127.1 106.56 127.38 105.6 127.38 104.384C127.38 103.152 127.1 102.192 126.54 101.504C125.996 100.8 125.236 100.448 124.26 100.448ZM137.736 110.336C137.08 110.336 136.472 110.24 135.912 110.048C135.352 109.872 134.92 109.672 134.616 109.448V107.216C134.92 107.488 135.296 107.736 135.744 107.96C136.208 108.184 136.744 108.296 137.352 108.296C138.392 108.296 139.216 107.976 139.824 107.336C140.432 106.696 140.736 105.696 140.736 104.336C140.736 103.392 140.584 102.64 140.28 102.08C139.992 101.504 139.592 101.088 139.08 100.832C138.584 100.576 138.024 100.448 137.4 100.448C136.904 100.448 136.472 100.512 136.104 100.64C135.752 100.768 135.432 100.912 135.144 101.072V108.8H132.648V100.904C132.648 100.552 132.712 100.272 132.84 100.064C132.968 99.84 133.208 99.624 133.56 99.416C134.008 99.16 134.552 98.936 135.192 98.744C135.848 98.536 136.584 98.432 137.4 98.432C138.52 98.432 139.528 98.64 140.424 99.056C141.32 99.456 142.024 100.096 142.536 100.976C143.048 101.84 143.304 102.96 143.304 104.336C143.304 105.664 143.064 106.776 142.584 107.672C142.104 108.552 141.44 109.216 140.592 109.664C139.76 110.112 138.808 110.336 137.736 110.336ZM134.016 114.488C133.552 114.488 133.208 114.4 132.984 114.224C132.76 114.048 132.648 113.744 132.648 113.312V108.032L135.168 108.056V114.296C135.056 114.344 134.896 114.384 134.688 114.416C134.48 114.464 134.256 114.488 134.016 114.488ZM154.384 106.904C154.384 107.976 153.984 108.816 153.184 109.424C152.384 110.032 151.224 110.336 149.704 110.336C148.456 110.336 147.432 110.152 146.632 109.784C145.832 109.4 145.432 108.928 145.432 108.368C145.432 108.112 145.488 107.88 145.6 107.672C145.728 107.464 145.896 107.304 146.104 107.192C146.552 107.48 147.064 107.744 147.64 107.984C148.232 108.224 148.904 108.344 149.656 108.344C151.128 108.344 151.864 107.864 151.864 106.904C151.864 106.504 151.736 106.184 151.48 105.944C151.24 105.688 150.856 105.504 150.328 105.392L148.696 104.984C147.608 104.728 146.808 104.336 146.296 103.808C145.784 103.28 145.528 102.592 145.528 101.744C145.528 100.8 145.912 100.008 146.68 99.368C147.448 98.728 148.56 98.408 150.016 98.408C150.768 98.408 151.432 98.488 152.008 98.648C152.6 98.792 153.064 99 153.4 99.272C153.736 99.544 153.904 99.856 153.904 100.208C153.904 100.464 153.848 100.688 153.736 100.88C153.624 101.072 153.472 101.216 153.28 101.312C153.088 101.2 152.832 101.072 152.512 100.928C152.192 100.784 151.824 100.664 151.408 100.568C151.008 100.472 150.592 100.424 150.16 100.424C149.504 100.424 148.976 100.536 148.576 100.76C148.192 100.984 148 101.312 148 101.744C148 102.048 148.112 102.312 148.336 102.536C148.56 102.76 148.928 102.928 149.44 103.04L150.856 103.4C152.056 103.672 152.944 104.096 153.52 104.672C154.096 105.232 154.384 105.976 154.384 106.904ZM156.034 108.728C156.034 108.264 156.17 107.88 156.442 107.576C156.73 107.256 157.122 107.096 157.618 107.096C158.114 107.096 158.498 107.256 158.77 107.576C159.058 107.88 159.202 108.264 159.202 108.728C159.202 109.176 159.058 109.56 158.77 109.88C158.498 110.184 158.114 110.336 157.618 110.336C157.122 110.336 156.73 110.184 156.442 109.88C156.17 109.56 156.034 109.176 156.034 108.728ZM170.198 97.544L170.102 95.432H176.366C176.43 95.528 176.494 95.672 176.557 95.864C176.622 96.04 176.654 96.232 176.654 96.44C176.654 96.792 176.566 97.064 176.39 97.256C176.23 97.448 175.998 97.544 175.694 97.544H170.198ZM171.47 95.432L171.542 97.544H165.278C165.198 97.448 165.126 97.312 165.062 97.136C165.014 96.944 164.99 96.744 164.99 96.536C164.99 96.168 165.07 95.896 165.229 95.72C165.406 95.528 165.638 95.432 165.926 95.432H171.47ZM169.502 96.896H172.094V109.952C171.982 110 171.814 110.04 171.59 110.072C171.366 110.12 171.134 110.144 170.894 110.144C170.414 110.144 170.062 110.056 169.838 109.88C169.614 109.688 169.502 109.376 169.502 108.944V96.896ZM178.582 95.312C178.582 94.912 178.726 94.568 179.014 94.28C179.318 93.992 179.686 93.848 180.118 93.848C180.566 93.848 180.926 93.992 181.198 94.28C181.486 94.568 181.63 94.912 181.63 95.312C181.63 95.728 181.486 96.08 181.198 96.368C180.926 96.656 180.566 96.8 180.118 96.8C179.686 96.8 179.318 96.656 179.014 96.368C178.726 96.08 178.582 95.728 178.582 95.312ZM178.846 103.664H181.366V109.952C181.27 110 181.118 110.04 180.91 110.072C180.702 110.12 180.478 110.144 180.238 110.144C179.774 110.144 179.422 110.056 179.182 109.88C178.958 109.704 178.846 109.408 178.846 108.992V103.664ZM181.366 104.936H178.846V98.84C178.958 98.792 179.118 98.752 179.326 98.72C179.55 98.672 179.782 98.648 180.022 98.648C180.486 98.648 180.822 98.736 181.03 98.912C181.254 99.088 181.366 99.392 181.366 99.824V104.936ZM194.301 102.224V104.984H191.781V102.488C191.781 101.784 191.573 101.272 191.157 100.952C190.757 100.616 190.229 100.448 189.573 100.448C189.125 100.448 188.701 100.52 188.301 100.664C187.917 100.808 187.589 100.968 187.317 101.144V104.984H184.797V101.072C184.797 100.72 184.869 100.424 185.013 100.184C185.157 99.944 185.397 99.72 185.733 99.512C186.197 99.208 186.781 98.952 187.485 98.744C188.189 98.536 188.909 98.432 189.645 98.432C190.429 98.432 191.141 98.552 191.781 98.792C192.437 99.032 192.949 99.384 193.317 99.848C193.429 99.944 193.525 100.04 193.605 100.136C193.685 100.216 193.757 100.32 193.821 100.448C193.949 100.656 194.061 100.92 194.157 101.24C194.253 101.544 194.301 101.872 194.301 102.224ZM201.285 102.392V104.984H198.765V102.488C198.765 101.784 198.565 101.272 198.165 100.952C197.765 100.616 197.237 100.448 196.581 100.448C196.101 100.448 195.629 100.552 195.165 100.76C194.717 100.968 194.325 101.248 193.989 101.6L192.813 99.944C193.261 99.528 193.821 99.176 194.493 98.888C195.165 98.584 195.957 98.432 196.869 98.432C197.717 98.432 198.469 98.568 199.125 98.84C199.797 99.112 200.325 99.544 200.709 100.136C201.093 100.712 201.285 101.464 201.285 102.392ZM184.797 103.76H187.317V109.952C187.205 110 187.045 110.04 186.837 110.072C186.629 110.12 186.405 110.144 186.165 110.144C185.701 110.144 185.357 110.056 185.133 109.88C184.909 109.704 184.797 109.408 184.797 108.992V103.76ZM191.781 103.76H194.301V109.952C194.189 110 194.029 110.04 193.821 110.072C193.613 110.12 193.389 110.144 193.149 110.144C192.669 110.144 192.317 110.056 192.093 109.88C191.885 109.704 191.781 109.408 191.781 108.992V103.76ZM198.765 103.76H201.285V109.952C201.173 110 201.013 110.04 200.805 110.072C200.597 110.12 200.373 110.144 200.133 110.144C199.653 110.144 199.301 110.056 199.077 109.88C198.869 109.704 198.765 109.408 198.765 108.992V103.76ZM215.377 104.384C215.377 105.584 215.145 106.632 214.681 107.528C214.217 108.424 213.553 109.12 212.689 109.616C211.841 110.096 210.841 110.336 209.689 110.336C208.553 110.336 207.553 110.096 206.689 109.616C205.825 109.12 205.161 108.432 204.697 107.552C204.233 106.656 204.001 105.6 204.001 104.384C204.001 103.152 204.233 102.096 204.697 101.216C205.177 100.336 205.849 99.656 206.713 99.176C207.577 98.68 208.577 98.432 209.713 98.432C210.833 98.432 211.817 98.68 212.665 99.176C213.529 99.656 214.193 100.344 214.657 101.24C215.137 102.12 215.377 103.168 215.377 104.384ZM209.689 100.448C208.745 100.448 207.993 100.8 207.433 101.504C206.873 102.192 206.593 103.152 206.593 104.384C206.593 105.616 206.865 106.576 207.409 107.264C207.953 107.952 208.713 108.296 209.689 108.296C210.665 108.296 211.425 107.952 211.969 107.264C212.529 106.56 212.809 105.6 212.809 104.384C212.809 103.152 212.529 102.192 211.969 101.504C211.425 100.8 210.665 100.448 209.689 100.448ZM50.8484 130.904C50.8484 131.976 50.4484 132.816 49.6484 133.424C48.8484 134.032 47.6884 134.336 46.1684 134.336C44.9204 134.336 43.8964 134.152 43.0964 133.784C42.2964 133.4 41.8964 132.928 41.8964 132.368C41.8964 132.112 41.9524 131.88 42.0644 131.672C42.1924 131.464 42.3604 131.304 42.5684 131.192C43.0164 131.48 43.5284 131.744 44.1044 131.984C44.6964 132.224 45.3684 132.344 46.1204 132.344C47.5924 132.344 48.3284 131.864 48.3284 130.904C48.3284 130.504 48.2004 130.184 47.9444 129.944C47.7044 129.688 47.3204 129.504 46.7924 129.392L45.1604 128.984C44.0724 128.728 43.2724 128.336 42.7604 127.808C42.2484 127.28 41.9924 126.592 41.9924 125.744C41.9924 124.8 42.3764 124.008 43.1444 123.368C43.9124 122.728 45.0244 122.408 46.4804 122.408C47.2324 122.408 47.8964 122.488 48.4724 122.648C49.0644 122.792 49.5284 123 49.8644 123.272C50.2004 123.544 50.3684 123.856 50.3684 124.208C50.3684 124.464 50.3124 124.688 50.2004 124.88C50.0884 125.072 49.9364 125.216 49.7444 125.312C49.5524 125.2 49.2964 125.072 48.9764 124.928C48.6564 124.784 48.2884 124.664 47.8724 124.568C47.4724 124.472 47.0564 124.424 46.6244 124.424C45.9684 124.424 45.4404 124.536 45.0404 124.76C44.6564 124.984 44.4644 125.312 44.4644 125.744C44.4644 126.048 44.5764 126.312 44.8004 126.536C45.0244 126.76 45.3924 126.928 45.9044 127.04L47.3204 127.4C48.5204 127.672 49.4084 128.096 49.9844 128.672C50.5604 129.232 50.8484 129.976 50.8484 130.904ZM53.3435 119.312C53.3435 118.912 53.4875 118.568 53.7755 118.28C54.0795 117.992 54.4475 117.848 54.8795 117.848C55.3275 117.848 55.6875 117.992 55.9595 118.28C56.2475 118.568 56.3915 118.912 56.3915 119.312C56.3915 119.728 56.2475 120.08 55.9595 120.368C55.6875 120.656 55.3275 120.8 54.8795 120.8C54.4475 120.8 54.0795 120.656 53.7755 120.368C53.4875 120.08 53.3435 119.728 53.3435 119.312ZM53.6075 127.664H56.1275V133.952C56.0315 134 55.8795 134.04 55.6715 134.072C55.4635 134.12 55.2395 134.144 54.9995 134.144C54.5355 134.144 54.1835 134.056 53.9435 133.88C53.7195 133.704 53.6075 133.408 53.6075 132.992V127.664ZM56.1275 128.936H53.6075V122.84C53.7195 122.792 53.8795 122.752 54.0875 122.72C54.3115 122.672 54.5435 122.648 54.7835 122.648C55.2475 122.648 55.5835 122.736 55.7915 122.912C56.0155 123.088 56.1275 123.392 56.1275 123.824V128.936ZM63.8063 134.36C62.2543 134.36 61.0383 134.056 60.1583 133.448C59.2783 132.84 58.8383 131.944 58.8383 130.76C58.8383 129.704 59.1823 128.896 59.8703 128.336C60.5583 127.776 61.5343 127.432 62.7983 127.304L66.1343 126.968V126.44C66.1343 125.736 65.9023 125.224 65.4383 124.904C64.9743 124.584 64.3423 124.424 63.5423 124.424C62.9023 124.424 62.2863 124.512 61.6943 124.688C61.1023 124.864 60.5743 125.064 60.1103 125.288C59.9503 125.16 59.8143 125 59.7023 124.808C59.5903 124.616 59.5343 124.416 59.5343 124.208C59.5343 123.696 59.8143 123.312 60.3743 123.056C60.8223 122.848 61.3343 122.696 61.9103 122.6C62.5023 122.488 63.1103 122.432 63.7343 122.432C65.2223 122.432 66.4063 122.76 67.2863 123.416C68.1663 124.056 68.6063 125.072 68.6063 126.464V132.056C68.6063 132.424 68.5263 132.712 68.3663 132.92C68.2063 133.128 67.9823 133.312 67.6943 133.472C67.2623 133.712 66.7103 133.92 66.0383 134.096C65.3823 134.272 64.6383 134.36 63.8063 134.36ZM63.8063 132.368C64.3663 132.368 64.8463 132.312 65.2463 132.2C65.6623 132.088 65.9583 131.976 66.1343 131.864V128.816L63.5183 129.08C62.7823 129.128 62.2303 129.288 61.8623 129.56C61.4943 129.816 61.3103 130.2 61.3103 130.712C61.3103 131.224 61.5103 131.632 61.9103 131.936C62.3263 132.224 62.9583 132.368 63.8063 132.368ZM76.9276 134.336C76.2716 134.336 75.6636 134.24 75.1036 134.048C74.5436 133.872 74.1116 133.672 73.8076 133.448V131.216C74.1116 131.488 74.4876 131.736 74.9356 131.96C75.3996 132.184 75.9356 132.296 76.5436 132.296C77.5836 132.296 78.4076 131.976 79.0156 131.336C79.6236 130.696 79.9276 129.696 79.9276 128.336C79.9276 127.392 79.7756 126.64 79.4716 126.08C79.1836 125.504 78.7836 125.088 78.2716 124.832C77.7756 124.576 77.2156 124.448 76.5916 124.448C76.0956 124.448 75.6636 124.512 75.2956 124.64C74.9436 124.768 74.6236 124.912 74.3356 125.072V132.8H71.8396V124.904C71.8396 124.552 71.9036 124.272 72.0316 124.064C72.1596 123.84 72.3996 123.624 72.7516 123.416C73.1996 123.16 73.7436 122.936 74.3836 122.744C75.0396 122.536 75.7756 122.432 76.5916 122.432C77.7116 122.432 78.7196 122.64 79.6156 123.056C80.5116 123.456 81.2156 124.096 81.7276 124.976C82.2396 125.84 82.4956 126.96 82.4956 128.336C82.4956 129.664 82.2556 130.776 81.7756 131.672C81.2956 132.552 80.6316 133.216 79.7836 133.664C78.9516 134.112 77.9996 134.336 76.9276 134.336ZM73.2076 138.488C72.7436 138.488 72.3996 138.4 72.1756 138.224C71.9516 138.048 71.8396 137.744 71.8396 137.312V132.032L74.3596 132.056V138.296C74.2476 138.344 74.0876 138.384 73.8796 138.416C73.6716 138.464 73.4476 138.488 73.2076 138.488ZM99.5077 126.224V128.984H96.9877V126.488C96.9877 125.784 96.7797 125.272 96.3637 124.952C95.9637 124.616 95.4357 124.448 94.7797 124.448C94.3317 124.448 93.9077 124.52 93.5077 124.664C93.1237 124.808 92.7957 124.968 92.5237 125.144V128.984H90.0037V125.072C90.0037 124.72 90.0757 124.424 90.2197 124.184C90.3637 123.944 90.6037 123.72 90.9397 123.512C91.4037 123.208 91.9877 122.952 92.6917 122.744C93.3957 122.536 94.1157 122.432 94.8517 122.432C95.6357 122.432 96.3477 122.552 96.9877 122.792C97.6437 123.032 98.1557 123.384 98.5237 123.848C98.6357 123.944 98.7317 124.04 98.8117 124.136C98.8917 124.216 98.9637 124.32 99.0277 124.448C99.1557 124.656 99.2677 124.92 99.3637 125.24C99.4597 125.544 99.5077 125.872 99.5077 126.224ZM106.492 126.392V128.984H103.972V126.488C103.972 125.784 103.772 125.272 103.372 124.952C102.972 124.616 102.444 124.448 101.788 124.448C101.308 124.448 100.836 124.552 100.372 124.76C99.9237 124.968 99.5317 125.248 99.1957 125.6L98.0197 123.944C98.4677 123.528 99.0277 123.176 99.6997 122.888C100.372 122.584 101.164 122.432 102.076 122.432C102.924 122.432 103.676 122.568 104.332 122.84C105.004 123.112 105.532 123.544 105.916 124.136C106.3 124.712 106.492 125.464 106.492 126.392ZM90.0037 127.76H92.5237V133.952C92.4117 134 92.2517 134.04 92.0437 134.072C91.8357 134.12 91.6117 134.144 91.3717 134.144C90.9077 134.144 90.5637 134.056 90.3397 133.88C90.1157 133.704 90.0037 133.408 90.0037 132.992V127.76ZM96.9877 127.76H99.5077V133.952C99.3957 134 99.2357 134.04 99.0277 134.072C98.8197 134.12 98.5957 134.144 98.3557 134.144C97.8757 134.144 97.5237 134.056 97.2997 133.88C97.0917 133.704 96.9877 133.408 96.9877 132.992V127.76ZM103.972 127.76H106.492V133.952C106.38 134 106.22 134.04 106.012 134.072C105.804 134.12 105.58 134.144 105.34 134.144C104.86 134.144 104.508 134.056 104.284 133.88C104.076 133.704 103.972 133.408 103.972 132.992V127.76ZM110.84 129.776L110.744 127.928L117.512 126.968C117.464 126.248 117.2 125.64 116.72 125.144C116.24 124.632 115.576 124.376 114.728 124.376C113.832 124.376 113.088 124.696 112.496 125.336C111.92 125.96 111.624 126.856 111.608 128.024L111.656 128.96C111.784 130.096 112.184 130.944 112.856 131.504C113.544 132.064 114.44 132.344 115.544 132.344C116.216 132.344 116.832 132.24 117.392 132.032C117.952 131.808 118.4 131.576 118.736 131.336C118.944 131.464 119.104 131.624 119.216 131.816C119.344 132.008 119.408 132.216 119.408 132.44C119.408 132.808 119.232 133.136 118.88 133.424C118.528 133.712 118.048 133.936 117.44 134.096C116.832 134.256 116.152 134.336 115.4 134.336C114.168 134.336 113.08 134.112 112.136 133.664C111.208 133.2 110.488 132.52 109.976 131.624C109.464 130.712 109.208 129.6 109.208 128.288C109.208 127.328 109.352 126.488 109.64 125.768C109.928 125.032 110.32 124.424 110.816 123.944C111.312 123.448 111.896 123.072 112.568 122.816C113.24 122.56 113.96 122.432 114.728 122.432C115.752 122.432 116.648 122.648 117.416 123.08C118.2 123.496 118.808 124.08 119.24 124.832C119.672 125.568 119.888 126.424 119.888 127.4C119.888 127.8 119.784 128.096 119.576 128.288C119.384 128.48 119.112 128.6 118.76 128.648L110.84 129.776ZM131.969 126.224V128.984H129.449V126.488C129.449 125.784 129.241 125.272 128.825 124.952C128.425 124.616 127.897 124.448 127.241 124.448C126.793 124.448 126.369 124.52 125.969 124.664C125.585 124.808 125.257 124.968 124.985 125.144V128.984H122.465V125.072C122.465 124.72 122.537 124.424 122.681 124.184C122.825 123.944 123.065 123.72 123.401 123.512C123.865 123.208 124.449 122.952 125.153 122.744C125.857 122.536 126.577 122.432 127.313 122.432C128.097 122.432 128.809 122.552 129.449 122.792C130.105 123.032 130.617 123.384 130.985 123.848C131.097 123.944 131.193 124.04 131.273 124.136C131.353 124.216 131.425 124.32 131.489 124.448C131.617 124.656 131.729 124.92 131.825 125.24C131.921 125.544 131.969 125.872 131.969 126.224ZM138.953 126.392V128.984H136.433V126.488C136.433 125.784 136.233 125.272 135.833 124.952C135.433 124.616 134.905 124.448 134.249 124.448C133.769 124.448 133.297 124.552 132.833 124.76C132.385 124.968 131.993 125.248 131.657 125.6L130.481 123.944C130.929 123.528 131.489 123.176 132.161 122.888C132.833 122.584 133.625 122.432 134.537 122.432C135.385 122.432 136.137 122.568 136.793 122.84C137.465 123.112 137.993 123.544 138.377 124.136C138.761 124.712 138.953 125.464 138.953 126.392ZM122.465 127.76H124.985V133.952C124.873 134 124.713 134.04 124.505 134.072C124.297 134.12 124.073 134.144 123.833 134.144C123.369 134.144 123.025 134.056 122.801 133.88C122.577 133.704 122.465 133.408 122.465 132.992V127.76ZM129.449 127.76H131.969V133.952C131.857 134 131.697 134.04 131.489 134.072C131.281 134.12 131.057 134.144 130.817 134.144C130.337 134.144 129.985 134.056 129.761 133.88C129.553 133.704 129.449 133.408 129.449 132.992V127.76ZM136.433 127.76H138.953V133.952C138.841 134 138.681 134.04 138.473 134.072C138.265 134.12 138.041 134.144 137.801 134.144C137.321 134.144 136.969 134.056 136.745 133.88C136.537 133.704 136.433 133.408 136.433 132.992V127.76ZM147.621 122.432C148.645 122.432 149.557 122.648 150.357 123.08C151.173 123.512 151.813 124.168 152.277 125.048C152.757 125.928 152.997 127.032 152.997 128.36C152.997 129.704 152.749 130.816 152.253 131.696C151.773 132.576 151.093 133.24 150.213 133.688C149.349 134.12 148.333 134.336 147.165 134.336C146.301 134.336 145.533 134.232 144.861 134.024C144.205 133.816 143.669 133.576 143.253 133.304C142.917 133.08 142.677 132.856 142.533 132.632C142.389 132.408 142.317 132.112 142.317 131.744V123.896H144.813V131.648C145.037 131.808 145.349 131.96 145.749 132.104C146.165 132.232 146.629 132.296 147.141 132.296C148.133 132.296 148.925 131.976 149.517 131.336C150.125 130.696 150.429 129.704 150.429 128.36C150.429 127 150.125 126.008 149.517 125.384C148.925 124.76 148.157 124.448 147.213 124.448C146.621 124.448 146.093 124.568 145.629 124.808C145.165 125.032 144.781 125.288 144.477 125.576L144.213 123.536C144.565 123.28 145.029 123.032 145.605 122.792C146.181 122.552 146.853 122.432 147.621 122.432ZM144.837 124.448H142.317V118.424C142.413 118.392 142.565 118.352 142.773 118.304C142.997 118.256 143.229 118.232 143.469 118.232C143.933 118.232 144.277 118.32 144.501 118.496C144.725 118.672 144.837 118.976 144.837 119.408V124.448ZM159.994 134.36C158.442 134.36 157.226 134.056 156.346 133.448C155.466 132.84 155.026 131.944 155.026 130.76C155.026 129.704 155.37 128.896 156.058 128.336C156.746 127.776 157.722 127.432 158.986 127.304L162.322 126.968V126.44C162.322 125.736 162.09 125.224 161.626 124.904C161.162 124.584 160.53 124.424 159.73 124.424C159.09 124.424 158.474 124.512 157.882 124.688C157.29 124.864 156.762 125.064 156.298 125.288C156.138 125.16 156.002 125 155.89 124.808C155.778 124.616 155.722 124.416 155.722 124.208C155.722 123.696 156.002 123.312 156.562 123.056C157.01 122.848 157.522 122.696 158.098 122.6C158.69 122.488 159.298 122.432 159.922 122.432C161.41 122.432 162.594 122.76 163.474 123.416C164.354 124.056 164.794 125.072 164.794 126.464V132.056C164.794 132.424 164.714 132.712 164.554 132.92C164.394 133.128 164.17 133.312 163.882 133.472C163.45 133.712 162.898 133.92 162.226 134.096C161.57 134.272 160.826 134.36 159.994 134.36ZM159.994 132.368C160.554 132.368 161.034 132.312 161.434 132.2C161.85 132.088 162.146 131.976 162.322 131.864V128.816L159.706 129.08C158.97 129.128 158.418 129.288 158.05 129.56C157.682 129.816 157.498 130.2 157.498 130.712C157.498 131.224 157.698 131.632 158.098 131.936C158.514 132.224 159.146 132.368 159.994 132.368ZM178.131 126.632V129.008H175.611V126.728C175.611 125.944 175.387 125.368 174.939 125C174.491 124.632 173.899 124.448 173.163 124.448C172.619 124.448 172.123 124.52 171.675 124.664C171.243 124.808 170.867 124.968 170.547 125.144V129.008H168.027V125.072C168.027 124.704 168.099 124.408 168.243 124.184C168.387 123.944 168.627 123.72 168.963 123.512C169.411 123.224 169.995 122.976 170.715 122.768C171.451 122.544 172.267 122.432 173.163 122.432C174.731 122.432 175.947 122.784 176.811 123.488C177.691 124.176 178.131 125.224 178.131 126.632ZM168.027 127.76H170.547V133.952C170.435 134 170.275 134.04 170.067 134.072C169.859 134.12 169.635 134.144 169.395 134.144C168.931 134.144 168.587 134.056 168.363 133.88C168.139 133.704 168.027 133.408 168.027 132.992V127.76ZM175.611 127.76H178.131V133.952C178.035 134 177.875 134.04 177.651 134.072C177.443 134.12 177.219 134.144 176.979 134.144C176.515 134.144 176.171 134.056 175.947 133.88C175.723 133.704 175.611 133.408 175.611 132.992V127.76ZM181.457 127.664H183.953V130.712C183.953 131.272 184.121 131.68 184.457 131.936C184.809 132.176 185.281 132.296 185.873 132.296C186.129 132.296 186.417 132.256 186.737 132.176C187.057 132.08 187.321 131.984 187.529 131.888C187.641 132 187.737 132.144 187.817 132.32C187.913 132.48 187.961 132.664 187.961 132.872C187.961 133.304 187.745 133.656 187.313 133.928C186.881 134.2 186.241 134.336 185.393 134.336C184.193 134.336 183.233 134.072 182.513 133.544C181.809 133 181.457 132.104 181.457 130.856V127.664ZM182.897 125V123.008H187.673C187.737 123.088 187.793 123.224 187.841 123.416C187.905 123.592 187.937 123.784 187.937 123.992C187.937 124.328 187.857 124.584 187.697 124.76C187.537 124.92 187.321 125 187.049 125H182.897ZM183.953 128.336H181.457V119.672C181.569 119.64 181.729 119.6 181.937 119.552C182.145 119.504 182.369 119.48 182.609 119.48C183.073 119.48 183.409 119.568 183.617 119.744C183.841 119.92 183.953 120.224 183.953 120.656V128.336ZM190.433 129.776V127.76H192.953V129.704C192.953 130.632 193.193 131.296 193.673 131.696C194.153 132.096 194.825 132.296 195.689 132.296C196.249 132.296 196.721 132.24 197.105 132.128C197.505 132.016 197.809 131.896 198.017 131.768V127.76H200.537V131.888C200.537 132.24 200.481 132.528 200.369 132.752C200.273 132.976 200.057 133.192 199.721 133.4C199.305 133.64 198.753 133.856 198.065 134.048C197.377 134.24 196.577 134.336 195.665 134.336C194.577 134.336 193.641 134.176 192.857 133.856C192.073 133.536 191.473 133.04 191.057 132.368C190.641 131.696 190.433 130.832 190.433 129.776ZM200.537 128.96H198.017V122.792C198.129 122.76 198.289 122.728 198.497 122.696C198.705 122.648 198.929 122.624 199.169 122.624C199.649 122.624 199.993 122.712 200.201 122.888C200.425 123.048 200.537 123.352 200.537 123.8V128.96ZM192.953 128.96H190.433V122.792C190.529 122.76 190.681 122.728 190.889 122.696C191.113 122.648 191.345 122.624 191.585 122.624C192.049 122.624 192.393 122.712 192.617 122.888C192.841 123.048 192.953 123.352 192.953 123.8V128.96Z" fill="white"/>
</svg>
