<svg width="371" height="304" viewBox="0 0 371 304" fill="none" xmlns="http://www.w3.org/2000/svg">
<rect width="371" height="304" rx="36" fill="#F3F3F3"/>
<path d="M225.275 95H146.287C141.702 95 137.305 96.8213 134.063 100.063C130.821 103.305 129 107.702 129 112.287V191.275C129 195.859 130.821 200.256 134.063 203.498C137.305 206.74 141.702 208.561 146.287 208.561H225.275C229.859 208.561 234.256 206.74 237.498 203.498C240.74 200.256 242.561 195.859 242.561 191.275V112.287C242.561 107.702 240.74 103.305 237.498 100.063C234.256 96.8213 229.859 95 225.275 95V95ZM154.236 145.472H141.618V132.854H154.236V145.472ZM141.618 158.09H154.236V170.707H141.618V158.09ZM229.943 145.472H217.325V132.854H229.943V145.472ZM217.325 158.09H229.943V170.707H217.325V158.09ZM229.943 112.287V120.236H217.325V107.618H225.275C225.888 107.618 226.495 107.739 227.061 107.973C227.628 108.208 228.142 108.552 228.576 108.985C229.009 109.419 229.353 109.934 229.588 110.5C229.823 111.066 229.943 111.673 229.943 112.287V112.287ZM146.287 107.618H154.236V120.236H141.618V112.287C141.618 111.673 141.739 111.066 141.973 110.5C142.208 109.934 142.552 109.419 142.985 108.985C143.419 108.552 143.934 108.208 144.5 107.973C145.066 107.739 145.673 107.618 146.287 107.618ZM141.618 191.275V183.325H154.236V195.943H146.287C145.048 195.943 143.861 195.451 142.985 194.576C142.11 193.7 141.618 192.513 141.618 191.275V191.275ZM229.943 191.275C229.943 192.513 229.451 193.7 228.576 194.576C227.7 195.451 226.513 195.943 225.275 195.943H217.325V183.325H229.943V191.275Z" fill="#8C8C8C"/>
</svg>
