<svg width="100" height="117" viewBox="0 0 100 117" fill="none" xmlns="http://www.w3.org/2000/svg">
<path d="M40.2348 81.4696C62.1798 81.4696 79.9696 63.6798 79.9696 41.7348C79.9696 19.7899 62.1798 2 40.2348 2C18.2899 2 0.5 19.7899 0.5 41.7348C0.5 63.6798 18.2899 81.4696 40.2348 81.4696Z" fill="#E5EFEF"/>
<path d="M94.836 64.9904C95.9271 64.9904 96.8117 64.1058 96.8117 63.0147C96.8117 61.9236 95.9271 61.0391 94.836 61.0391C93.7449 61.0391 92.8604 61.9236 92.8604 63.0147C92.8604 64.1058 93.7449 64.9904 94.836 64.9904Z" fill="#4C241D"/>
<path d="M91.9825 92.558C94.5342 92.558 96.6028 90.4894 96.6028 87.9377C96.6028 85.386 94.5342 83.3174 91.9825 83.3174C89.4308 83.3174 87.3622 85.386 87.3622 87.9377C87.3622 90.4894 89.4308 92.558 91.9825 92.558Z" stroke="#4C241D" stroke-width="3.87267" stroke-linecap="round" stroke-linejoin="round"/>
<path d="M9.7406 79.6221L15.285 85.1665" stroke="#4C241D" stroke-width="3.87267" stroke-linecap="round" stroke-linejoin="round"/>
<path d="M15.285 79.6221L9.7406 85.1665" stroke="#4C241D" stroke-width="3.87267" stroke-linecap="round" stroke-linejoin="round"/>
<path d="M68.2826 20.416C71.9773 21.7294 74.999 24.4567 76.6829 27.998C78.3668 31.5393 78.5749 35.6044 77.2615 39.2992L73.5474 49.7475" stroke="#4C241D" stroke-width="3.87267" stroke-linecap="round" stroke-linejoin="round"/>
<path d="M62.0902 37.8369C65.785 39.1503 68.8066 41.8776 70.4905 45.4189C72.1744 48.9602 72.3825 53.0253 71.0691 56.7201L67.355 67.1684" stroke="#4C241D" stroke-width="3.87267" stroke-linecap="round" stroke-linejoin="round"/>
<path d="M73.5453 49.752L77.2594 39.3037C78.5728 35.6089 81.3001 32.5873 84.8414 30.9034C88.3827 29.2195 92.4478 29.0114 96.1425 30.3248L92.4284 40.7731C91.1151 44.4678 88.3877 47.4895 84.8465 49.1733C81.3052 50.8572 77.24 51.0654 73.5453 49.752Z" fill="#FFEC95" stroke="#4C241D" stroke-width="3.87267" stroke-linecap="round" stroke-linejoin="round"/>
<path d="M67.3564 67.168L71.0705 56.7197C72.3839 53.025 75.1112 50.0033 78.6525 48.3194C82.1938 46.6355 86.259 46.4274 89.9537 47.7408L86.2396 58.1891C84.9262 61.8838 82.1989 64.9055 78.6576 66.5894C75.1163 68.2732 71.0512 68.4814 67.3564 67.168Z" fill="#FFEC95" stroke="#4C241D" stroke-width="3.87267" stroke-linecap="round" stroke-linejoin="round"/>
<path d="M85.307 16.666L56.2137 98.5105" stroke="#4C241D" stroke-width="3.87267" stroke-linecap="round" stroke-linejoin="round"/>
<path d="M98 25.1016L96.1426 30.3262" stroke="#4C241D" stroke-width="3.87267" stroke-linecap="round" stroke-linejoin="round"/>
<path d="M38.1776 49.7674L34.4628 39.3218C33.1492 35.628 33.3568 31.5636 35.0398 28.0229C36.7229 24.4821 39.7436 21.7549 43.4374 20.4413L47.1521 30.8869C48.4657 34.5807 48.2582 38.6451 46.5751 42.1859C44.8921 45.7267 41.8714 48.4538 38.1776 49.7674Z" fill="#FFEC95" stroke="#4C241D" stroke-width="3.87187" stroke-linecap="round" stroke-linejoin="round"/>
<path d="M44.3629 67.1796L40.6481 56.7339C39.3345 53.0401 39.5421 48.9758 41.2251 45.435C42.9082 41.8942 45.9289 39.167 49.6227 37.8534L53.3374 48.299C54.651 51.9929 54.4435 56.0572 52.7604 59.598C51.0774 63.1388 48.0567 65.8659 44.3629 67.1796Z" fill="#FFEC95" stroke="#4C241D" stroke-width="3.87187" stroke-linecap="round" stroke-linejoin="round"/>
<path d="M15.5627 30.3271C19.2575 29.0138 23.3226 29.2219 26.8639 30.9058C30.4052 32.5896 33.1325 35.6113 34.4459 39.3061L38.16 49.7543" stroke="#4C241D" stroke-width="3.87267" stroke-linecap="round" stroke-linejoin="round"/>
<path d="M21.7499 47.7266C25.4437 46.4129 29.508 46.6205 33.0488 48.3035C36.5896 49.9866 39.3168 53.0073 40.6304 56.7011L44.3451 67.1467" stroke="#4C241D" stroke-width="3.87187" stroke-linecap="round" stroke-linejoin="round"/>
<path d="M26.3998 16.666L55.4931 98.5105" stroke="#4C241D" stroke-width="3.87267" stroke-linecap="round" stroke-linejoin="round"/>
<path d="M13.7068 25.1016L15.5642 30.3262" stroke="#4C241D" stroke-width="3.87267" stroke-linecap="round" stroke-linejoin="round"/>
<path d="M41.1589 11.2402C45.0802 11.2402 48.8408 12.7979 51.6135 15.5707C54.3863 18.3434 55.944 22.104 55.944 26.0253V37.1141" stroke="#4C241D" stroke-width="3.87267" stroke-linecap="round" stroke-linejoin="round"/>
<path d="M41.1589 29.7217C45.0802 29.7217 48.8408 31.2794 51.6135 34.0521C54.3863 36.8249 55.944 40.5855 55.944 44.5067V55.5955" stroke="#4C241D" stroke-width="3.87267" stroke-linecap="round" stroke-linejoin="round"/>
<path d="M55.944 37.1143V26.0255C55.944 22.1042 57.5017 18.3436 60.2744 15.5709C63.0471 12.7981 66.8078 11.2404 70.729 11.2404V22.3292C70.729 26.2504 69.1713 30.0111 66.3986 32.7838C63.6258 35.5566 59.8652 37.1143 55.944 37.1143Z" fill="#FFEC95" stroke="#4C241D" stroke-width="3.87267" stroke-linecap="round" stroke-linejoin="round"/>
<path d="M55.944 55.5957V44.5069C55.944 40.5857 57.5017 36.825 60.2744 34.0523C63.0471 31.2796 66.8078 29.7219 70.729 29.7219V40.8107C70.729 44.7319 69.1713 48.4925 66.3986 51.2653C63.6258 54.038 59.8652 55.5957 55.944 55.5957Z" fill="#FFEC95" stroke="#4C241D" stroke-width="3.87267" stroke-linecap="round" stroke-linejoin="round"/>
<path d="M55.944 2V114.736" stroke="#4C241D" stroke-width="3.87267" stroke-linecap="round" stroke-linejoin="round"/>
<path d="M70.729 5.69629V11.2407" stroke="#4C241D" stroke-width="3.87267" stroke-linecap="round" stroke-linejoin="round"/>
<path d="M41.1589 5.69629V11.2407" stroke="#4C241D" stroke-width="3.87267" stroke-linecap="round" stroke-linejoin="round"/>
<path d="M62.4124 90.7109H49.4754C47.9444 90.7109 46.7032 91.9521 46.7032 93.4831C46.7032 95.0142 47.9444 96.2553 49.4754 96.2553H62.4124C63.9434 96.2553 65.1846 95.0142 65.1846 93.4831C65.1846 91.9521 63.9434 90.7109 62.4124 90.7109Z" fill="#BF7E68" stroke="#4C241D" stroke-width="3.87267" stroke-linecap="round" stroke-linejoin="round"/>
<path d="M62.4124 96.2549H49.4754C47.9444 96.2549 46.7032 97.496 46.7032 99.0271C46.7032 100.558 47.9444 101.799 49.4754 101.799H62.4124C63.9434 101.799 65.1846 100.558 65.1846 99.0271C65.1846 97.496 63.9434 96.2549 62.4124 96.2549Z" fill="#BF7E68" stroke="#4C241D" stroke-width="3.87267" stroke-linecap="round" stroke-linejoin="round"/>
<path d="M62.4124 101.8H49.4754C47.9444 101.8 46.7032 103.041 46.7032 104.572C46.7032 106.103 47.9444 107.344 49.4754 107.344H62.4124C63.9434 107.344 65.1846 106.103 65.1846 104.572C65.1846 103.041 63.9434 101.8 62.4124 101.8Z" fill="#BF7E68" stroke="#4C241D" stroke-width="3.87267" stroke-linecap="round" stroke-linejoin="round"/>
<path d="M61.4883 107.344V111.04" stroke="#4C241D" stroke-width="3.87267" stroke-linecap="round" stroke-linejoin="round"/>
<path d="M50.3995 107.344V111.04" stroke="#4C241D" stroke-width="3.87267" stroke-linecap="round" stroke-linejoin="round"/>
</svg>
