<svg width="138" height="115" viewBox="0 0 138 115" fill="none" xmlns="http://www.w3.org/2000/svg">
<path d="M1.93835 33.9912H5.70093" stroke="#4C241D" stroke-width="3.76258" stroke-linecap="round" stroke-linejoin="round"/>
<path d="M62.3239 105.471C86.2211 105.471 105.594 86.0984 105.594 62.2013C105.594 38.3041 86.2211 18.9316 62.3239 18.9316C38.4268 18.9316 19.0543 38.3041 19.0543 62.2013C19.0543 86.0984 38.4268 105.471 62.3239 105.471Z" fill="#E5EFEF"/>
<path d="M9.4635 26.4658V30.2284" stroke="#4C241D" stroke-width="3.76258" stroke-linecap="round" stroke-linejoin="round"/>
<path d="M9.4635 37.7539V41.5165" stroke="#4C241D" stroke-width="3.76258" stroke-linecap="round" stroke-linejoin="round"/>
<path d="M13.2261 33.9912H16.9887" stroke="#4C241D" stroke-width="3.76258" stroke-linecap="round" stroke-linejoin="round"/>
<path d="M24.6681 14.5525C25.7788 14.5525 26.6792 13.6521 26.6792 12.5414C26.6792 11.4307 25.7788 10.5303 24.6681 10.5303C23.5574 10.5303 22.657 11.4307 22.657 12.5414C22.657 13.6521 23.5574 14.5525 24.6681 14.5525Z" fill="#4C241D"/>
<path d="M47.6047 52.6475C47.6047 52.6475 43.2063 35.7159 37.854 34.1827C32.5018 32.6494 25.0613 40.3514 25.7404 44.0256C26.4195 47.6997 42.9335 54.779 42.9335 54.779L47.6047 52.6475Z" stroke="#4C241D" stroke-width="3.76258" stroke-linecap="round" stroke-linejoin="round"/>
<path d="M47.0139 53.3863C47.0139 53.3863 49.437 43.1577 52.6352 42.1606C55.8334 41.1635 60.4049 45.7012 60.0437 47.9192C59.6825 50.1373 49.8509 54.6072 49.8509 54.6072L47.0139 53.3863Z" stroke="#4C241D" stroke-width="3.76258" stroke-linecap="round" stroke-linejoin="round"/>
<path d="M17.0037 54.5771H77.3742V107.959C77.3742 109.295 76.8434 110.576 75.8986 111.521C74.9537 112.466 73.6723 112.997 72.3361 112.997H22.0418C21.3801 112.997 20.725 112.866 20.1138 112.613C19.5025 112.36 18.9471 111.989 18.4793 111.521C18.0115 111.053 17.6404 110.498 17.3872 109.887C17.134 109.275 17.0037 108.62 17.0037 107.959V54.5771Z" fill="#F96E43" stroke="#4C241D" stroke-width="3.76258" stroke-linecap="round" stroke-linejoin="round"/>
<path d="M22.5027 52.7949H72.0445C74.4559 52.7949 76.7686 53.7529 78.4737 55.458C80.1788 57.1631 81.1368 59.4758 81.1368 61.8872V69.7886H13.4104V61.8872C13.4104 59.4758 14.3683 57.1631 16.0735 55.458C17.7786 53.7529 20.0912 52.7949 22.5027 52.7949Z" fill="#E66353" stroke="#4C241D" stroke-width="3.76258" stroke-linecap="round" stroke-linejoin="round"/>
<path d="M41.6298 52.7949H52.9175V112.996H41.6298V52.7949Z" fill="#77A052" stroke="#4C241D" stroke-width="3.76258" stroke-linecap="round" stroke-linejoin="round"/>
<path d="M41.6298 52.7949H52.9175V69.7265H41.6298V52.7949Z" fill="#77A052" stroke="#4C241D" stroke-width="3.76258" stroke-linecap="round" stroke-linejoin="round"/>
<path d="M107.475 2H73.6116C73.6116 3.99579 72.8187 5.90985 71.4075 7.32108C69.9963 8.73232 68.0822 9.52515 66.0864 9.52515V54.6761C68.0822 54.6761 69.9963 55.4689 71.4075 56.8801C72.8187 58.2914 73.6116 60.2054 73.6116 62.2012H107.475C107.475 60.2054 108.268 58.2914 109.679 56.8801C111.09 55.4689 113.004 54.6761 115 54.6761V9.52515C113.004 9.52515 111.09 8.73232 109.679 7.32108C108.268 5.90985 107.475 3.99579 107.475 2Z" fill="#FFCE56" stroke="#4C241D" stroke-width="3.76258" stroke-linecap="round" stroke-linejoin="round"/>
<path d="M84.967 35.0691C82.8122 31.4762 81.9025 27.2731 82.3786 23.1107C82.8548 18.9484 84.6903 15.0593 87.6008 12.0459C84.7931 12.8487 82.2077 14.2866 80.0445 16.2484C77.8814 18.2102 76.1986 20.6434 75.1262 23.3596C74.0538 26.0758 73.6206 29.0023 73.8602 31.9127C74.0997 34.8231 75.0056 37.6394 76.5076 40.1437C78.0097 42.648 80.0677 44.7733 82.5225 46.355C84.9772 47.9367 87.763 48.9326 90.6642 49.2655C93.5654 49.5984 96.5043 49.2595 99.2536 48.2749C102.003 47.2904 104.489 45.6866 106.519 43.5876C102.49 44.7364 98.1944 44.5243 94.298 42.9843C90.4016 41.4442 87.1219 38.6621 84.967 35.0691Z" fill="#FC8C29" stroke="#4C241D" stroke-width="3.76258" stroke-linecap="round" stroke-linejoin="round"/>
<path d="M94.5203 12.2548L97.8822 13.9686C97.9625 14.0093 98.0535 14.0235 98.1424 14.0093C98.2312 13.9951 98.3133 13.9532 98.377 13.8896L101.045 11.2182C101.109 11.1535 101.192 11.111 101.281 11.0969C101.371 11.0828 101.463 11.098 101.544 11.1401C101.625 11.1822 101.69 11.249 101.729 11.3308C101.769 11.4126 101.782 11.505 101.765 11.5944L101.174 15.3213C101.16 15.4101 101.174 15.5013 101.215 15.5815C101.256 15.6616 101.322 15.7267 101.402 15.7671L104.764 17.481C104.843 17.5219 104.908 17.5869 104.949 17.6667C104.989 17.7465 105.003 17.837 104.989 17.9254C104.975 18.0138 104.934 18.0955 104.871 18.1589C104.808 18.2223 104.726 18.2642 104.638 18.2786L100.911 18.8694C100.822 18.8831 100.74 18.9248 100.676 18.9884C100.613 19.052 100.571 19.1342 100.557 19.2231L99.9666 22.9499C99.9527 23.0388 99.911 23.121 99.8474 23.1846C99.7838 23.2483 99.7017 23.2902 99.6128 23.3042C99.5239 23.3182 99.4329 23.3036 99.3528 23.2626C99.2727 23.2216 99.2077 23.1562 99.1671 23.0759L97.4551 19.7141C97.414 19.6342 97.3488 19.5693 97.2688 19.5285C97.1888 19.4876 97.0981 19.4729 97.0093 19.4864L93.2824 20.0772C93.193 20.0937 93.1006 20.0812 93.0188 20.0414C92.937 20.0015 92.8702 19.9365 92.8281 19.8559C92.786 19.7753 92.7708 19.6833 92.7849 19.5934C92.7989 19.5035 92.8415 19.4205 92.9062 19.3566L95.5738 16.689C95.6372 16.6252 95.6789 16.5431 95.6931 16.4543C95.7073 16.3655 95.6932 16.2745 95.6528 16.1942L93.9484 12.8267C93.9076 12.7467 93.8932 12.6558 93.9072 12.5671C93.9213 12.4784 93.963 12.3964 94.0265 12.3329C94.09 12.2694 94.172 12.2276 94.2607 12.2136C94.3494 12.1996 94.4403 12.214 94.5203 12.2548Z" fill="#4C241D"/>
<path d="M92.4245 112.996H67.9678" stroke="#4C241D" stroke-width="3.76258" stroke-linecap="round" stroke-linejoin="round"/>
<path d="M98.0684 112.996H105.594" stroke="#4C241D" stroke-width="3.76258" stroke-linecap="round" stroke-linejoin="round"/>
</svg>
