<svg width="136" height="113" viewBox="0 0 136 113" fill="none" xmlns="http://www.w3.org/2000/svg">
<path d="M79.7315 87.7868C104.942 87.7868 125.379 68.1351 125.379 43.8934C125.379 19.6517 104.942 0 79.7315 0C54.5214 0 34.0845 19.6517 34.0845 43.8934C34.0845 68.1351 54.5214 87.7868 79.7315 87.7868Z" fill="#E5EFEF"/>
<path d="M63.5131 20.3069C66.8437 25.6075 68.0228 31.9036 66.8244 37.9885C65.626 44.0734 62.1343 49.5189 57.0187 53.2814C51.9031 57.0439 45.5234 58.8586 39.1024 58.3777C32.6814 57.8968 26.6708 55.1542 22.2227 50.6755C17.7746 46.1968 15.2018 40.2971 14.9976 34.1072C14.7934 27.9172 16.972 21.8726 21.116 17.1318C25.2599 12.3909 31.0776 9.28745 37.454 8.41616C43.8304 7.54488 50.3169 8.96708 55.6703 12.4102" fill="#FFCE56"/>
<path d="M63.5131 20.3069C66.8437 25.6075 68.0228 31.9036 66.8244 37.9885C65.626 44.0734 62.1344 49.5189 57.0187 53.2814C51.9031 57.0439 45.5234 58.8586 39.1024 58.3777C32.6814 57.8968 26.6708 55.1542 22.2227 50.6755C17.7746 46.1968 15.2018 40.2971 14.9976 34.1072C14.7934 27.9172 16.972 21.8726 21.116 17.1318C25.2599 12.3909 31.0776 9.28745 37.454 8.41616C43.8304 7.54488 50.3169 8.96708 55.6703 12.4102" stroke="#4C241D" stroke-width="3.64057" stroke-linecap="round" stroke-linejoin="round"/>
<path d="M45.3944 30.4463C43.1652 33.3456 41.4215 36.5626 40.2267 39.9803C40.2267 39.9803 48.9209 38.3471 50.6809 45.1148C50.6809 45.1148 61.2456 40.0354 66.5279 48.5018C66.5279 48.5018 80.6126 43.4224 85.895 53.5812C85.895 53.5812 92.9373 46.8073 101.74 55.2736C101.74 55.2736 102.916 53.0279 108.005 53.4525C108.336 53.4717 108.667 53.425 108.977 53.3154C109.288 53.2058 109.572 53.0357 109.811 52.8156C110.05 52.5956 110.24 52.3304 110.367 52.0367C110.495 51.743 110.558 51.4271 110.553 51.1088C110.562 46.5444 109.635 42.023 107.825 37.8036C106.015 33.5841 103.357 29.7495 100.003 26.5192C96.6496 23.2889 92.6663 20.7265 88.2814 18.9786C83.8964 17.2307 79.196 16.3317 74.4492 16.333H74.3303C68.8963 16.4288 63.5634 17.7631 58.77 20.2263L57.3857 20.9122C52.6819 23.165 48.5792 26.4269 45.3944 30.4463Z" fill="white" stroke="#4C241D" stroke-width="3.64057" stroke-linecap="round" stroke-linejoin="round"/>
<path d="M82.3897 17.1857C81.138 16.9167 79.8722 16.7122 78.5978 16.5732C71.9448 18.8965 65.9524 22.6901 61.1034 27.6482C56.2543 32.6063 52.6843 38.5904 50.6809 45.1182C50.6809 45.1182 61.2455 40.0389 66.5257 48.5052C66.8718 42.5328 68.4531 36.6867 71.177 31.309C73.901 25.9312 77.7128 21.1298 82.3897 17.1857Z" fill="#FC8C29" stroke="#4C241D" stroke-width="3.64057" stroke-linecap="round" stroke-linejoin="round"/>
<path d="M132.714 77.5796C131.056 76.8807 129.241 76.5953 127.438 76.7498C125.635 76.9044 123.901 77.4938 122.398 78.4636C120.509 79.4337 118.401 79.9412 116.26 79.9412C114.119 79.9412 112.01 79.4337 110.122 78.4636C108.367 77.565 106.422 77.0636 104.435 76.9974C102.449 76.9312 100.472 77.3021 98.657 78.0818L95.7441 79.3456C94.0655 80.0673 92.2475 80.4404 90.4087 80.4404C88.5699 80.4404 86.7519 80.0673 85.0733 79.3456L82.1625 78.0818C80.3474 77.3021 78.371 76.9312 76.3842 76.9974C74.3973 77.0636 72.4524 77.565 70.6977 78.4636C68.8091 79.4337 66.7009 79.9412 64.5598 79.9412C62.4186 79.9412 60.3104 79.4337 58.4218 78.4636C56.6671 77.565 54.7222 77.0636 52.7353 76.9974C50.7485 76.9312 48.7722 77.3021 46.957 78.0818L44.0462 79.3456C42.3676 80.0673 40.5496 80.4404 38.7108 80.4404C36.8721 80.4404 35.054 80.0673 33.3754 79.3456L30.4625 78.0818C28.6473 77.3021 26.671 76.9312 24.6842 76.9974C22.6973 77.0636 20.7524 77.565 18.9977 78.4636C17.1091 79.4337 15.0009 79.9412 12.8597 79.9412C10.7186 79.9412 8.61043 79.4337 6.72181 78.4636C5.25746 77.7058 3.65369 77.2295 2 77.0611V104.12H132.714V77.5796Z" fill="#9DC1E4"/>
<path d="M91.6338 20.5123C90.1785 19.7546 88.6703 19.095 87.1201 18.5381C89.1816 25.8877 92.5107 42.1282 85.895 53.5793C85.895 53.5793 92.9374 46.8075 101.742 55.2738C102.739 49.1216 102.353 42.8352 100.61 36.8386C98.8659 30.842 95.8051 25.2748 91.6338 20.5123Z" fill="#FC8C29" stroke="#4C241D" stroke-width="3.64057" stroke-linecap="round" stroke-linejoin="round"/>
<path d="M60.339 105.424L76.5469 48.9971" stroke="#4C241D" stroke-width="3.64057" stroke-linecap="round" stroke-linejoin="round"/>
<path d="M25.1675 110.245H2.23781C2.23781 105.913 4.02729 101.759 7.21258 98.6958C10.3979 95.6328 14.7181 93.9121 19.2227 93.9121H116.886C121.391 93.9121 125.711 95.6328 128.896 98.6958C132.082 101.759 133.871 105.913 133.871 110.245H41.3223" fill="#FFE8DC"/>
<path d="M25.1675 110.245H2.23781C2.23781 105.913 4.02729 101.759 7.21258 98.6958C10.3979 95.6328 14.7181 93.9121 19.2227 93.9121H116.886C121.391 93.9121 125.711 95.6328 128.896 98.6958C132.082 101.759 133.871 105.913 133.871 110.245H41.3223" stroke="#4C241D" stroke-width="3.64057" stroke-linecap="round" stroke-linejoin="round"/>
<path d="M133.871 78.0812C132.056 77.3015 130.08 76.9306 128.093 76.9968C126.106 77.0629 124.161 77.5644 122.406 78.463C120.518 79.433 118.409 79.9405 116.268 79.9405C114.127 79.9405 112.019 79.433 110.13 78.463C108.376 77.5644 106.431 77.0629 104.444 76.9968C102.457 76.9306 100.481 77.3015 98.6655 78.0812L95.7526 79.3449C94.074 80.0667 92.256 80.4398 90.4172 80.4398C88.5785 80.4398 86.7604 80.0667 85.0818 79.3449L82.171 78.0812C80.3559 77.3015 78.3795 76.9306 76.3927 76.9968C74.4058 77.0629 72.4609 77.5644 70.7062 78.463C68.8176 79.433 66.7094 79.9405 64.5683 79.9405C62.4271 79.9405 60.319 79.433 58.4303 78.463C56.6756 77.5644 54.7307 77.0629 52.7439 76.9968C50.757 76.9306 48.7807 77.3015 46.9655 78.0812L44.0547 79.3449C42.3761 80.0667 40.5581 80.4398 38.7193 80.4398C36.8806 80.4398 35.0625 80.0667 33.3839 79.3449L30.471 78.0812C28.6559 77.3015 26.6795 76.9306 24.6927 76.9968C22.7058 77.0629 20.7609 77.5644 19.0062 78.463C17.1176 79.433 15.0094 79.9405 12.8683 79.9405C10.7271 79.9405 8.61894 79.433 6.73033 78.463C5.26597 77.7052 3.6622 77.2288 2.00851 77.0604" stroke="#4C241D" stroke-width="3.64057" stroke-linecap="round" stroke-linejoin="round"/>
</svg>
