<svg width="114" height="115" viewBox="0 0 114 115" fill="none" xmlns="http://www.w3.org/2000/svg">
<path d="M71.6411 83.7947C94.7804 83.7947 113.538 65.0366 113.538 41.8973C113.538 18.7581 94.7804 0 71.6411 0C48.5019 0 29.7438 18.7581 29.7438 41.8973C29.7438 65.0366 48.5019 83.7947 71.6411 83.7947Z" fill="#EAEAEA"/>
<path d="M104.769 24.616C105.987 24.616 106.975 23.6284 106.975 22.41C106.975 21.1917 105.987 20.2041 104.769 20.2041C103.551 20.2041 102.563 21.1917 102.563 22.41C102.563 23.6284 103.551 24.616 104.769 24.616Z" fill="#4C241D"/>
<path d="M86.2563 15.5889H27.7949L23.8975 64.3067H90.1537L86.2563 15.5889Z" fill="#9DC1E4" stroke="#4C241D" stroke-width="3.58432" stroke-linecap="round" stroke-linejoin="round"/>
<path d="M80.153 42.8711H33.8983C33.2762 42.8708 32.6732 43.0862 32.1921 43.4806C31.7109 43.875 31.3815 44.4241 31.2597 45.0342L27.7949 62.3582H86.2563L82.7915 45.0342C82.6698 44.4241 82.3403 43.875 81.8592 43.4806C81.3781 43.0862 80.7751 42.8708 80.153 42.8711Z" fill="#E66353" stroke="#4C241D" stroke-width="3.58432" stroke-linecap="round" stroke-linejoin="round"/>
<path d="M99.4102 62.3585H72.481C72.0091 58.5923 70.1783 55.1279 67.3324 52.6163C64.4865 50.1047 60.8214 48.7188 57.0257 48.7188C53.23 48.7188 49.565 50.1047 46.7191 52.6163C43.8732 55.1279 42.0423 58.5923 41.5705 62.3585H14.6412C13.4785 62.359 12.3635 62.8212 11.5414 63.6433C10.7192 64.4655 10.2571 65.5804 10.2566 66.7431V93.5379H103.795V66.7431C103.794 65.5804 103.332 64.4655 102.51 63.6433C101.688 62.8212 100.573 62.359 99.4102 62.3585Z" fill="#E66353" stroke="#4C241D" stroke-width="3.58432" stroke-linecap="round" stroke-linejoin="round"/>
<path d="M29.7437 72.1014C34.0487 72.1014 37.5386 68.6116 37.5386 64.3066C37.5386 60.0016 34.0487 56.5117 29.7437 56.5117C25.4387 56.5117 21.9489 60.0016 21.9489 64.3066C21.9489 68.6116 25.4387 72.1014 29.7437 72.1014Z" fill="#FFCE56" stroke="#4C241D" stroke-width="3.58432" stroke-linecap="round" stroke-linejoin="round"/>
<path d="M84.3077 72.1014C88.6126 72.1014 92.1025 68.6116 92.1025 64.3066C92.1025 60.0016 88.6126 56.5117 84.3077 56.5117C80.0027 56.5117 76.5128 60.0016 76.5128 64.3066C76.5128 68.6116 80.0027 72.1014 84.3077 72.1014Z" fill="#FFCE56" stroke="#4C241D" stroke-width="3.58432" stroke-linecap="round" stroke-linejoin="round"/>
<path d="M103.795 83.7939V91.5888H10.2565V83.7939H2.46167V93.5375C2.46167 95.088 3.0776 96.575 4.17396 97.6714C5.27033 98.7677 6.75732 99.3837 8.30781 99.3837H105.743C107.294 99.3837 108.781 98.7677 109.877 97.6714C110.974 96.575 111.59 95.088 111.59 93.5375V83.7939H103.795Z" fill="#FFCE56" stroke="#4C241D" stroke-width="3.58432" stroke-linecap="round" stroke-linejoin="round"/>
<path d="M14.1539 99.3838H27.7949V108.12C27.7949 109.421 27.2782 110.668 26.3583 111.588C25.4385 112.508 24.1909 113.025 22.89 113.025H19.0588C17.758 113.025 16.5104 112.508 15.5905 111.588C14.6707 110.668 14.1539 109.421 14.1539 108.12V99.3838Z" fill="#6B4F5B" stroke="#4C241D" stroke-width="3.58432" stroke-linecap="round" stroke-linejoin="round"/>
<path d="M86.2563 99.3838H99.8973V108.12C99.8973 109.421 99.3806 110.668 98.4607 111.588C97.5409 112.508 96.2933 113.025 94.9924 113.025H91.1613C89.8604 113.025 88.6128 112.508 87.693 111.588C86.7731 110.668 86.2563 109.421 86.2563 108.12V99.3838Z" fill="#6B4F5B" stroke="#4C241D" stroke-width="3.58432" stroke-linecap="round" stroke-linejoin="round"/>
<path d="M57.0256 66.2549C59.0929 66.2549 61.0755 67.0761 62.5374 68.5379C63.9992 69.9998 64.8204 71.9824 64.8204 74.0497V91.5882H49.2307V74.0497C49.2307 71.9824 50.052 69.9998 51.5138 68.5379C52.9756 67.0761 54.9582 66.2549 57.0256 66.2549Z" fill="#6B4F5B" stroke="#4C241D" stroke-width="3.58432" stroke-linecap="round" stroke-linejoin="round"/>
<path d="M39.4872 99.3838H74.564V107.179H39.4872V99.3838Z" fill="#BF7E68" stroke="#4C241D" stroke-width="3.58432" stroke-linecap="round" stroke-linejoin="round"/>
<path d="M41.436 95.4862C44.6647 95.4862 47.2821 92.8688 47.2821 89.6401C47.2821 86.4114 44.6647 83.7939 41.436 83.7939C38.2072 83.7939 35.5898 86.4114 35.5898 89.6401C35.5898 92.8688 38.2072 95.4862 41.436 95.4862Z" fill="white" stroke="#4C241D" stroke-width="3.58432" stroke-linecap="round" stroke-linejoin="round"/>
<path d="M72.6153 95.4862C75.844 95.4862 78.4614 92.8688 78.4614 89.6401C78.4614 86.4114 75.844 83.7939 72.6153 83.7939C69.3866 83.7939 66.7692 86.4114 66.7692 89.6401C66.7692 92.8688 69.3866 95.4862 72.6153 95.4862Z" fill="white" stroke="#4C241D" stroke-width="3.58432" stroke-linecap="round" stroke-linejoin="round"/>
<path d="M33.6412 7.79395H80.4103C82.4776 7.79395 84.4603 8.61519 85.9221 10.077C87.3839 11.5388 88.2051 13.5215 88.2051 15.5888H25.8463" stroke="#4C241D" stroke-width="3.58432" stroke-linecap="round" stroke-linejoin="round"/>
<path d="M41.436 21.4346L34.6155 28.2551" stroke="white" stroke-width="3.58432" stroke-linecap="round" stroke-linejoin="round"/>
<path d="M49.2308 21.4346L35.5898 35.0756" stroke="white" stroke-width="3.58432" stroke-linecap="round" stroke-linejoin="round"/>
<path d="M92.1024 60.4096L101.846 50.666" stroke="#4C241D" stroke-width="3.58432" stroke-linecap="round" stroke-linejoin="round"/>
<path d="M105.743 50.6659C107.896 50.6659 109.641 48.921 109.641 46.7685C109.641 44.616 107.896 42.8711 105.743 42.8711C103.591 42.8711 101.846 44.616 101.846 46.7685C101.846 48.921 103.591 50.6659 105.743 50.6659Z" fill="#E66353" stroke="#4C241D" stroke-width="3.58432" stroke-linecap="round" stroke-linejoin="round"/>
<path d="M21.9488 60.4096L12.2052 50.666" stroke="#4C241D" stroke-width="3.58432" stroke-linecap="round" stroke-linejoin="round"/>
<path d="M8.30771 50.6659C10.4602 50.6659 12.2051 48.921 12.2051 46.7685C12.2051 44.616 10.4602 42.8711 8.30771 42.8711C6.15522 42.8711 4.41028 44.616 4.41028 46.7685C4.41028 48.921 6.15522 50.6659 8.30771 50.6659Z" fill="#E66353" stroke="#4C241D" stroke-width="3.58432" stroke-linecap="round" stroke-linejoin="round"/>
</svg>
