<svg width="72" height="74" viewBox="0 0 72 74" fill="none" xmlns="http://www.w3.org/2000/svg">
<path d="M36.7268 31.9616V44.5497H57.5647C56.7154 49.9531 51.2638 60.3905 36.7268 60.3905C24.1984 60.3905 13.9631 50.0128 13.9631 37.2089C13.9631 24.405 24.1961 14.0274 36.7268 14.0274C43.8633 14.0274 48.647 17.0528 51.3717 19.6833L61.3315 10.0839C54.9365 4.11804 46.65 0.484375 36.7268 0.484375C16.4261 0.484375 0 16.899 0 37.2112C0 57.5235 16.4261 73.9381 36.7268 73.9381C57.9228 73.9381 71.9961 59.0407 71.9961 38.049C71.9961 35.6343 71.7321 33.7933 71.4108 31.9639L36.7268 31.9616Z" fill="#2D2A36"/>
</svg>
