<svg width="73" height="74" viewBox="0 0 73 74" fill="none" xmlns="http://www.w3.org/2000/svg">
<path d="M62.1849 62.71H51.3881V45.7677C51.3881 41.7277 51.3037 36.5358 45.7422 36.5358C40.1122 36.5358 39.2545 40.9179 39.2545 45.4689V62.7077H28.444V27.8719H38.8279V32.6236H38.9671C40.4179 29.8793 43.9469 26.9936 49.2119 26.9936C60.1638 26.9936 62.1963 34.2044 62.1963 43.5801V62.7077L62.1849 62.71ZM16.2306 23.111C12.7472 23.111 9.95506 20.2938 9.95506 16.8241C9.95506 13.3658 12.7586 10.5532 16.2306 10.5532C19.7025 10.5532 22.5152 13.3658 22.5152 16.8241C22.5152 20.2938 19.7025 23.111 16.2306 23.111ZM21.6461 62.71H10.8128V27.8741H21.6461V62.71ZM67.605 0.5H5.38358C2.41121 0.5 0 2.8519 0 5.76268V68.2373C0 71.1481 2.41121 73.5 5.38358 73.5H67.5936C70.5614 73.5 72.9977 71.1481 72.9977 68.2373V5.76268C72.9977 2.8519 70.5614 0.5 67.5936 0.5L67.605 0.5Z" fill="#2D2A36"/>
</svg>
