<svg width="82" height="83" viewBox="0 0 82 83" fill="none" xmlns="http://www.w3.org/2000/svg">
<path d="M60.6935 77.4046C60.3894 77.5656 60.415 77.6167 60.7063 77.4685C60.8009 77.4302 60.8801 77.3765 60.9491 77.3126C60.9491 77.2589 60.9491 77.2589 60.6935 77.4046ZM61.3069 77.0724C61.1612 77.1925 61.1612 77.1925 61.335 77.1133C61.427 77.0596 61.5088 77.0085 61.5088 76.9931C61.5088 76.9241 61.4679 76.9395 61.3069 77.0724ZM61.7055 76.8321C61.5599 76.9523 61.5599 76.9523 61.7337 76.873C61.8282 76.8194 61.9074 76.7631 61.9074 76.7504C61.9074 76.6865 61.8666 76.6992 61.7055 76.8321ZM62.1093 76.5945C61.9637 76.7146 61.9637 76.7146 62.1323 76.6328C62.2269 76.5817 62.3061 76.528 62.3061 76.5127C62.3061 76.4488 62.2652 76.4616 62.1093 76.5945ZM62.6537 76.2341C62.3751 76.4207 62.278 76.5408 62.5336 76.4079C62.7048 76.3031 62.9961 76.0731 62.945 76.0731C62.8351 76.114 62.7431 76.183 62.6511 76.2341H62.6537ZM38.2142 0.751206C38.0277 0.763984 37.468 0.815096 36.9773 0.855986C25.3543 1.9089 14.4802 8.16507 7.58765 17.8023C3.77721 23.0848 1.30337 29.2209 0.370566 35.6636C0.04089 37.9125 0 38.577 0 41.6259C0 44.6722 0.04089 45.3264 0.370566 47.5754C2.59651 62.9372 13.5244 75.8329 28.3368 80.6119C31.0023 81.4629 33.7956 82.0507 36.9773 82.4111C38.2142 82.544 43.5632 82.544 44.8001 82.4111C50.2998 81.7977 54.9434 80.4407 59.5384 78.0972C60.2437 77.7394 60.3766 77.6448 60.2821 77.5656C58.0331 74.5985 55.8251 71.6289 53.6144 68.6337L47.0797 59.8091L38.894 47.6827C36.1646 43.6244 33.425 39.5762 30.6419 35.5588C30.6138 35.5588 30.578 40.9486 30.5627 47.5217C30.5346 59.0348 30.5346 59.5024 30.3889 59.7682C30.2433 60.0877 30.003 60.3535 29.6836 60.5017C29.4306 60.6218 29.2031 60.6474 27.9943 60.6474H26.6117L26.2514 60.4225C26.0265 60.2768 25.8399 60.0749 25.7198 59.8372L25.546 59.4769L25.5588 43.4506L25.5869 27.4243L25.8399 27.1048C26.0009 26.908 26.2003 26.747 26.4252 26.6269C26.7599 26.4659 26.8928 26.4403 28.2754 26.4403C29.8982 26.4403 30.1666 26.5042 30.5934 26.9719C33.9055 31.9094 37.2073 36.8596 40.4555 41.8252C45.7687 49.8805 53.0215 60.8723 56.5866 66.2646L63.0703 76.0757L63.3897 75.8636C66.505 73.7858 69.3392 71.312 71.7849 68.4906C76.9371 62.5922 80.2798 55.3368 81.412 47.5932C81.7416 45.3443 81.7825 44.6773 81.7825 41.631C81.7825 38.5821 81.7416 37.9304 81.412 35.6815C79.186 20.3196 68.2582 7.42394 53.4458 2.64237C50.6755 1.76579 47.826 1.16777 44.9407 0.861098C44.1663 0.781873 38.8813 0.687315 38.2168 0.756317L38.2142 0.751206ZM54.9459 25.482C55.3318 25.666 55.6232 26.0136 55.7561 26.4122C55.8251 26.6269 55.8378 31.0711 55.8251 41.0815L55.7969 55.4543L53.2694 51.5698L50.7266 47.6827V37.2481C50.7266 30.4833 50.7547 26.6908 50.7905 26.5042C50.9106 26.0774 51.2019 25.7197 51.5904 25.4948C51.9073 25.3338 52.03 25.321 53.295 25.321C54.4782 25.321 54.6776 25.3338 54.9434 25.482H54.9459Z" fill="#2D2A36"/>
</svg>
