<svg width="72" height="83" viewBox="0 0 72 83" fill="none" xmlns="http://www.w3.org/2000/svg">
<path d="M37.7944 0.374618C42.2509 0.305664 46.6818 0.346526 51.1076 0.305664C51.3757 5.51805 53.2503 10.8275 57.0657 14.5127C60.8735 18.2898 66.2595 20.0188 71.5 20.6036V34.3152C66.589 34.1543 61.6549 33.1327 57.1985 31.0182C55.2576 30.1396 53.4495 29.0083 51.6796 27.8514C51.6567 37.8012 51.7205 47.7381 51.6158 57.6471C51.3502 62.4074 49.7796 67.1448 47.0112 71.0675C42.5573 77.5977 34.8268 81.8549 26.8869 81.9877C22.0168 82.2661 17.1517 80.9381 13.0017 78.4915C6.12422 74.436 1.28469 67.012 0.579831 59.044C0.498108 57.3406 0.470016 55.6397 0.538969 53.9772C1.15189 47.4981 4.35696 41.2999 9.33185 37.0835C14.9707 32.1725 22.8698 29.8332 30.2657 31.2174C30.3346 36.2612 30.1329 41.2999 30.1329 46.3438C26.7541 45.2507 22.8059 45.5572 19.8537 47.6079C17.6982 49.0049 16.0612 51.145 15.2082 53.566C14.5034 55.2924 14.7051 57.2103 14.746 59.044C15.5556 64.6318 20.9288 69.3283 26.6648 68.8201C30.4674 68.7792 34.1118 66.5727 36.0935 63.3421C36.7346 62.2108 37.4522 61.0539 37.4905 59.7233C37.8251 53.6324 37.6922 47.567 37.7331 41.4761C37.7612 27.7492 37.6922 14.0607 37.797 0.377172L37.7944 0.374618Z" fill="#2D2A36"/>
</svg>
